<?xml version="1.0" encoding="UTF-8" standalone="no"?>
<!-- Created with Inkscape (http://www.inkscape.org/) -->

<svg
   version="1.1"
   id="svg1"
   width="600"
   height="525.33331"
   viewBox="0 0 600 525.33331"
   xmlns="http://www.w3.org/2000/svg"
   xmlns:svg="http://www.w3.org/2000/svg">
  <defs
     id="defs1" />
  <g
     id="g1">
    <g
       id="group-R5"
       transform="translate(-113.92276,162.0453)">
      <path
         id="path3605"
         d="m 574.5973,182.01259 c 0,-1.87109 -1.52225,-3.39333 -3.39686,-3.39333 h -11.13847 c 0.33475,2.54764 0.1797,5.07766 -0.48979,7.55132 h 11.62826 c 1.87461,0 3.39686,-1.52226 3.39686,-3.39686 z m -19.78919,4.60903 c 0.0634,-0.15514 0.15143,-0.29248 0.20799,-0.45104 0.0212,-0.0529 0.0528,-0.10222 0.0706,-0.15514 0.82455,-2.3785 0.97606,-4.86627 0.5497,-7.39629 -0.0283,-0.16914 -0.0423,-0.33476 -0.0774,-0.5039 -0.87389,-4.37997 -3.56247,-8.86565 -7.91073,-13.12231 0.1057,7.11439 -1.46236,12.28016 -4.82045,16.03292 -3.94303,4.3976 -10.37735,6.68097 -19.58833,6.9981 -0.28191,0.0108 -0.54268,0.0351 -0.8281,0.0388 -4.46806,8.6472 -10.73323,12.4775 -21.09296,12.86862 -3.14314,21.13526 -24.73649,33.5493 -44.19798,26.99873 l 2.3186,7.30467 c 3.32639,-0.50039 10.91648,-1.7795 20.06052,-4.15095 9.5669,-2.48423 19.66234,-5.87757 28.54212,-10.33508 5.59213,-2.81192 10.84951,-6.11013 15.1978,-9.95097 3.79855,-3.3581 6.93818,-7.12495 9.02422,-11.36046 0.36647,-0.75758 1.13816,-1.23683 1.98034,-1.23683 9.81706,0 17.76656,-4.53502 20.56441,-11.57892 z m -76.18628,49.31441 c -2.43843,0.60608 -4.75703,1.13112 -6.88534,1.58217 -0.25027,4.15446 -2.17414,10.09895 -5.66262,14.58818 1.59624,0.16914 3.23126,0.39114 4.89796,0.63426 4.04172,-5.4547 6.36031,-11.11732 7.65,-16.80461 z m -13.9645,29.70845 c -0.70475,0.0351 -4.49274,0.26782 -5.68376,0.33477 l -15.71577,47.34464 h 8.60493 z m -34.75443,47.67941 -2.07194,-41.17109 c -0.24657,0.11965 -3.34048,1.65967 -3.66819,1.83586 v 39.33523 z m 31.3928,-61.59456 -0.40875,-0.43692 c 3.62944,-3.38983 5.81062,-9.14053 6.36032,-12.88272 -5.10939,0.95846 -8.52035,1.39538 -9.08768,1.46586 -0.088,0.008 -0.17258,0.0132 -0.26428,0.0132 -0.9514,0 -1.8147,-0.61312 -2.10718,-1.53987 l -4.06988,-12.85098 c -0.7259,-0.39467 -1.43062,-0.83865 -2.13538,-1.29673 -30.56825,19.04921 -65.28037,5.53223 -53.8882,21.1881 10.05669,13.83412 -7.08971,13.21042 -17.38249,12.57967 -10.30687,-0.63073 -16.48746,-2.51946 -8.99606,10.38087 7.50201,12.8968 2.64279,21.50523 -20.71591,16.25843 -23.36578,-5.24681 -19.59188,-15.1379 -37.83415,-4.85216 -18.2458,10.2963 -23.58777,5.43357 -38.0632,0 -12.60787,-4.73234 -25.51169,-2.48422 -35.67411,0.46513 -2.7203,2.78726 -5.40186,5.91633 -8.04465,9.4224 64.63202,15.95188 105.57409,20.06054 125.01443,12.50568 16.53682,-6.42726 28.48573,-15.74045 40.04001,-24.74353 18.22817,-14.19705 35.56837,-27.64004 67.25716,-25.67731 z m -216.97638,21.84706 c 13.98564,-4.42228 24.86335,-5.88462 44.11342,3.72808 21.70608,10.8319 25.47998,-18.39026 50.01211,-6.12422 24.53565,12.26605 34.44081,4.71825 18.15418,-10.48307 -16.2866,-15.20131 -12.02291,-20.18384 8.80226,-13.10822 20.83573,7.07915 26.35739,4.71827 12.91089,-5.65908 -12.04758,-9.29204 -9.32022,-19.8174 8.29483,-17.07946 -4.68655,-3.12201 -9.19338,-6.96991 -13.47821,-11.55428 -2.47365,0.59553 -4.96493,1.71608 -7.30818,3.16078 -2.79784,1.7513 -5.46529,3.85144 -7.86143,6.25109 1.82882,-2.86833 4.00647,-5.54283 6.50127,-7.99179 1.74775,-1.6773 3.68932,-3.22774 5.90221,-4.49628 -0.50742,-0.59549 -1.00426,-1.23328 -1.50461,-1.84641 -3.18898,0.97607 -6.31804,2.78724 -9.17226,4.98958 -3.27351,2.56174 -6.31448,5.53223 -9.01718,8.81281 2.10013,-3.70342 4.6055,-7.20247 7.51608,-10.43373 2.31157,-2.50537 4.93322,-4.85568 8.0799,-6.65628 -0.48627,-0.6519 -0.96903,-1.33197 -1.4553,-1.99795 -23.919,14.20057 -28.53505,41.34022 -56.0729,47.60188 -4.05932,0.92321 -8.06578,1.74776 -12.01237,2.56174 -19.22186,3.97124 -36.53035,7.58657 -52.40471,20.32481 z m 123.59085,-73.69855 c 7.97418,11.25476 16.87506,19.49672 26.47721,24.50393 10.39848,5.43709 21.38895,6.97345 32.67189,4.56322 6.20175,-1.32139 12.47044,-3.85143 18.68276,-7.52665 0,0 -2.4948,-2.38909 -2.67805,-2.58643 -31.39631,12.20969 -54.83606,4.7711 -73.33204,-23.35873 z m 3.89371,-9.41538 c 17.38952,28.12632 38.60583,35.81154 68.32487,24.71183 -3.92895,-5.64499 -6.06784,-12.39644 -6.06784,-19.32406 0,-8.05873 2.84364,-15.45854 7.5654,-21.27621 -7.16369,-3.58362 -16.53679,-1.28967 -26.43139,1.20866 -6.30392,1.58566 -13.00957,3.27351 -19.40512,3.27351 -6.06429,0 -11.8432,-1.5469 -16.7447,-6.11013 z m 11.17369,-28.9861 c 1.0254,0.81398 2.0508,1.53636 3.08325,2.12129 L 374.67924,45.341724 392.43874,165.93387 c 0.58496,0.11292 1.16989,0.20086 1.75836,0.26085 l -9.21101,-100.887536 15.3493,100.795906 c 0.79639,-0.0951 1.59274,-0.21141 2.4032,-0.3559 l -4.85216,-64.65314 10.69095,63.31061 c 1.56453,-0.42285 3.16077,-0.87741 4.78168,-1.34957 11.68465,-3.37575 24.86688,-7.14965 38.11254,3.24886 0.35587,-0.20086 0.72587,-0.37705 1.09233,-0.56379 h -0.0669 c 1.88167,-10.60992 -0.0238,-18.92236 -3.05857,-29.30677 -4.06638,-13.91515 -9.63738,-32.96788 -6.5964,-69.723766 2.84009,-34.398529 -2.96698,-63.7299476 -8.09047,-89.60812 -3.91133,-19.736333 -7.55838,-38.433179 -6.79372,-56.428796 -11.32169,2.346789 -21.68496,8.287784 -29.43007,17.12173 -10.16945,11.603603 -14.84896,27.030433 -12.82636,42.333944 l 2.06847,15.6241514 C 389.76435,10.943283 380.11289,25.401094 365.57755,29.60136 Z M 364.99958,25.196628 c 12.11103,-3.837331 20.07107,-16.0575666 18.39027,-28.8662816 l -2.06841,-15.6241634 c -2.18823,-16.564984 2.87535,-33.263881 13.89048,-45.82241 11.00103,-12.562053 26.90005,-19.764521 43.61304,-19.764521 31.97773,0 57.99333,26.015598 57.99333,57.99333 0.63427,8.69301 -2.10366,17.2485838 4.70771,26.48776838 3.88663,5.31024602 10.29981,9.10176102 17.29791,9.74660402 V -26.887418 c 0,-45.011968 -37.37253,-81.975742 -83.74114,-79.808662 -48.23616,2.33622 -81.47184,45.174046 -75.57667,90.277622 z m 57.73257,-147.978468 0.58493,12.90032 c 10.07079,-1.86757 20.55737,-1.89223 30.69159,-0.0564 l -0.80695,-14.01381 z m 24.84926,291.64745 c -11.03276,-7.90724 -21.7202,-4.82397 -32.99256,-1.56805 -5.8987,1.70547 -11.90312,3.44267 -17.9005,3.44267 -4.9649,0 -9.92982,-1.20159 -14.83484,-4.58436 l -0.97254,2.35385 c 8.39348,9.20041 20.45869,6.20527 33.23569,2.98458 10.75086,-2.70621 21.85057,-5.50051 30.68099,-0.29248 0.88447,-0.82805 1.81473,-1.60328 2.78376,-2.33621 z m 44.82167,-195.753028 c 0,-28.831059 -22.90768,-52.351861 -51.46741,-53.468887 -0.96549,17.833529 2.7203,36.681892 6.66688,56.597943 5.17987,26.1635924 11.05389,55.815664 8.16093,90.830856 -2.97404,35.938376 2.24109,53.785996 6.43077,68.123986 2.75556,9.42595 4.96493,17.10061 3.93599,26.92472 0.58141,-0.0283 1.15931,-0.088 1.74778,-0.088 3.2982,0 6.46955,0.49685 9.48583,1.37776 3.04098,-5.90573 4.74997,-12.34356 2.98812,-18.66159 -1.86406,-7.28704 -7.06507,-14.33448 -8.40405,-22.81255 -1.48702,-8.40052 0.57435,-16.8821 3.87255,-24.271346 1.54338,-3.74218 3.16429,-7.46323 3.49199,-11.4556 0.38762,-3.98884 -0.71177,-8.02351 -2.49125,-11.65292 1.98032,3.52019 3.34049,7.53368 3.18192,11.68814 -0.1057,4.16152 -1.5751,8.10456 -2.89298,11.91017 -1.35662,3.812666 -2.53356,7.642946 -2.98813,11.568366 -0.451,3.90781 -0.35235,7.91073 0.51448,11.68112 1.5751,7.69931 6.8642,13.95392 9.58804,22.25227 1.33547,4.14389 1.55044,8.78108 0.67655,13.06946 -0.56379,2.98812 -1.56805,5.80357 -2.76259,8.50272 2.96696,1.38482 5.69431,3.18545 8.11864,5.33492 2.88239,-3.16429 5.45823,-6.5647 7.0721,-10.27868 1.96975,-4.33771 1.93453,-9.07004 -0.14455,-13.42185 -4.10867,-8.81282 -13.25272,-15.66292 -17.10766,-26.11425 -1.92747,-5.19044 -1.97681,-10.91999 -0.59551,-16.1351 1.38834,-5.267946 4.23904,-9.869936 7.15316,-14.186486 2.85067,-4.32009 6.08193,-8.60492 6.77256,-13.72841 0.75056,-5.16928 -2.05783,-10.12011 -5.34194,-14.05608 3.43914,3.77741 6.56468,8.64013 6.03963,14.12656 -0.4933,5.42652 -3.65406,9.98974 -6.28628,14.412 -2.71679,4.42931 -5.23272,8.989016 -6.29339,13.925756 -1.0571,4.91204 -0.75758,10.09542 1.13818,14.64455 1.88873,4.59846 5.11644,8.5873 8.49569,12.49862 3.35808,3.9395 7.06855,7.82266 9.66554,12.86509 1.26855,2.50888 2.18118,5.36308 2.31157,8.32653 0.15143,2.95992 -0.43342,5.90927 -1.46939,8.56263 -1.53987,3.9536 -3.79153,7.40686 -6.30745,10.56764 5.02835,-3.94305 13.96097,-12.2872 14.41198,-22.1078 0.31714,-6.82545 -3.59771,-13.4007 -11.62121,-19.54254 -17.72781,-13.56279 -10.58877,-26.48425 -4.29189,-37.883466 5.92337,-10.71564 11.03277,-19.9689 -0.29248,-30.67748 -6.68096,-6.321544 -9.45763,-11.318195 -8.73176,-15.726354 1.44121,-8.70358 17.22394,-10.772009 18.08723,-14.514196 0.14087,-0.623702 -0.2995,-1.596245 -1.24033,-2.741446 -6.00441,-7.315229 -4.88739,-10.930562 -2.7943,-14.894749 1.45528,-2.76611 2.83307,-5.3948066 -1.0818,-12.5197596 -7.69931,-10.6874356 -4.72882,-20.3177544 -5.40185,-28.8521994 z M 457.39847,163.71745 c 1.36368,-0.44751 2.77318,-0.80692 4.20732,-1.07826 1.19807,-9.42241 -0.84216,-16.59316 -3.65057,-26.20588 -4.06638,-13.91515 -9.63383,-32.96788 -6.59288,-69.723776 2.83661,-34.398523 -2.9705,-63.7299296 -8.09396,-89.608114 -3.98181,-20.106327 -7.69934,-39.137919 -6.75145,-57.440096 -1.37776,0.0564 -2.75555,0.126843 -4.11217,0.292466 -0.90561,17.745432 2.75555,36.484558 6.68095,56.287848 5.17987,26.1635924 11.05037,55.815664 8.15742,90.830856 -2.97049,35.938376 2.2446,53.785996 6.43077,68.123986 2.90356,9.92631 5.17987,17.92164 3.72457,28.52097 z m -2.81896,58.36332 c 28.38354,14.46134 57.55286,-21.40658 34.94117,-46.06554 -18.11189,-19.74339 -51.04457,-6.87478 -51.04457,19.835 0,6.91353 2.44899,13.64384 6.89593,18.92942 2.65687,3.15723 5.86345,5.60271 9.20747,7.30112 z m 134.22893,-38.88772 -4.10512,1.05712 c -0.67656,0.17627 -0.84218,1.06062 -0.27485,1.46939 l 3.4462,2.4701 c 0.69063,0.49685 0.27133,1.58568 -0.57437,1.48702 l -4.21437,-0.49684 c -0.69063,-0.0812 -1.16634,0.68712 -0.78227,1.27205 l 2.31861,3.54488 c 0.46867,0.7153 -0.32417,1.57862 -1.07472,1.18042 l -3.74573,-1.98383 c -0.62015,-0.32771 -1.339,0.21856 -1.191,0.90206 l 0.88092,4.1439 c 0.17972,0.8316 -0.87035,1.35661 -1.4271,0.71177 l -2.7767,-3.19951 c -0.45808,-0.53211 -1.32491,-0.28542 -1.43768,0.40521 l -0.67656,4.18618 c -0.13398,0.84217 -1.30024,0.94789 -1.58567,0.14799 l -1.43413,-3.99237 c -0.236,-0.65541 -1.13466,-0.73999 -1.48702,-0.13743 l -2.14242,3.65762 c -0.42988,0.73646 -1.55396,0.41582 -1.53282,-0.43693 l 0.10221,-4.23552 c 0.0212,-0.6977 -0.78929,-1.0994 -1.33548,-0.66598 l -3.31582,2.63927 c -0.6695,0.52856 -1.59977,-0.17627 -1.27556,-0.96197 l 1.62795,-3.91484 c 0.26779,-0.64485 -0.33477,-1.31083 -1.00426,-1.10295 l -3.09735,0.96552 c -4.28132,6.07487 -11.95246,9.94391 -21.09299,10.28924 -2.8965,5.3455 -7.22713,9.95804 -12.36119,13.94687 v 7.52666 c 0,11.40276 -3.87609,22.62226 -10.91648,31.59366 l -48.0529,61.23161 c -0.41934,0.53562 -1.06067,0.8457 -1.73722,0.8457 h -40.5791 c -1.21923,0 -2.20938,-0.99018 -2.20938,-2.20587 v -39.04979 c -6.36737,3.78446 -12.71006,8.24901 -19.36635,12.98488 -19.53902,13.90107 -39.73694,28.27078 -65.71026,28.27078 -45.98805,0 -109.37969,-16.417 -110.01751,-16.58263 -0.97255,-0.25714 -1.6491,-1.13463 -1.6491,-2.13888 v -8.01999 c 0,-0.41579 0.15143,-0.79986 0.36647,-1.1452 0.0238,-0.0388 0.0132,-0.0951 0.0423,-0.13029 21.43478,-30.26872 46.2065,-35.38165 72.41943,-40.79407 3.91836,-0.81047 7.90017,-1.63148 11.93129,-2.54765 24.90563,-5.65908 31.40337,-34.01796 55.89673,-47.7816 L 378.63991,162.36796 372.8152,118.2334 350.53476,-20.45304 c -3.84791,-24.007079 2.83306,-48.514529 18.34094,-67.243085 11.19486,-13.513455 26.21291,-23.041585 42.83782,-27.573085 l -1.16642,-15.87434 c -0.0423,-0.58493 0.15144,-1.16635 0.53558,-1.61034 0.38411,-0.44751 0.93381,-0.71884 1.52226,-0.75759 l 34.80376,-2.31862 c 1.18042,-0.0318 2.23754,0.8175 2.3468,2.01909 l 0.4757,5.55691 4.9649,-0.19028 c 1.3214,-0.0846 2.22348,0.88093 2.29043,2.07899 l 0.68712,11.93484 c 21.9915,6.64572 40.37474,22.773774 47.14027,35.628293 11.96655,15.289405 17.92516,33.686725 17.92516,51.914911 V 183.60186 c 7.85436,-0.28187 13.21746,-2.08251 16.29366,-5.52517 3.25591,-3.63648 4.33066,-9.35547 3.36516,-17.99564 -0.0951,-0.88797 0.34532,-1.74424 1.12406,-2.17766 0.77521,-0.42988 1.73718,-0.35236 2.43489,0.19372 5.94804,4.66539 10.02499,9.78535 12.14624,14.98284 l 1.18752,0.36998 c 0.66949,0.20799 1.27204,-0.45806 1.00425,-1.1029 l -1.62795,-3.91487 c -0.32419,-0.78578 0.60607,-1.49054 1.27556,-0.96198 l 3.31583,2.63927 c 0.54618,0.43343 1.35662,0.0318 1.33548,-0.66598 l -0.10233,-4.23903 c -0.0212,-0.84921 1.10293,-1.16989 1.53281,-0.43342 l 2.14243,3.65762 c 0.35237,0.60255 1.25091,0.51799 1.48702,-0.13742 l 1.43413,-3.99239 c 0.28542,-0.79986 1.45179,-0.69415 1.58568,0.148 l 0.67655,4.18618 c 0.1128,0.69066 0.9796,0.93731 1.43768,0.40524 l 2.77669,-3.19955 c 0.55676,-0.64483 1.60682,-0.12341 1.42711,0.71179 l -0.88092,4.14389 c -0.14799,0.68713 0.57084,1.22625 1.19099,0.90209 l 3.74574,-1.98386 c 0.75054,-0.39819 1.54338,0.46513 1.07471,1.18045 l -2.31859,3.54486 c -0.38408,0.58493 0.0917,1.3531 0.78227,1.27205 l 4.21437,-0.49685 c 0.84569,-0.0986 1.26499,0.99018 0.57435,1.48702 l -3.44619,2.47013 c -0.56733,0.40874 -0.4017,1.2932 0.27485,1.4694 l 4.10512,1.05711 c 0.82455,0.21486 0.82455,1.38482 0,1.59625 z M 477.8607,195.85023 c 0,-5.51462 -4.46808,-9.98623 -9.98622,-9.98623 -5.51109,0 -9.98268,4.47161 -9.98268,9.98623 0,5.51463 4.47159,9.98269 9.98268,9.98269 5.51814,0 9.98622,-4.46806 9.98622,-9.98269 z m -9.98622,24.05995 c -13.26326,0 -24.06345,-10.79315 -24.06345,-24.05995 0,-13.27031 10.80019,-24.06345 24.06345,-24.06345 13.27033,0 24.06348,10.79314 24.06348,24.06345 0,13.2668 -10.79315,24.05995 -24.06348,24.05995 z m 5.14463,-300.477901 c 3.44268,0 6.22993,-2.787262 6.22993,-6.226413 0,-3.442663 -2.78725,-6.229925 -6.22993,-6.229925 -3.43562,0 -6.22289,2.787262 -6.22289,6.229925 0,3.439151 2.78727,6.226413 6.22289,6.226413 z m -18.85542,-7.498469 c 3.43563,0 6.2229,-2.787262 6.2229,-6.229937 0,-3.435615 -2.78727,-6.226403 -6.2229,-6.226403 -3.44265,0 -6.22991,2.790788 -6.22991,6.226403 0,3.442675 2.78726,6.229937 6.22991,6.229937 z m -59.95251,14.567048 c 3.43563,0 6.2229,-2.787263 6.2229,-6.226414 0,-3.439151 -2.78727,-6.226402 -6.2229,-6.226402 -3.44267,0 -6.22992,2.787251 -6.22992,6.226402 0,3.439151 2.78725,6.226414 6.22992,6.226414 z m 95.53855,6.117164 c 3.44265,0 6.22992,-2.787263 6.22992,-6.226402 0,-3.439151 -2.78727,-6.226413 -6.22992,-6.226413 -3.43562,0 -6.2229,2.787262 -6.2229,6.226413 0,3.439139 2.78728,6.226402 6.2229,6.226402 z m -108.84411,8.865669 c 3.43916,0 6.22641,-2.787251 6.22641,-6.229925 0,-3.439152 -2.78725,-6.226414 -6.22641,-6.226414 -3.43914,0 -6.22638,2.787262 -6.22638,6.226414 0,3.442674 2.78724,6.229925 6.22638,6.229925 z m 31.87202,-26.322158 c 3.44268,0 6.22995,-2.787262 6.22995,-6.229937 0,-3.439139 -2.78727,-6.226398 -6.22995,-6.226398 -3.43562,0 -6.2264,2.787259 -6.2264,6.226398 0,3.442675 2.79078,6.229937 6.2264,6.229937 z m 20.30718,-4.485697 c 3.44268,0 6.22995,-2.790774 6.22995,-6.229925 0,-8.231411 -12.45281,-8.245501 -12.45281,0 0,3.439151 2.78723,6.229925 6.22286,6.229925 z m 68.34248,53.275075 c 0,3.439151 2.79079,6.226414 6.22642,6.226414 3.44267,0 6.22995,-2.787263 6.22995,-6.226414 0,-3.439139 -2.78728,-6.229925 -6.22995,-6.229925 -3.43563,0 -6.22642,2.790786 -6.22642,6.229925 z m 6.41669,15.440936 c -3.43914,0 -6.22991,2.790773 -6.22991,6.229925 0,3.439151 2.79077,6.2264128 6.22991,6.2264128 3.43918,0 6.22995,-2.7872618 6.22995,-6.2264128 0,-3.439152 -2.79077,-6.229925 -6.22995,-6.229925 z m -5.51108,-29.475902 c 3.43914,0 6.22641,-2.78725 6.22641,-6.226401 0,-3.439152 -2.78727,-6.226414 -6.22641,-6.226414 -3.43913,0 -6.22641,2.787262 -6.22641,6.226414 0,3.439151 2.78728,6.226401 6.22641,6.226401 z m -129.80316,10.525347 c 3.43917,0 6.22642,-2.787263 6.22642,-6.226414 0,-3.439139 -2.78725,-6.226401 -6.22642,-6.226401 -3.43914,0 -6.2264,2.787262 -6.2264,6.226401 0,3.439151 2.78726,6.226414 6.2264,6.226414 z m 45.3749,245.490308 c 3.43917,0 6.22641,-2.79079 6.22641,-6.22642 0,-3.43916 -2.78724,-6.22995 -6.22641,-6.22995 -3.43913,0 -6.22641,2.79079 -6.22641,6.22995 0,3.43563 2.78728,6.22642 6.22641,6.22642 z m -16.63545,-3.85144 c 3.43914,0 6.2264,-2.78725 6.2264,-6.22641 0,-3.43914 -2.78726,-6.22993 -6.2264,-6.22993 -3.43916,0 -6.22641,2.79079 -6.22641,6.22993 0,3.43916 2.78725,6.22641 6.22641,6.22641 z m -8.8516,-12.75584 c 0,-3.43916 -2.78724,-6.22995 -6.2264,-6.22995 -3.43914,0 -6.22992,2.79079 -6.22992,6.22995 0,3.43914 2.79078,6.2264 6.22992,6.2264 3.43916,0 6.2264,-2.78726 6.2264,-6.2264 z M 376.75471,-23.906357 c 0,-3.439151 -2.78728,-6.226413 -6.22993,-6.226413 -3.43563,0 -6.22641,2.787262 -6.22641,6.226413 0,3.439152 2.79078,6.226402 6.22641,6.226402 3.44265,0 6.22993,-2.78725 6.22993,-6.226402 z m -3.71048,27.9818354 c -3.44269,0 -6.22993,-2.787262 -6.22993,-6.226414 0,-3.439139 2.78724,-6.2299246 6.22993,-6.2299246 3.43914,0 6.2264,2.7907856 6.2264,6.2299246 0,3.439152 -2.78726,6.226414 -6.2264,6.226414"
         style="fill:#3c2334;fill-opacity:1;fill-rule:nonzero;stroke:none;stroke-width:0.352371" />
    </g>
  </g>
</svg>
