<?xml version="1.0" encoding="UTF-8" standalone="no"?>
<!-- Created with Inkscape (http://www.inkscape.org/) -->

<svg
   version="1.1"
   id="svg1"
   width="600"
   height="525.33331"
   viewBox="0 0 600 525.33331"
   xmlns="http://www.w3.org/2000/svg"
   xmlns:svg="http://www.w3.org/2000/svg">
  <defs
     id="defs1" />
  <g
     id="g1">
    <g
       id="group-R5"
       transform="translate(-113.92276,162.0453)">
      <path
         id="path3593"
         d="m 569.56929,82.212994 c -5.47596,-1.393821 -9.86532,-2.518513 -14.18276,-3.631657 v -4.002254 c 4.31744,1.231172 8.7068,2.481768 14.18276,4.044678 z m 0,25.854226 c -5.47596,-0.23584 -9.86532,-0.43822 -14.18276,-0.62387 v -9.967538 c 4.31744,0.51755 8.7068,1.029 14.18276,1.67014 z m 0,14.12733 c -5.47596,0.38803 -9.86532,0.7052 -14.18276,1.01459 v -6.42001 c 4.31744,-0.11496 8.7068,-0.21642 14.18276,-0.35133 z m 0,6.74884 c -5.47596,0.69656 -9.86532,1.25065 -14.18276,1.79896 v -2.34727 c 4.31744,-0.47222 8.7068,-0.95556 14.18276,-1.55136 z m 0,18.60164 c -5.47596,1.53199 -9.86532,2.75452 -14.18276,3.9634 v -11.4203 c 4.31744,-0.84044 8.7068,-1.70322 14.18276,-2.77681 z M 537.37568,74.458197 H 385.01362 v -4.477932 h 152.36206 z m 0,32.265543 H 385.01362 V 95.589852 h 152.36206 z m 0,17.6353 H 385.01362 v -7.18205 h 152.36206 z m 0,31.64675 H 385.01362 V 130.1602 h 152.36206 z m -164.35733,9.11841 h -6.81431 V 92.826692 h 6.81431 z M 357.67712,72.169961 c -42.30362,0.328657 -69.44584,11.47642 -69.44584,33.344899 0,21.75844 37.30976,30.24144 69.44584,30.56816 v 17.01638 c -38.43235,-0.36859 -83.24003,-11.88728 -83.24003,-41.55525 0,-29.783781 32.54618,-44.945133 83.24003,-45.318591 z M 588.60197,56.893437 h -8.55574 c -1.05776,0 -1.91402,0.854149 -1.91402,1.905443 v 7.030177 h -6.28909 L 539.96614,53.692064 c -0.20886,-0.08203 -0.44631,-0.123587 -0.67644,-0.123587 H 359.59115 c -1.05055,0 -1.91403,0.85701 -1.91403,1.905389 v 2.093954 c -78.95142,0.505678 -95.68863,30.590442 -95.68863,55.90498 0,25.31379 16.73721,55.39833 95.68863,55.90424 v 2.09396 c 0,1.04837 0.86348,1.91402 1.91403,1.91402 H 539.2897 c 0.23045,0 0.4679,-0.0432 0.67644,-0.12305 l 31.87698,-12.14564 h 6.28909 v 7.02084 c 0,1.0513 0.85626,1.9148 1.91402,1.9148 h 8.55574 c 1.05777,0 1.91403,-0.8635 1.91403,-1.9148 V 58.799042 c 0,-1.051294 -0.85626,-1.905443 -1.91403,-1.905443"
         style="fill:#3c2334;fill-opacity:1;fill-rule:nonzero;stroke:none;stroke-width:0.719569" />
    </g>
  </g>
</svg>
