<?xml version="1.0" encoding="UTF-8" standalone="no"?>
<!-- Created with Inkscape (http://www.inkscape.org/) -->

<svg
   version="1.1"
   id="svg1"
   width="600"
   height="525.33331"
   viewBox="0 0 600 525.33331"
   xmlns="http://www.w3.org/2000/svg"
   xmlns:svg="http://www.w3.org/2000/svg">
  <defs
     id="defs1" />
  <g
     id="g1">
    <g
       id="group-R5"
       transform="translate(-113.92276,162.0453)">
      <path
         id="path3591"
         d="M 584.15817,63.214703 H 328.40027 V 59.0629 h 255.7579 z m 0,29.915653 H 328.40027 V 82.807353 h 255.7579 z m 0,16.350934 h -255.7579 v -6.65898 h 255.7579 z m 0,29.34193 h -255.7579 v -23.96326 h 255.7579 z m -268.66755,9.19953 H 309.1726 V 85.291203 h 6.31802 z M 303.06133,60.204453 c -43.70598,0.30773 -71.7556,11.79547 -71.7556,34.353673 0,22.475454 38.5908,31.208634 71.7556,31.508214 v 14.67762 c -64.06785,-0.29972 -76.98085,-16.25145 -76.98085,-47.613604 0,-31.177296 37.5914,-38.969121 76.98085,-39.203946 z m 306.8561,-13.275274 h -7.93929 c -0.98073,0 -1.77467,0.791942 -1.77467,1.76667 v 6.518173 h -5.24392 l -7.57232,-10.627945 c -0.33375,-0.466349 -0.874,-0.739853 -1.44773,-0.739853 H 304.836 c -0.98073,0 -1.77467,0.794594 -1.77467,1.766621 v 1.936147 c -29.62215,0.188141 -55.1145,4.889656 -73.75444,13.682229 -5.98913,2.82276 -9.85937,8.928675 -9.85937,15.540272 v 45.226457 c 0,6.61694 3.87024,12.7155 9.85937,15.54562 18.63994,8.79857 44.13229,13.49744 73.75444,13.68223 v 1.93614 c 0,0.97203 0.79394,1.77463 1.77467,1.77463 h 281.1035 c 0.57373,0 1.11413,-0.2737 1.44773,-0.74786 l 7.57232,-10.62729 h 5.24392 v 6.50951 c 0,0.97473 0.79394,1.77533 1.77467,1.77533 h 7.93929 c 0.98073,0 1.77462,-0.8006 1.77462,-1.77533 V 48.695849 c 0,-0.974728 -0.79389,-1.76667 -1.77462,-1.76667"
         style="fill:#3c2334;fill-opacity:1;fill-rule:nonzero;stroke:none;stroke-width:0.667164" />
    </g>
  </g>
</svg>
