<?xml version="1.0" encoding="UTF-8" standalone="no"?>
<!-- Created with Inkscape (http://www.inkscape.org/) -->

<svg
   version="1.1"
   id="svg1"
   width="600"
   height="525.33331"
   viewBox="0 0 600 525.33331"
   xmlns="http://www.w3.org/2000/svg"
   xmlns:svg="http://www.w3.org/2000/svg">
  <defs
     id="defs1" />
  <g
     id="g1">
    <g
       id="group-R5"
       transform="translate(-113.92276,162.0453)">
      <path
         id="path3597"
         d="m 254.5958,131.41289 c 11.82964,5.79384 17.94125,17.60049 20.24418,29.46327 0.23244,1.19582 1.27444,2.08848 2.54155,2.13339 5.15605,0.16843 12.45001,0.0786 29.71586,2.16147 9.82036,1.27441 19.56663,3.03166 29.23761,6.0577 -4.24999,-2.7734 -8.92085,-4.9068 -13.6975,-6.72017 -4.79162,-1.77409 -9.73945,-3.1215 -14.73944,-4.14889 -9.34934,-1.92007 -18.86479,-2.71728 -28.39548,-2.73412 -4.61207,-15.97237 -14.71985,-24.35437 -24.90678,-26.21265 z m 306.22996,10.20659 c -3.8968,4.64294 -6.47817,10.22344 -8.14894,16.00606 -18.78561,0.0282 -41.24911,3.43588 -56.83081,13.60318 17.50055,-5.47384 40.60637,-7.91038 58.85023,-8.21917 h 0.10565 c 1.21713,-0.0223 2.29625,-0.89266 2.5371,-2.13339 2.30735,-11.86278 8.41734,-23.66943 20.24642,-29.46327 -6.4125,1.16774 -12.41243,5.03592 -16.75952,10.20659 z M 309.16802,25.051994 c -32.09526,12.845282 -37.32374,54.407152 -3.83622,63.024932 -27.2833,-18.53806 -20.09436,-41.87065 3.83622,-63.024932 z m 47.63474,72.327642 c -18.40622,3.469574 -34.98091,3.907494 -52.83011,-0.38177 C 274.22354,89.862226 263.798,53.055576 285.4565,31.227596 304.57553,11.95407 325.70955,2.4548586 341.34622,0.78183559 299.53342,-9.2338894 290.48725,7.5469346 286.14297,-1.3347224 c -11.48261,-23.3943346 2.05258,-51.9312686 19.31856,-68.9591146 -9.61441,16.966118 -19.2438,41.786432 -12.09468,59.953952 40.29464,-13.030535 73.76928,12.8059776 79.62036,14.8102386 7.91048,2.706039 17.84479,3.407819 25.05115,-3.177633 -4.35712,8.230404 -14.80965,10.9757484 -24.19096,9.9427324 29.10335,26.223893 16.39282,79.828203 -17.04464,86.144173 z m 166.2109,-72.327642 c 24.0619,21.266572 30.937,44.610382 3.83555,63.024932 33.56678,-8.64025 28.12774,-50.23579 -3.83555,-63.024932 z m -47.633,72.552212 c -33.8384,-6.39457 -46.02736,-60.53783 -16.7876,-86.402414 -9.43695,1.117216 -20.04435,-1.5888244 -24.45041,-9.9090584 7.20422,6.585452 17.13853,5.883673 25.05342,3.177633 5.14255,-1.762854 39.97247,-27.6274376 79.61822,-14.8102386 7.15193,-18.173136 -2.4911,-43.00469 -12.0924,-59.953965 17.58414,17.342254 30.66124,45.839889 19.31668,68.9591406 -4.26109,8.685147 -14.65411,-7.770044 -55.79102,2.25690099 C 505.31772,2.3145166 526.9919,11.5611 546.72009,31.446566 c 25.16563,25.3593 13.44835,82.146864 -71.33943,66.15764 z m -59.28875,-22.95081 c -15.64109,0 -23.8625,32.517404 -39.93088,69.419484 -6.39512,14.68673 1.24294,31.86616 16.61014,36.39119 2.62911,0.76914 5.31547,1.43163 8.0041,1.97059 5.31159,1.06109 10.46323,-2.47025 11.45916,-7.80374 l 3.85748,-20.69391 3.85748,20.69391 c 0.99098,5.33349 6.14249,8.86483 11.45863,7.80374 2.68408,-0.53896 5.37057,-1.20145 8.00022,-1.97059 15.37107,-4.52503 23.00699,-21.70446 16.61241,-36.39119 -16.06838,-36.90208 -24.2926,-69.419484 -39.92874,-69.419484 z m 3.51953,-135.150454 c -0.11769,-21.491128 -0.74331,-42.976652 -3.51953,-64.467782 -2.78064,21.49113 -3.40612,42.976654 -3.52461,64.467782 0.10565,21.485525 0.73046,42.971032 3.52461,64.4621566 2.79134,-21.4911246 3.41856,-42.9766316 3.51953,-64.4621566 z M 604.72886,70.549416 c 2.41233,-13.06422 2.22991,-26.29687 -0.51154,-39.3218 -6.20147,-29.4183674 -18.32918,-66.707838 -30.89541,-95.003376 -3.31358,-7.461262 -7.96719,-14.147765 -13.82723,-19.879842 -28.49819,-27.924988 -83.89456,-56.108228 -143.40491,-56.108228 -59.51276,0 -114.90458,28.18324 -143.40113,56.108228 -5.86177,5.726477 -10.51369,12.41858 -13.83394,19.879842 -12.55952,28.284317 -24.68448,65.5737746 -30.8932,95.003376 -2.7459,13.03615 -2.91432,26.2688 -0.50642,39.32742 7.34842,39.720414 18.11869,65.102174 20.79889,71.036374 7.37705,2.61621 14.96968,8.92095 18.01988,16.94925 2.95869,7.78688 0.48284,16.28116 4.50033,17.69031 1.80275,0.62318 5.0876,-0.84212 7.16652,-3.21131 1.45409,-1.6562 2.46072,-1.16775 10.64108,-0.83652 17.81831,0.71862 42.49673,1.73478 53.81267,15.18639 0.41899,-13.76039 5.76963,-20.70515 8.66274,-36.35751 4.58781,-24.41612 -29.46162,-41.28677 -62.30918,-14.97305 -0.243,0.19651 -0.59619,0.15718 -0.79385,-0.0842 -0.1772,-0.21895 -0.16209,-0.53896 0.0254,-0.74107 36.64832,-39.159004 90.87758,-10.41994 69.28925,36.08241 -5.52824,11.65506 -6.43657,13.2495 -9.79615,26.25758 1.80048,7.10195 0.72137,9.8529 1.03752,25.01683 h 2.62457 v -3.44149 c 0,-11.78419 13.89744,-18.16192 22.82792,-10.26836 4.57444,-6.77633 14.07919,-8.24725 20.47604,-2.59375 4.97418,-7.37144 15.55068,-8.27533 21.64998,-1.42601 6.08579,-6.83248 16.6647,-5.95666 21.64944,1.42601 6.38175,-5.63666 15.89104,-4.20503 20.47899,2.59375 8.92767,-7.88794 22.82498,-1.51583 22.82498,10.26836 v 3.44149 h 2.62978 c 0.32672,-15.70288 -0.74397,-17.95418 1.04367,-24.98876 -0.91007,-3.51449 -1.82014,-6.96721 -2.88628,-10.24029 -3.6094,-11.14417 -20.20443,-35.3638 -6.10773,-55.70962 13.05129,-19.42512 45.40483,-21.07569 68.47575,3.58185 0.48051,0.5109 -0.22107,1.26319 -0.76751,0.82528 -25.63665,-20.53672 -52.24502,-14.60812 -60.12902,0.28633 -7.99353,14.54076 5.62534,32.07949 6.4652,49.5677 0.0254,0.50527 0,1.00493 0.0214,1.5046 12.88626,-15.35481 42.66123,-14.42846 61.58713,-15.57377 1.10092,-0.0786 2.14968,0.37614 2.86663,1.19583 2.0677,2.36919 5.35533,3.83449 7.16491,3.21131 1.5742,-0.55019 2.58297,-3.13271 2.76271,-7.09072 -0.46031,-13.00246 7.84241,-23.09679 19.74237,-27.50954 2.64864,-5.87245 13.46948,-31.27667 20.81627,-71.081294 z M 539.73547,187.07198 c -1.38163,-1.67303 -3.42966,-2.49271 -5.54617,-2.24568 l -0.0776,0.012 c -6.91001,23.06872 -2.48214,46.63148 -11.09875,62.25016 5.71521,-16.00044 -1.41252,-36.08241 0.64902,-60.27958 -1.33789,0.36493 -2.65158,0.77475 -3.93451,1.25196 -6.84193,26.43723 -1.81105,53.22817 -11.5136,71.32832 6.4525,-17.39277 -0.0455,-39.27689 1.13863,-64.95621 -12.71949,13.71547 3.33538,45.21671 -32.64146,52.08847 v 11.43614 c 0,12.77229 -16.52428,17.88682 -23.7705,7.38267 -6.1116,5.09207 -14.77661,3.57624 -19.03102,-2.59376 -5.52664,4.60925 -13.18877,3.85696 -17.82058,-1.11721 -4.63168,4.97417 -12.28993,5.72646 -17.81657,1.11721 -4.25,6.15877 -12.91488,7.69707 -19.03557,2.59376 -7.25237,10.51539 -23.77264,5.3784 -23.77264,-7.38267 v -11.43611 c -35.58392,-6.79877 -20.53569,-39.03547 -32.63652,-52.09408 1.18638,25.74107 -5.31145,47.56905 1.13582,64.96182 -9.71538,-18.12262 -4.64919,-44.80687 -11.51359,-71.33393 -1.2828,-0.4716 -2.59207,-0.88143 -3.93438,-1.24635 2.05927,24.1691 -5.05281,44.31282 0.65183,60.27958 -8.65432,-15.68604 -4.15397,-39.06916 -11.09714,-62.25016 l -0.0749,-0.012 c -0.24969,-0.0282 -0.49121,-0.0392 -0.73261,-0.0392 -4.11853,0 -7.26761,4.02539 -6.00207,8.15743 15.02243,49.02874 -6.13406,84.97641 24.89107,104.72154 30.24866,19.23982 35.27058,35.70625 60.35476,32.57914 70.29134,-8.88726 87.48029,11.06558 110.2594,-10.04378 8.95242,-8.29217 18.79913,-15.87133 29.26396,-22.53536 31.04252,-19.75636 9.82933,-55.58051 24.8888,-104.72154 0.63163,-2.06041 0.20207,-4.20504 -1.18397,-5.87244 z m -174.83821,25.34246 c -9.93658,0 -5.88813,13.72108 -6.71743,18.91983 0,8.89289 13.43472,8.87604 13.43472,0 -0.84655,-5.2998 3.13838,-18.91983 -6.71729,-18.91983 z m 20.47885,-2.59375 c -9.93872,0 -5.8904,13.72108 -6.71729,18.91982 0,8.89288 13.43244,8.87604 13.43244,0 -0.84441,-5.29979 3.13771,-18.91982 -6.71515,-18.91982 z m 20.4739,-2.58814 c -9.87707,0 -5.90565,13.83898 -6.71461,18.91982 0,8.88727 13.42976,8.88165 13.42976,0 -0.84214,-5.2998 3.13825,-18.91982 -6.71515,-18.91982 z m 20.47658,0 c -9.93658,0 -5.88813,13.71546 -6.71515,18.91982 0,8.88727 13.43257,8.87605 13.43257,0 -0.84214,-5.2998 3.13825,-18.91982 -6.71742,-18.91982 z m 37.3479,56.72018 c 9.0899,0 5.14709,-13.08107 5.99311,-19.09948 -4.33974,0.76352 -8.2697,-0.51651 -11.31366,-3.13273 -0.40389,0.78038 -0.67323,1.64497 -0.67323,2.59376 0.85738,6.25983 -3.19776,19.63845 5.99378,19.63845 z m -19.03611,-2.59375 c 9.14272,0 5.13653,-13.22143 5.99605,-19.46441 -4.33371,1.26318 -8.38818,0.42106 -11.68879,-1.88638 -0.17559,0.54459 -0.2985,1.106 -0.2985,1.71233 0.85324,6.22053 -3.17997,19.63846 5.99137,19.63846 z m -70.81345,-19.63846 c -3.02604,2.60499 -6.956,3.90187 -11.31593,3.13273 0.88814,6.30474 -3.05252,19.09948 5.99592,19.09948 9.10955,0 5.07915,-12.94072 5.99591,-19.63845 0,-0.94879 -0.26987,-1.81338 -0.6759,-2.59376 z m 19.40883,-1.71233 c -3.29605,2.30744 -7.33836,3.15518 -11.68932,1.88638 0.8971,6.4844 -3.07887,19.46441 5.99378,19.46441 9.11009,0 5.07902,-12.93511 5.99591,-19.63846 0,-0.60633 -0.12437,-1.16774 -0.30023,-1.71233 z m 19.1427,-1.81899 c -3.91205,2.13339 -8.06588,2.19515 -11.74764,0.67932 -0.0134,0.0897 -0.0508,0.16842 -0.0508,0.25823 0.84654,6.18124 -3.19736,19.64407 5.99591,19.64407 9.09886,0 5.0702,-12.91826 5.99084,-19.64407 0,-0.33125 -0.13374,-0.62317 -0.18857,-0.93757 z m 19.17639,0.67932 c -3.69138,1.52144 -7.84241,1.44846 -11.75271,-0.67932 -0.0548,0.31441 -0.1887,0.60633 -0.1887,0.93757 0.85791,6.26543 -3.19723,19.64405 5.99605,19.64405 9.10554,0 5.07902,-12.93508 5.99364,-19.64405 0,-0.0899 -0.0441,-0.16843 -0.0481,-0.25823 z m 47.17669,0.0843 c 9.85113,-2.32428 13.68226,-6.84371 15.66917,-15.94993 -1.34016,-0.2358 -2.56117,-0.8309 -3.68402,-1.71233 -0.34865,1.84707 1.51068,8.32023 -3.52234,8.32023 h -6.14931 c -0.10298,0.88144 0.6097,4.96295 -2.3135,9.34203 z m -18.16308,-7.61847 c 0,3.69975 3.01535,6.71457 6.71515,6.71457 9.93712,0 5.88866,-13.72108 6.71729,-18.91982 0,-8.89288 -13.43244,-8.87604 -13.43244,0 0,1.02178 0,12.92948 0,12.20525 z m -20.47831,-2.59376 c 0,3.70537 3.01534,6.71458 6.71742,6.71458 9.93645,0 5.88813,-13.71548 6.71729,-18.91983 0,-8.88726 -13.43471,-8.87604 -13.43471,0 0,1.02179 0,12.92949 0,12.20525 z m -98.62344,-2.64993 v -4.80014 c -1.12057,0.88143 -2.34452,1.47653 -3.68455,1.71233 1.98517,9.08938 5.8028,13.62565 15.67144,15.94993 -2.92561,-4.37908 -2.21039,-8.46621 -2.31591,-9.34203 -2.59822,-0.42106 -9.67098,1.60005 -9.67098,-3.52009 z M 611.65839,71.829456 c -8.57462,46.485514 -21.4804,73.091174 -22.02217,74.202784 -0.44748,0.90388 -1.25645,1.5832 -2.23285,1.84707 0,0 -1.56806,0.45474 -3.69299,1.52145 2.32032,12.3063 3.59028,37.83964 -18.77211,58.66268 -3.33604,3.09903 -7.94351,4.09275 -12.3013,2.65551 -3.2102,-1.06107 -5.78715,-3.35728 -7.25638,-6.28227 -9.82263,49.15787 6.59666,78.71097 -25.56643,99.17471 -10.11004,6.42824 -19.61933,13.74915 -28.25961,21.75498 -25.93313,24.02314 -42.88283,2.87447 -114.159,11.8628 -28.57563,3.62677 -33.97709,-13.86144 -65.02576,-33.61778 -32.14356,-20.44689 -15.67372,-49.62385 -25.56657,-99.16911 -1.46975,2.91939 -4.04604,5.2156 -7.25905,6.27667 -4.3662,1.43724 -8.96759,0.44914 -12.30297,-2.65551 -22.36693,-20.8118 -21.09478,-46.35077 -18.77274,-58.65708 -3.71492,-1.88075 -4.94498,-1.39231 -5.92298,-3.37412 -0.54402,-1.11161 -13.41735,-27.71727 -22.0183,-74.197164 -2.57468,-13.96812 -2.39502,-28.1215 0.53727,-42.055918 6.30026,-29.87873541 18.60992,-67.724 31.35192,-96.418156 3.68401,-8.280906 8.84404,-15.697281 15.34021,-22.052533 29.5183,-28.924299 86.83137,-58.112489 148.33319,-58.112489 61.49727,0 118.81475,29.18819 148.33308,58.112489 6.5001,6.355252 11.66231,13.777227 15.34018,22.052533 12.74811,28.70539 25.05329,66.55064059 31.35413,96.412539 2.92948,13.928815 3.12046,28.082195 0.54123,42.055915 z m -346.86272,10.38625 c -2.22155,-9.9652 -3.20178,-19.34089 -1.50182,-28.22816 4.01077,-21.19918 26.60336,-50.0505184 -12.17831,-83.971475 6.58994,16.067824 15.46543,31.1419236 9.64296,53.514489 -3.65598,14.035476 -14.11017,36.716816 4.03717,58.685146 z M 559.90057,2.0450386 c -8.05518,29.9685674 16.81395,38.2831874 7.48266,80.1706674 17.39102,-21.04761 8.53302,-41.41589 4.04164,-58.685146 -5.61812,-21.5697354 2.25692,-35.521001 9.64062,-53.514489 -7.5617,6.613523 -18.24613,21.1598866 -21.16492,32.0289676 z M 349.99774,287.21794 c 39.01639,-12.82843 96.45009,-11.72805 132.18339,0 -35.30147,-19.81248 -96.7304,-19.86862 -132.18339,0 z m 92.4915,25.66247 c 8.54212,2.36358 16.97631,5.74894 23.99397,11.34068 -33.22643,-4.63732 -66.86329,-4.78891 -100.78768,0 7.0222,-5.58051 15.45653,-8.95464 23.99624,-11.32944 8.59253,-2.35235 17.50723,-3.34045 26.40014,-3.46958 8.89237,0.11234 17.80707,1.10038 26.39733,3.45834"
         style="fill:#3c2334;fill-opacity:1;fill-rule:nonzero;stroke:none;stroke-width:0.561418" />
    </g>
  </g>
</svg>
