<?xml version="1.0" encoding="UTF-8" standalone="no"?>
<!-- Created with Inkscape (http://www.inkscape.org/) -->

<svg
   version="1.1"
   id="svg1"
   width="600"
   height="525.33331"
   viewBox="0 0 600 525.33331"
   xmlns="http://www.w3.org/2000/svg"
   xmlns:svg="http://www.w3.org/2000/svg">
  <defs
     id="defs1" />
  <g
     id="g1">
    <g
       id="group-R5"
       transform="translate(-113.92276,162.0453)">
      <path
         id="path3611"
         d="m 548.89441,91.17577 c 0,2.40342 -1.94695,4.353674 -4.35102,4.353674 -2.4041,0 -4.35105,-1.950254 -4.35105,-4.353674 0,-2.403752 1.94695,-4.35136 4.35105,-4.35136 2.40407,0 4.35102,1.947608 4.35102,4.35136 z m -9.87616,-4.35136 c 0,2.403752 -1.94695,4.35136 -4.35103,4.35136 -2.40409,0 -4.35104,-1.947608 -4.35104,-4.35136 0,-2.403433 1.94695,-4.351041 4.35104,-4.351041 2.40408,0 4.35103,1.947608 4.35103,4.351041 z m 33.20996,-7.593444 c 0,3.295021 -2.67377,5.972416 -5.97242,5.972416 -3.29862,0 -5.97567,-2.677395 -5.97567,-5.972416 0,-3.299287 2.67705,-5.975033 5.97567,-5.975033 3.29865,0 5.97242,2.675746 5.97242,5.975033 z m 42.87232,136.481094 c 3.34467,-11.37978 5.92306,-22.93025 7.24185,-34.62213 4.52534,-39.60626 -4.69965,-84.639326 -43.32618,-77.44646 47.17732,-14.799435 58.1026,59.97753 36.08433,112.06859 z m -5.59419,0 c 12.00728,-45.44151 11.20811,-109.13568 -30.49014,-109.31556 43.78004,-5.56788 47.77917,66.23538 30.49014,109.31556 z m -12.96431,-1.73449 c -1.01951,-0.18746 -2.03246,-0.38413 -3.03881,-0.591 -0.71038,-0.14898 -1.18397,-0.85146 -1.05242,-1.5763 7.61349,-42.06658 14.80603,-81.83366 -15.90447,-93.35452 l 0.16107,-2.29194 c 35.58442,11.90531 27.40525,60.74344 19.83453,97.81376 z M 575.86886,75.172634 573.79036,101.57779 465.52751,85.515477 c -0.0363,-0.0069 -0.0691,-0.01731 -0.10538,-0.0198 l -4.96602,-0.737334 v -7.481866 c 0.96361,0.02963 80.16035,0.04362 80.16035,0.04362 12.20461,0 23.1858,-6.939954 28.46426,-17.822161 l 7.83713,2.430421 z m -44.21417,65.943346 c -3.8314,-0.91197 -6.64658,-1.63516 -10.62268,-2.6708 -8.88626,-2.31235 -15.01323,-10.5007 -14.56597,-19.67339 0.30586,-6.14967 2.68364,-12.3457 9.36643,-15.14114 l 25.21165,3.97872 c 4.53522,12.13621 1.39444,20.31833 -6.18615,26.85344 -0.95705,0.82219 0.18079,2.32779 1.22341,1.60458 11.10286,-7.67203 11.31664,-19.27545 12.81303,-24.52694 5.74219,11.29362 1.37798,34.018 -17.23972,29.57553 z M 449.39284,72.357781 c -3.48939,-0.490678 -7.04454,-1.210274 -10.57997,-2.124875 -1.35824,-1.519739 -1.89761,-2.852004 -1.51611,-3.943887 0.79258,-2.29817 5.39356,-4.446419 11.17852,-5.218273 5.23241,-0.697551 9.567,-2.917471 12.53347,-6.223003 0.33218,5.308388 1.06883,13.559574 3.10129,18.503249 h -0.75971 c -1.59502,0 -3.19337,-0.03628 -4.78184,-0.115622 -3.04541,-0.147746 -6.13027,-0.440677 -9.17565,-0.877436 z m 7.09714,11.812594 -66.66326,-9.889329 c 0,0 -7.83384,-15.835062 -7.97853,-16.098167 -4.40696,-8.405759 -11.71788,-14.917844 -20.5844,-18.337502 -4.49903,-1.737134 -9.23154,-2.618184 -14.07589,-2.618184 H 150.8947 c -0.59198,0 -1.47996,-0.782405 -2.27257,-2.381722 h 282.5378 c -0.27956,0.693591 -0.44399,1.456597 -0.44399,2.25577 0,3.29894 2.67376,5.969757 5.97239,5.969757 3.29862,0 5.97569,-2.670817 5.97569,-5.969757 0,-0.799173 -0.16451,-1.562179 -0.45056,-2.25577 h 8.88625 c 0.23013,-0.483104 0.44726,-0.966236 0.64458,-1.459546 h -10.41221 c -1.09517,-1.365498 -2.75929,-2.255756 -4.64375,-2.255756 -1.88774,0 -3.54859,0.890258 -4.64374,2.255756 H 148.01043 c -0.0624,-0.191406 -0.13486,-0.358468 -0.19412,-0.56271 -0.21385,-0.716951 -0.37491,-1.499038 -0.50649,-2.302144 h 305.46706 c 0.30585,-0.950451 0.56238,-1.926892 0.77614,-2.917472 H 147.0237 c -0.003,-0.09097 -0.0125,-0.164515 -0.0125,-0.256846 l -0.01,-0.561381 0.0125,-0.743924 h 306.84175 c 0.29928,-1.825589 0.46044,-3.689672 0.46044,-5.580701 v -4.117195 h 3.56501 v 4.117195 c 0,14.651775 -10.0998,26.95142 -23.17921,30.64472 -5.08444,1.440133 -8.36661,5.788875 -8.36661,11.069971 0,5.245246 3.25257,9.573592 8.28438,11.034121 0.82877,0.242709 1.65098,0.472595 2.48302,0.683414 0.0395,0.01246 0.0789,0.02216 0.11839,0.03572 3.88073,1.026761 7.78779,1.815397 11.6159,2.35508 2.53236,0.362097 5.0976,0.631793 7.65297,0.802802 z M 364.81566,60.185417 c -4.76211,0.132515 -9.52097,0.132515 -14.2798,-0.0097 -0.16107,4.483597 -0.45386,8.961905 -0.99978,13.445461 -0.59198,-4.838106 -0.90442,-9.676184 -1.05242,-14.516934 -0.0173,-0.558764 0.42426,-1.03266 0.98992,-1.049429 l 0.0625,-0.0028 c 5.09428,-0.174637 10.1853,-0.168476 15.27959,-0.02686 5.09101,0.13887 10.18532,0.457446 15.27633,1.079019 -5.09101,0.624537 -10.18532,0.944206 -15.27633,1.081692 z m -7.58059,8.873397 c -1.62466,0 -2.94675,-1.322088 -2.94675,-2.94968 0,-1.628921 1.32209,-2.943117 2.94675,-2.943117 1.62794,0 2.94674,1.314196 2.94674,2.943117 0,1.627592 -1.3188,2.94968 -2.94674,2.94968 z M 195.65477,54.417229 c -3.99255,0 -7.67268,-2.044937 -9.76763,-5.371212 h 167.30275 l -5.36726,5.371212 z M 464.69546,40.890887 h 45.48361 c 0,-0.09637 -0.01,-0.187459 -0.01,-0.286464 -0.007,-0.440678 -0.11839,-3.456808 -0.18426,-4.505268 h -45.09555 c 0.0493,-0.872188 0.10537,-1.726611 0.16773,-2.569195 h 44.7601 c -0.27954,-4.452649 -1.25302,-13.164272 -3.19996,-17.186408 h 4.14384 c 3.78866,4.594069 3.87415,29.135159 3.88401,31.607979 0.0198,5.032129 -0.95044,21.992293 -3.87414,25.399461 h -4.18003 c 1.41415,-2.881623 2.55866,-8.751405 3.16707,-16.270506 h -44.62852 c -0.007,-0.05525 -0.0125,-0.101636 -0.0173,-0.160568 -0.23013,-2.808276 -0.37163,-5.751725 -0.43083,-8.928674 h 45.51322 c 0.0173,-0.796529 0.0222,-1.589112 0.0296,-2.394558 h -45.57569 c -0.003,-0.953082 -0.0222,-1.963047 0.0461,-4.705868 z m 77.69048,13.832206 c -0.2104,4.370441 -0.49331,7.035013 -0.93072,10.013966 h -4.2162 c 0.42096,-2.978953 0.72024,-6.373312 0.89127,-10.013966 z M 533.822,35.917927 c 0.007,0.05926 0.0125,0.11576 0.0173,0.17094 0.0919,1.026415 0.95046,1.812752 1.97982,1.812752 h 6.3868 c 0.35519,4.760813 0.39793,8.194954 0.30586,12.85546 h -6.28814 c -1.06884,0 -1.94694,0.851792 -1.98312,1.92062 l -0.003,0.06536 h -15.78607 c 0.14478,-3.01253 0.22692,-6.396325 0.16772,-10.313238 h 20.97574 c -0.0125,-0.313425 -0.0395,-1.509547 -0.15119,-3.075327 h -20.89026 c -0.003,-0.06314 -0.0856,-2.233089 -0.1512,-3.436772 z m 7.24185,-7.527976 c 0.0559,0.364727 0.4736,2.430407 0.80246,5.544533 h -4.24579 c -0.21385,-2.025871 -0.467,-3.881078 -0.7597,-5.544533 z m 17.83168,29.128609 c -2.25937,-6.284511 -7.06096,-11.409068 -12.43481,-14.19433 -0.20399,-6.027637 -0.53607,-9.484778 -1.20696,-14.010802 l -0.0363,-0.06813 c 0,-0.615315 -0.74984,-4.034972 -1.04255,-5.038374 15.69071,2.512949 23.13977,20.340358 14.72051,33.311578 z m 14.20419,-34.456411 c 0.98335,-1.782842 1.67399,-3.798521 2.28239,-5.87341 0.73341,-2.032447 1.36485,-4.197119 2.70008,-6.098353 1.70688,-2.4267656 3.46966,-2.8312746 5.95266,-2.5642516 -2.25939,0.101636 -3.98268,1.413201 -4.92656,3.2259666 -0.94058,1.812753 -1.60493,3.844896 -2.21992,5.923717 -0.73669,2.032143 -1.39115,4.206008 -2.78557,6.073691 -0.84195,1.161589 -1.74634,1.673993 -2.68694,2.196908 -1.54243,0.328863 -1.22342,0.453499 -3.34795,0.229886 2.23637,-0.134869 4.0386,-1.318142 5.03181,-3.114154 z m 7.67269,40.445568 c 3.97612,2.591212 5.45275,7.711808 5.75862,10.994326 -0.30915,-0.05303 -5.66654,-0.819889 -6.55123,-0.925112 z M 677.6298,211.26434 C 647.56064,115.79512 635.60925,84.408154 590.54991,75.265062 c -0.12822,-5.16042 -2.67377,-14.020994 -10.93844,-16.65466 l -5.4758,-1.700939 c 1.49968,-3.541662 2.30544,-7.260925 2.30544,-11.105821 0,-3.672903 -0.73998,-7.178716 -2.03904,-10.458603 12.84263,-9.139145 3.12761,-19.018269 10.8595,-25.4905576 1.07543,-0.90441 0.46372,-2.643843 -0.94059,-2.71323 -12.66174,-0.611382 -7.36026,16.1701976 -17.10816,17.4794496 -6.45256,-6.327256 -15.71371,-10.330007 -26.02398,-10.330007 -8.16602,0 -12.8525,2.170903 -12.8525,5.942784 H 516.4047 c -0.0198,-0.09887 -0.0395,-0.200281 -0.0659,-0.299259 l -0.0426,-0.181297 c -0.86166,-3.432813 -2.23307,-7.372739 -5.2127,-7.372739 h -42.84601 c -1.63123,0 -2.7264,1.229341 -3.43346,2.459984 l -3.97284,-2.209383 -0.0856,-0.02215 c -0.26639,-0.134869 -0.55907,-0.227172 -0.88138,-0.227172 H 181.14796 C 179.05303,8.9746264 174.59015,7.5897294 170.85413,9.5501594 l -5.39029,2.8313026 h -14.56922 c -6.59399,0 -8.62645,10.922307 -7.57075,18.440106 0.71368,4.667401 3.03553,10.372433 7.57075,10.372433 h 28.77011 l 3.85442,7.696701 c 0.21705,0.446936 0.46044,0.864601 0.69065,1.212559 2.56853,3.891269 6.76499,6.298968 11.44488,6.298968 h 105.28324 c 15.94392,0 31.25314,6.764998 41.99753,18.558179 0.37491,0.411072 0.9077,0.643603 1.46677,0.643603 h 41.6555 c 0.4933,0.766938 0.67421,2.230445 2.16072,2.447509 l 75.92443,11.267621 6.00528,6.652193 c 0.30585,0.34301 0.71695,0.56667 1.16422,0.63604 l 26.87579,4.241836 c 3.06185,3.81564 3.69985,10.67568 3.37426,17.36764 -0.53278,10.80654 6.69265,20.47618 17.17065,23.196 4.69306,1.22669 9.53085,2.43303 14.05617,3.51241 10.26753,2.44978 20.60083,-3.72585 23.3601,-13.90821 0.0328,-0.11548 0.0625,-0.22076 0.0954,-0.33513 1.50295,-5.53168 5.93292,-9.65941 11.36266,-10.89929 1.05242,0.32263 6.58413,2.04267 6.21907,1.92329 27.11256,9.0352 23.43243,41.26116 14.7238,89.39517 -0.51963,2.83297 1.3451,5.59486 4.15371,6.17038 1.66412,0.34567 3.35124,0.65776 5.05482,0.95308 22.28137,3.88108 50.54174,4.13433 73.03359,2.90728 4.94632,-0.26212 8.33046,-5.11666 6.83735,-9.8663"
         style="fill:#3c2334;fill-opacity:1;fill-rule:nonzero;stroke:none;stroke-width:0.328876" />
    </g>
  </g>
</svg>
