<svg xmlns="http://www.w3.org/2000/svg" xmlns:xlink="http://www.w3.org/1999/xlink" width="2000" zoomAndPan="magnify" viewBox="0 0 1500 1499.999933" height="2000" preserveAspectRatio="xMidYMid meet" version="1.0"><style>path { fill: #000000; } @media (prefers-color-scheme: dark) { path { fill: #ffffff; } }</style><path d="M 763.902344 1439.335938 C 762.144531 1439.085938 750.929688 1438.230469 738.980469 1437.441406 C 682.929688 1433.742188 615.351562 1419.867188 561.324219 1400.96875 C 531.742188 1390.621094 492.796875 1374.394531 476.953125 1365.820312 C 471.339844 1362.78125 463.871094 1358.875 460.355469 1357.136719 C 453.957031 1353.976562 439.902344 1345.964844 420.738281 1334.554688 C 399.597656 1321.96875 354.625 1289.941406 342.769531 1279.027344 C 339.957031 1276.4375 335.644531 1272.855469 333.183594 1271.0625 C 312.46875 1255.96875 271.800781 1214.289062 237.996094 1173.511719 C 200.757812 1128.589844 162.550781 1064.921875 139.824219 1009.914062 C 125.550781 975.367188 121.621094 964.140625 111.632812 929.394531 C 88.804688 849.976562 81.171875 751.632812 91.644531 671.859375 C 100.605469 603.59375 112.777344 554.402344 132.289062 507.625 C 134.34375 502.703125 138.679688 492.246094 141.925781 484.386719 C 161.941406 435.953125 196.953125 378.011719 238.714844 324.21875 C 257.855469 299.5625 289.960938 266.121094 321.683594 237.804688 C 347.578125 214.683594 393.984375 180.371094 425.847656 160.785156 C 444.277344 149.453125 484.894531 128.976562 508.6875 119.019531 C 516.550781 115.730469 524.707031 112.269531 526.816406 111.324219 C 532.554688 108.757812 567.039062 96.441406 583.050781 91.238281 C 625.710938 77.375 676.554688 67.261719 726.839844 62.628906 C 756.117188 59.933594 834.023438 59.523438 859.121094 61.9375 C 912.5625 67.070312 975.023438 80.207031 1020.160156 95.800781 C 1034.191406 100.648438 1076.628906 116.816406 1079.4375 118.382812 C 1081.75 119.675781 1080.738281 120.199219 1069.367188 123.558594 C 1057.660156 127.019531 1008.574219 146.160156 984.96875 156.472656 L 967.667969 164.027344 L 961.050781 161.78125 C 949.710938 157.925781 909.210938 149.285156 890.128906 146.648438 C 847.632812 140.777344 831.671875 139.582031 795.855469 139.585938 C 670.0625 139.609375 547.980469 176.402344 443.453125 245.808594 C 378.285156 289.074219 312.191406 354.566406 272.128906 415.570312 C 252.378906 445.644531 246.972656 454.644531 235.601562 476.414062 C 202.578125 539.628906 187.03125 587.667969 172.75 670.582031 C 169.96875 686.722656 167.109375 726.8125 167.097656 749.824219 C 167.074219 800.160156 177.859375 870.738281 192.984375 919.171875 C 205.371094 958.851562 224.773438 1005.027344 241.378906 1034.339844 C 243.019531 1037.230469 247.105469 1044.507812 250.460938 1050.507812 C 258.925781 1065.636719 259.773438 1066.125 261.605469 1056.953125 C 268.398438 1022.984375 292.730469 941.707031 310.890625 892.328125 C 319.347656 869.339844 327.925781 847.308594 333.53125 834.175781 C 336.683594 826.796875 342.273438 813.566406 345.957031 804.78125 C 356.171875 780.398438 368.699219 751.742188 374.726562 738.957031 C 377.707031 732.632812 382.289062 722.855469 384.902344 717.230469 C 396.328125 692.675781 413.195312 659.867188 434.519531 620.734375 C 465.984375 562.992188 501.132812 507.015625 529.613281 469.28125 C 537.570312 458.738281 545.375 448.390625 546.953125 446.292969 C 571.558594 413.566406 613.085938 371.042969 644.179688 346.734375 C 696.066406 306.171875 758.6875 285.386719 812.722656 290.789062 C 821.371094 291.65625 830.890625 292.917969 833.878906 293.59375 C 847.671875 296.710938 852.058594 297.867188 860.476562 300.589844 C 894.992188 311.75 925.984375 330.109375 960.777344 360.003906 C 1003.140625 396.402344 1044.269531 445.078125 1086.3125 508.578125 C 1105.585938 537.683594 1117.183594 555.90625 1122.523438 565.464844 C 1123.992188 568.097656 1128.550781 576 1132.652344 583.03125 C 1136.757812 590.0625 1143.074219 601.277344 1146.695312 607.953125 C 1150.3125 614.632812 1155.914062 624.695312 1159.136719 630.320312 C 1162.363281 635.945312 1166.835938 644.296875 1169.078125 648.878906 L 1173.152344 657.214844 L 1168.875 664.214844 C 1160.96875 677.164062 1123.347656 729.140625 1121.769531 729.296875 C 1121.183594 729.355469 1117.394531 722.5625 1101.53125 693.035156 C 1078.382812 649.941406 1040.785156 586.753906 1022.023438 559.414062 C 980.128906 498.347656 961.011719 473.867188 932.804688 445.15625 C 902.347656 414.15625 884.757812 400.242188 860.34375 387.832031 C 839.253906 377.113281 831.863281 374.5625 814.449219 371.992188 C 790.972656 368.523438 767.128906 371.097656 746.253906 379.351562 C 715.179688 391.632812 690.996094 408.886719 658.378906 442.042969 C 632.320312 468.535156 617.511719 486.585938 582.433594 534.613281 C 561.550781 563.207031 524.835938 622.023438 508.808594 652.5625 C 506.371094 657.199219 502.621094 664.160156 500.464844 668.023438 C 491.367188 684.363281 451.863281 763.195312 445.707031 777.300781 C 442.023438 785.738281 436.734375 797.816406 433.945312 804.140625 C 431.160156 810.46875 427.523438 818.808594 425.859375 822.675781 C 424.199219 826.539062 421 833.730469 418.75 838.648438 C 408.964844 860.066406 393.082031 900.570312 380.417969 936.425781 C 376.816406 946.617188 372.519531 958.457031 370.871094 962.734375 C 369.222656 967.011719 366.984375 973.914062 365.898438 978.074219 C 364.8125 982.230469 362.140625 991.09375 359.957031 997.773438 C 346.027344 1040.429688 336.753906 1098.484375 339.523438 1125.722656 C 340.941406 1139.632812 345.722656 1159.761719 349.292969 1166.832031 C 356.476562 1181.058594 372.4375 1196.875 387.117188 1204.3125 C 435.339844 1228.75 520.40625 1219.398438 623.953125 1178.285156 C 715.527344 1141.921875 822.421875 1079.363281 914.078125 1008.492188 C 936.015625 991.53125 970.917969 963.144531 981.058594 954.019531 C 986.394531 949.214844 991.914062 944.292969 993.320312 943.082031 C 1030.453125 911.078125 1096.445312 844.46875 1132.972656 802.125 C 1174.152344 754.390625 1222.65625 684.992188 1251.710938 632.238281 C 1282.796875 575.792969 1306.699219 517.203125 1320.015625 464.808594 C 1334.03125 409.65625 1336.195312 349.105469 1325.4375 313.355469 C 1319.183594 292.582031 1308.175781 274.890625 1293.8125 262.527344 C 1279.101562 249.867188 1255.183594 240.15625 1232.609375 237.679688 C 1214.617188 235.707031 1178.632812 236.765625 1162.027344 239.753906 C 1129.894531 245.539062 1094.042969 256.074219 1058.542969 270.167969 C 1037.792969 278.40625 999.195312 296.121094 992.6875 300.390625 C 990.222656 302.007812 986.238281 304.011719 983.828125 304.839844 C 979.644531 306.28125 979.132812 306.101562 972.328125 300.789062 C 958.898438 290.308594 934.65625 275.746094 906.539062 261.269531 C 904.421875 260.179688 905.316406 259.246094 913.570312 253.941406 C 934.914062 240.222656 986.804688 213.25 1012.398438 202.566406 C 1038.804688 191.546875 1050.246094 187.179688 1070.007812 180.582031 C 1096.398438 171.769531 1096.867188 171.625 1109.628906 168.425781 C 1192.4375 147.660156 1259.714844 150.453125 1311.566406 176.808594 C 1329.296875 185.824219 1340.964844 194.417969 1356.34375 209.789062 C 1373.144531 226.582031 1382.652344 240.371094 1392.804688 262.648438 C 1408.855469 297.878906 1414.023438 329.246094 1412.800781 384.070312 C 1411.875 425.582031 1407.246094 457.761719 1397.605469 489.730469 C 1395.484375 496.761719 1391.855469 509.125 1389.539062 517.210938 C 1382.320312 542.40625 1369.769531 574.808594 1353.390625 610.511719 C 1341.578125 636.265625 1327.648438 663.214844 1316.726562 681.445312 C 1287.71875 729.871094 1284.625 734.808594 1273.5 750.460938 C 1248.007812 786.335938 1242.46875 793.953125 1241.589844 794.34375 C 1239.105469 795.445312 1241.574219 803.125 1253.25 830.644531 C 1296.722656 933.085938 1339.242188 1053.808594 1361.214844 1137.164062 L 1365.105469 1151.9375 L 1352.417969 1167.199219 C 1330.882812 1193.097656 1321.640625 1203.316406 1297.007812 1228.46875 C 1241.59375 1285.046875 1186.949219 1325.527344 1117.929688 1361.136719 C 1104.929688 1367.84375 1088.824219 1375.714844 1082.148438 1378.628906 C 1075.46875 1381.542969 1066.175781 1385.636719 1061.496094 1387.722656 C 1039.484375 1397.539062 996.488281 1411.296875 960.089844 1420.171875 C 921.183594 1429.65625 899.035156 1433.371094 860.398438 1436.894531 C 841.527344 1438.617188 771.25 1440.394531 763.902344 1439.335938 Z M 861.675781 1356.371094 C 905.898438 1351.523438 938.421875 1344.507812 989.484375 1328.792969 C 1019.105469 1319.679688 1072.996094 1295.847656 1101.675781 1279.1875 C 1131.253906 1262 1164.859375 1238.949219 1184.929688 1222.078125 C 1197.257812 1211.71875 1210.277344 1200.671875 1212.035156 1199.089844 C 1215.75 1195.742188 1251.640625 1160.167969 1263.300781 1148.277344 L 1276.386719 1134.929688 L 1273.984375 1127.382812 C 1272.664062 1123.226562 1269.742188 1113.792969 1267.5 1106.410156 C 1251.652344 1054.316406 1227.40625 983.191406 1215.429688 953.679688 C 1212.292969 945.945312 1206.960938 932.140625 1203.578125 923.003906 C 1198.042969 908.046875 1182.457031 871.5625 1180.917969 869.964844 C 1180.289062 869.304688 1176.046875 873.867188 1164.890625 887.21875 C 1157.433594 896.140625 1116.578125 937.863281 1093.550781 960.070312 C 1068.972656 983.773438 1030.542969 1018.144531 1012.492188 1032.574219 C 1007.570312 1036.507812 996.539062 1045.382812 987.980469 1052.296875 C 979.417969 1059.214844 968.597656 1067.75 963.9375 1071.261719 C 959.273438 1074.777344 952.1875 1080.144531 948.191406 1083.191406 C 921.09375 1103.824219 886.394531 1127.691406 857.84375 1145.332031 C 850.109375 1150.113281 840.621094 1156.164062 836.753906 1158.78125 C 820.488281 1169.796875 760.515625 1203.402344 730.03125 1218.585938 C 652.46875 1257.21875 574.035156 1283.867188 516.242188 1291.214844 C 512.535156 1291.6875 509.261719 1292.464844 508.960938 1292.949219 C 508.402344 1293.855469 516.242188 1297.359375 544.710938 1308.917969 C 573.234375 1320.5 594.9375 1328.761719 601.910156 1330.6875 C 605.597656 1331.707031 612.925781 1333.746094 618.199219 1335.214844 C 659.859375 1346.828125 692.265625 1353.027344 731.3125 1356.84375 C 739.042969 1357.601562 747.382812 1358.441406 749.84375 1358.714844 C 761.964844 1360.046875 843.738281 1358.335938 861.675781 1356.371094 Z M 774.765625 908.226562 C 761.699219 906.457031 740.75 901.007812 732.285156 897.175781 C 685.363281 875.921875 651.578125 836.515625 639.097656 788.484375 C 634.167969 769.503906 633.425781 740.277344 637.367188 720.355469 C 644.246094 685.605469 658.46875 659.480469 684.027344 634.640625 C 697.550781 621.496094 706.855469 614.933594 724.664062 605.96875 C 765.628906 585.347656 817.847656 584.792969 859.757812 604.535156 C 886.597656 617.179688 909.375 636.699219 924.898438 660.355469 C 937.183594 679.085938 945 698.601562 949.898438 722.773438 C 952.902344 737.589844 952.015625 769.011719 948.160156 784.382812 C 939.136719 820.367188 925.234375 844.203125 899.175781 868.363281 C 878.457031 887.578125 852.1875 900.761719 823.332031 906.433594 C 810.585938 908.9375 786.589844 909.824219 774.765625 908.226562 Z M 774.765625 908.226562 " fill-opacity="1" fill-rule="nonzero"/></svg>