<?xml version="1.0" encoding="UTF-8" standalone="no"?>
<!-- Created with Inkscape (http://www.inkscape.org/) -->

<svg
   version="1.1"
   id="svg1"
   width="600"
   height="525.33331"
   viewBox="0 0 600 525.33331"
   xmlns="http://www.w3.org/2000/svg"
   xmlns:svg="http://www.w3.org/2000/svg">
  <defs
     id="defs1" />
  <g
     id="g1">
    <g
       id="group-R5"
       transform="translate(-113.92276,162.0453)">
      <path
         id="path3595"
         d="m 378.11755,18.502602 c -0.50793,13.245578 -0.8834,26.540857 -1.06009,39.797458 h 7.54761 c 0.19338,-13.29528 0.56869,-26.645751 1.08771,-39.935482 11.84316,-0.231895 23.68078,-0.46379 35.52949,-0.43066 12.50571,-0.209951 25.01694,-0.127104 37.52817,-0.04424 0.33129,13.460914 0.62943,26.960463 0.80613,40.393752 0,0 9.77267,0 12.59959,0.01184 -0.1822,-13.405723 -0.46933,-26.872142 -0.79507,-40.31095 l 36.99813,0.392159 c -12.31797,-1.363789 -24.67461,-2.191978 -37.04782,-2.826922 -0.0373,-1.534928 -0.0497,-3.069811 -0.094,-4.593701 -0.1271,0 -0.25964,-0.01657 -0.39214,-0.01657 -2.89312,-0.08286 -12.21859,-0.270411 -12.21859,-0.270411 0.0373,1.441057 0.0497,2.887663 0.0882,4.32872 -12.49465,-0.430659 -25.00038,-0.585286 -37.50058,-0.618401 -11.80454,0.204136 -23.60901,0.519026 -35.39699,1.054581 0.0608,-1.52389 0.094,-3.058818 0.16565,-4.588197 -2.39071,0.06081 -7.58075,0.198765 -7.58075,0.198765 -0.0663,1.573562 -0.0994,3.147139 -0.16564,4.715197 -0.21532,0.01184 -0.43066,0.01657 -0.64598,0.029 -14.52652,0.839243 -29.03647,1.965588 -43.48015,3.721357 0,0 43.87768,-1.004893 44.02676,-1.004893 z m 43.09367,159.333368 c -27.71135,0.0166 -67.52538,-1.88829 -87.12043,-2.77722 29.47818,4.33973 57.36067,5.74766 87.08178,6.33845 29.69347,0 57.7361,-0.9055 87.18665,-4.79802 -22.698,0.67361 -58.62503,1.7889 -87.148,1.23679 z m -0.0663,-286.74263 c 21.32321,-0.59074 50.34865,0.19877 87.21426,3.87044 -29.23523,-5.94642 -57.91278,-7.68013 -87.28052,-7.42612 -29.41192,0.8337 -57.97903,3.5778 -86.98791,10.29167 27.99294,-3.57229 58.93978,-6.5096 87.05417,-6.73599 z m 173.4568,232.12602 c -117.24455,8.00589 -182.74362,12.13581 -336.34586,-0.0118 0.55767,12.8922 1.84965,29.22968 3.64405,44.25866 9.62361,2.19193 13.72039,7.81813 83.55365,15.93443 l 0.63497,0.0608 c 65.93521,6.10106 181.87677,5.53788 244.86363,-16.00069 1.72816,-14.47127 2.94837,-29.32905 3.64956,-44.24208 z m -14.64244,106.16888 c -42.23786,21.41157 -106.1799,25.60222 -153.53048,25.60222 -16.46999,-0.92207 -99.25619,1.94899 -153.53597,-25.60222 9.41928,38.52203 19.44597,56.68154 20.01465,58.14466 37.93125,20.25211 90.9025,23.27774 133.51581,23.71947 40.76918,0.43066 97.40104,-4.43361 133.52132,-23.71947 7.58626,-15.45959 14.46026,-35.4301 20.01467,-58.14466 z M 346.03333,189.41962 c -0.16025,-0.0166 -15.32708,-1.60119 -19.58399,-2.14779 1.93798,19.79936 4.43912,38.25703 7.37092,54.83195 11.50083,2.0263 14.97924,2.31339 17.57977,2.68885 -2.13674,-16.7295 -3.95322,-35.36936 -5.3667,-55.37301 z m 32.38236,58.03979 c -1.33062,-16.81232 -2.45696,-35.6565 -3.34034,-55.95275 -0.0994,-0.004 -12.03093,-0.70674 -17.55219,-1.12633 1.46312,20.23553 3.3514,39.01341 5.55994,55.74847 3.89802,0.39214 7.66908,0.78951 15.33259,1.33061 z m 9.96044,-55.35644 c 0.89445,20.42324 2.05391,39.3447 3.4066,56.14045 0.0774,0.004 0.14908,0.0118 0.2319,0.0166 0.094,0.004 0.18759,0.0166 0.27619,0.0207 4.24036,0.19877 8.47521,0.3644 12.82594,0.4748 -0.45272,-16.8344 -0.8392,-35.76139 -1.13185,-56.19015 -3.9477,-0.094 -11.79346,-0.30932 -15.60866,-0.46377 z m -93.39263,-9.86656 c 2.23061,18.88836 5.11823,36.63377 8.53039,52.77248 6.39366,1.9159 11.67752,3.34039 20.15272,5.12929 -2.87106,-16.68533 -5.25625,-34.92214 -7.08383,-54.20249 -6.91815,-0.99937 -14.87986,-2.36862 -21.59928,-3.69928 z m 185.86315,9.10462 c -0.0994,0.004 -0.20416,0.0118 -0.30355,0.0166 -0.88339,20.2576 -2.00422,39.07967 -3.31827,55.90305 2.4459,-0.19338 7.64145,-0.65151 7.86784,-0.67361 2.23056,-16.72396 4.14646,-35.56263 5.62616,-55.87544 -3.20234,0.22651 -6.48748,0.43617 -9.87207,0.62943 z m 89.15776,36.15892 c 3.8152,-15.49272 7.04516,-32.41549 9.53529,-50.35416 -1.28097,0.35323 -5.00228,1.33062 -5.00228,1.33062 -1.94903,17.64607 -4.47225,34.53566 -7.52555,50.31552 0.38635,-0.16025 2.44043,-1.04351 2.99254,-1.29198 z m -29.61068,9.99353 c 3.61648,-16.27674 6.68631,-34.34241 9.05493,-53.68351 -1.38585,0.24846 -6.64761,1.11534 -6.64761,1.11534 -1.77234,19.03739 -4.07472,37.09201 -6.84642,53.70005 4.29004,-1.02145 3.31276,-0.83925 4.4391,-1.13188 z m -20.47844,-49.4321 c 0,0 -8.18255,0.87789 -8.35924,0.89996 -1.3803,19.69443 -3.1692,38.2791 -5.32802,55.1908 0.89445,-0.12133 5.76973,-0.86682 6.10101,-0.91651 3.01462,-16.597 5.59308,-35.17615 7.58625,-55.17425 z m -70.13141,4.4833 c -0.29815,20.41771 -0.68463,39.3502 -1.1374,56.18463 2.61709,-0.0663 9.64017,-0.35321 9.64017,-0.35321 1.36379,-16.79022 2.52326,-35.72826 3.43427,-56.16807 -0.5411,0.0166 -8.69052,0.29275 -11.93704,0.33665 z m -30.68734,0.22651 c 0.29816,20.46744 0.68468,39.42756 1.14847,56.26196 0,0 11.28549,0 11.43457,0 0.46379,-16.81784 0.85027,-35.78902 1.15947,-56.25641 -3.29071,0 -11.41251,0.004 -13.74251,-0.004 z M 268.9948,175.94231 c 2.30792,17.22091 5.32254,33.73508 8.97761,49.17811 6.01823,2.90974 9.21506,4.36185 16.93382,7.06176 -3.26864,-16.07251 -5.97405,-33.44245 -8.05558,-51.67927 -6.31634,-1.42448 -13.59339,-3.32383 -17.85585,-4.5606 z M 258.10131,67.404851 c 30.28426,-3.754502 59.96671,-3.605425 83.10643,-4.610303 0,0 161.14435,-0.132579 161.40382,-0.127104 47.40578,1.236743 63.33471,1.198109 92.14478,4.737259 C 594.10484,51.657984 592.82943,35.966486 590.9522,20.683557 534.93321,2.7283173 406.99391,6.4055064 374.86551,6.9962964 c -31.4879,0.574174 -81.5936,3.9311316 -111.62939,13.2731586 -0.45829,0.143676 -0.90551,0.281582 -1.33617,0.414102 -1.87722,15.249814 -3.14714,30.941297 -3.79864,46.721146 z m 15.67493,-109.912307 c 75.02881,-26.281351 227.04092,-24.818187 295.66501,-3.114009 1.12634,0.336656 6.55378,2.05391 8.06661,2.567402 0.52453,0.171021 1.04903,0.3644 1.56805,0.546607 -5.17898,-19.887697 -11.5947,-38.610367 -19.10369,-55.7374 -42.39244,-15.553484 -92.61959,-19.832464 -137.28131,-19.909784 -44.50712,-0.0716 -87.58972,5.84705 -129.81653,19.915284 -12.3677,28.130988 -18.50735,53.799428 -19.09814,55.7319 z M 432.89979,0.27701091 C 432.61821,-18.898445 432.24274,-37.770197 431.75134,-55.96837 H 420.1732 c -0.49137,18.203678 -0.87234,37.069925 -1.14842,56.24538091 z M 345.43153,2.4303104 c 0.11054,-0.00444 0.23727,-0.016572 0.34785,-0.020715 1.31404,-18.6399024 3.08638,-37.0092284 5.35012,-54.7712094 -4.99678,0.530051 -10.8604,1.242292 -16.62461,2.04842 -0.3259,0.04972 -0.61837,0.09943 -0.9386,0.143677 -3.12506,17.524565 -5.55995,35.634417 -7.3654,54.0147687 4.04157,-0.3478424 19.23064,-1.4134463 19.23064,-1.4134463 z m 42.75134,-1.74471629 c 4.96365,-0.1160067 15.72461,-0.2761965 15.72461,-0.2761965 0.28159,-19.14783061 0.65705,-37.96439061 1.1374,-56.14045761 -4.49431,0.104761 -13.44986,0.441684 -13.44986,0.441684 -1.44656,18.109851 -2.57291,36.882213 -3.41215,55.97485171 z M 357.25813,1.7843132 c 5.51576,-0.2815825 17.63501,-0.7288 17.63501,-0.7288 0.81163,-18.9656372 1.9214,-37.6331052 3.33484,-55.6656582 -5.11273,0.309341 -15.21114,1.115336 -15.42646,1.131893 -2.35207,17.905538 -4.18515,36.429447 -5.54339,55.2625652 z m -62.44027,5.6703572 c 4.91947,-0.612867 11.42907,-1.689524 21.63796,-2.694372 1.79991,-18.5680934 4.1741,-36.4349964 7.11141,-53.3908784 -5.83048,0.971763 -12.97502,2.291354 -20.04779,3.903565 -3.68272,16.977958 -6.57034,34.469394 -8.70158,52.1816854 z m 280.69128,3.0974376 c 1.42448,0.298154 2.73303,0.596295 4.03056,0.899998 -2.47908,-17.2540356 -5.82497,-34.298254 -10.14814,-50.873178 -0.56318,-0.176821 -2.42383,-0.739824 -2.79379,-0.850267 3.25758,16.199456 5.9078,33.1277274 7.91753,50.624682 z m -32.6032,-5.0795526 6.71387,0.811632 c -2.24163,-17.9828514 -5.26731,-35.7172494 -9.15427,-52.8939724 -0.41965,-0.08286 -3.39009,-0.651502 -4.4778,-0.844762 2.84899,16.839948 5.16243,34.546721 6.9182,52.9271024 z m -30.7039,-2.7275326 7.98378,0.574233 c -1.86617,-18.5294588 -4.36731,-36.7717858 -7.58625,-54.4067938 -0.30934,-0.03314 -6.20039,-0.756441 -6.20039,-0.756441 2.19748,17.303739 3.96981,35.562623 5.3225,54.5613763 0.14368,0.011837 0.48036,0.029002 0.48036,0.029002 z M 461.90863,0.63590651 C 461.07494,-18.473289 459.93202,-37.273277 458.47991,-55.399656 c -0.116,-0.0044 -7.26048,-0.253839 -9.76162,-0.303527 0.48035,18.170548 0.85577,36.992657 1.13736,56.12391491 0.5466,0.011838 12.82598,0.2265237 12.05298,0.2153374 z m 23.4655,-54.50066451 c -0.20995,-0.01657 -5.47164,-0.408717 -7.97278,-0.56318 1.41348,18.010476 2.50669,36.655838 3.31832,55.5883307 0,0 7.01203,0.2538385 10.25854,0.3975299 -1.36374,-18.8883096 -3.22443,-37.4784796 -5.60408,-55.4226806 z M 286.83407,8.7466511 c 2.10916,-17.8337447 4.8919,-35.0491461 8.34819,-51.4583911 -6.65866,1.711587 -10.52356,2.893138 -16.38166,4.770404 -4.02502,15.989637 -7.29911,32.9179084 -9.75057,50.414848 0.44723,-0.116006 0.96071,-0.220708 1.41343,-0.325884 5.95749,-1.474187 10.71132,-2.3907429 16.37061,-3.4011399 z m 173.15316,115.6875789 3.6551,-0.0663 c 0.24308,-18.29205 0.28159,-37.064412 0.0716,-55.985852 h -13.26211 c 0.0663,18.9877 0.055,37.809752 -0.0207,56.162512 3.50602,-0.029 9.55735,-0.11053 9.55735,-0.11053 z m -26.50219,0.22071 c 0.0774,-18.38037 0.0882,-37.252126 0.0207,-56.261932 h -15.07862 c -0.0774,18.457694 -0.0663,38.461292 0.0166,56.322692 1.28648,0.0994 15.71361,-0.0608 15.04,-0.0608 z m -143.18911,-4.96915 c 0.0882,0.004 19.65029,1.36929 22.37778,1.54043 -0.0774,-2.64471 -0.15446,-5.29492 -0.20995,-7.95066 -0.28697,-14.786016 -0.22071,-29.395338 0.13258,-43.805909 0,0 -22.32808,1.076657 -22.4054,1.082206 -0.50242,16.580428 -0.44171,33.022803 0.10476,49.133933 z m 47.71498,-30.681788 c 0,-6.741496 0.0608,-13.494045 0.18221,-20.213464 l -15.91787,0.375587 c -0.43617,17.778537 -0.38098,35.435605 0.116,52.673085 0.0716,0.004 16.12769,0.87238 16.12769,0.87238 -0.094,-2.98705 -0.50797,-25.425526 -0.50797,-33.70747 z m 16.38718,-20.450863 h -0.0663 c -0.33128,18.546016 -0.28158,36.931911 0.10477,54.865031 0,0 12.41185,0.44722 18.76685,0.60735 -0.24845,-18.18161 -0.28158,-36.821471 -0.0774,-55.615954 -6.28321,0.03729 -12.50573,0.07162 -18.72823,0.143676 z m 48.9131,-0.16565 h -16.92827 c -0.20415,18.910431 -0.17102,37.666231 0.0716,55.941691 l 16.87859,0.22651 c -0.0774,-18.36382 -0.0882,-37.180368 -0.0207,-56.168068 z m 175.71504,3.362477 c -0.0716,-0.0044 -0.13791,-0.01184 -0.20996,-0.01657 0.39753,13.753521 0.45274,27.683735 0.0994,41.752004 -0.0442,1.67845 -0.0994,3.34589 -0.15447,5.00778 l 5.97956,-0.46379 c 0.59076,-15.00134 0.657,-30.31186 0.116,-45.743867 0,0 -3.98088,-0.380973 -5.83047,-0.535554 z m -85.08309,-3.224453 -11.4677,-0.104761 c 0.19877,18.766858 0.16564,37.384638 -0.0608,55.538638 3.80419,-0.11053 11.42356,-0.36978 11.42356,-0.36978 0.39216,-17.99392 0.44168,-36.446065 0.10476,-55.063845 z m 30.24563,0.480348 -9.59598,-0.215323 c 0.27039,14.648 0.31471,29.505786 0.10476,44.529212 -0.0442,3.12503 -0.11053,6.24459 -0.17682,9.35303 l 9.5629,-0.50793 c 0.50242,-17.38103 0.56318,-35.192696 0.10476,-53.158989 z m 29.99166,1.071152 -7.49242,-0.320098 c 0.34246,14.35532 0.40872,28.920506 0.12133,43.645785 -0.055,2.46801 -0.12133,4.92497 -0.18759,7.38193 l 7.75189,-0.53004 c 0.57422,-16.43686 0.64048,-33.232615 0.10476,-50.160886 -0.0663,-0.0044 -0.29815,-0.01657 -0.29815,-0.01657 z M 276.56448,118.66989 c 1.94903,0.14906 3.90907,0.29814 5.81392,0.44167 -0.0663,-1.94899 -0.13243,-3.88697 -0.18221,-5.836 -0.3644,-14.233859 -0.29814,-28.313147 0.12133,-42.199202 -2.91524,0.209936 -18.40245,1.623249 -18.40245,1.623249 -0.50246,14.857789 -0.46934,29.969583 0.10476,45.004023 1.76127,0.13243 10.89351,0.83924 12.54434,0.96626 z m 323.20521,-0.81163 c 0.61286,0.59074 0.94414,1.40792 0.91101,2.25819 -0.69568,16.82888 -2.06498,33.62465 -4.05814,49.90692 -0.13791,1.11529 -0.89996,2.06498 -1.96004,2.4404 -0.45278,0.15446 -0.96626,0.31471 -1.43005,0.48035 -2.14775,16.83995 -4.93603,32.9124 -8.26537,47.88064 0.40871,0.0882 0.82268,0.16563 1.17053,0.42515 0.94413,0.70119 1.38586,1.88828 1.12084,3.0422 -5.99062,26.24272 -13.7425,49.31618 -22.41647,66.71925 -0.2704,0.5466 -0.70119,0.99383 -1.23122,1.28092 -39.31157,21.47233 -99.61511,24.68017 -141.1131,24.88998 -39.97414,0.20415 -92.67483,-4.93052 -128.59083,-22.47165 -4.17961,-2.04836 -5.29489,-2.4956 -5.89119,-3.68268 l -1.6288,-3.36246 c -9.02732,-19.00978 -16.12767,-42.93905 -20.79316,-63.37336 -0.20415,-0.88339 0.0118,-1.80545 0.57422,-2.51216 0.42511,-0.53559 1.04353,-0.86687 1.70608,-1.00488 -3.32383,-14.95168 -6.11207,-31.00206 -8.25435,-47.80883 l -1.39687,-0.48036 c -0.18759,-0.0663 -0.36442,-0.15445 -0.53555,-0.24846 -0.77851,-0.45828 -1.34169,-1.25885 -1.46318,-2.21956 -3.02013,-24.82922 -3.62194,-42.07222 -4.0526,-49.87935 -0.0442,-0.81162 0.25385,-1.60669 0.81163,-2.19193 0.54661,-0.56867 1.2975,-0.88895 2.08706,-0.90551 -0.51903,-14.22836 -0.58529,-28.705172 -0.12711,-43.286882 -0.71224,-0.01184 -1.40793,-0.276197 -1.94348,-0.76193 -0.64598,-0.585257 -0.99937,-1.430004 -0.97176,-2.302377 0.63494,-17.784086 2.04842,-35.479805 4.21273,-52.606841 0.1379,-1.12084 0.91657,-2.076001 1.99321,-2.440401 0.43618,-0.143676 0.94415,-0.298155 1.40794,-0.452766 2.25268,-16.9448427 5.30043,-33.729541 9.22052,-50.116708 -0.4748,-0.110532 -0.93309,-0.298155 -1.30854,-0.62944 -0.83371,-0.734349 -1.18706,-1.860693 -0.92203,-2.93735 1.28643,-4.185103 7.21629,-31.349851 21.2735,-63.191145 0.3201,-0.73432 0.97177,-1.40238 1.72264,-1.68396 l 3.90909,-1.43555 c 37.66622,-13.24005 91.06813,-19.50118 130.01528,-19.29141 15.27744,0.0829 33.22712,0.0443 60.89984,3.34591 25.60772,2.92079 54.84846,8.39237 78.77223,17.38655 0.75087,0.2762 1.34718,0.84476 1.67295,1.57356 8.55246,19.291412 15.72461,40.586988 21.3177,63.296045 0.26501,1.076657 -0.0882,2.203001 -0.92208,2.93735 -0.37558,0.331285 -0.83369,0.518997 -1.30303,0.623891 3.92012,16.392716 6.96787,33.1829631 9.21506,50.13331 1.28092,0.414088 3.12502,0.668059 3.40109,2.882114 2.16988,17.16567 3.58886,34.866938 4.21828,52.606841 0.0331,0.872373 -0.3201,1.722639 -0.97176,2.307881 -0.54109,0.485896 -1.22572,0.684661 -1.94903,0.701234 0.46379,14.614826 0.39754,29.119264 -0.12711,43.369704 0.73432,0.004 1.45762,0.26501 1.99317,0.78956 z M 474.35915,-92.607764 c -1.45761,-1.015902 -3.36801,-0.386359 -4.60475,0.723295 -1.11532,1.242292 -1.72819,3.152644 -0.72882,4.610273 0.99384,-1.341682 1.5294,-2.208506 2.40177,-2.937321 0.72881,-0.866824 1.59013,-1.391369 2.9318,-2.396247 z m 8.08316,5.328049 c 0,4.466744 -3.62196,8.088682 -8.08316,8.088682 -4.46673,0 -8.08871,-3.621938 -8.08871,-8.088682 0,-4.466729 3.62198,-8.083161 8.08871,-8.083161 4.4612,0 8.08316,3.616432 8.08316,8.083161 z m -57.13983,-6.515101 c -1.45211,-1.01595 -3.36796,-0.38635 -4.60475,0.72326 -1.10977,1.247843 -1.72814,3.15269 -0.7233,4.604756 0.99383,-1.341668 1.52388,-2.203002 2.40176,-2.926253 0.72331,-0.877892 1.58463,-1.396919 2.92629,-2.401763 z m 8.08318,5.328016 c 0,4.466729 -3.62198,8.088711 -8.08318,8.088711 -4.46673,0 -8.08866,-3.621982 -8.08866,-8.088711 0,-4.4667 3.62193,-8.088686 8.08866,-8.088686 4.4612,0 8.08318,3.621986 8.08318,8.088686 z m 41.96178,246.35991 c 0.99383,-1.34166 1.52942,-2.20298 2.40175,-2.9263 0.72882,-0.87237 1.58463,-1.40242 2.93181,-2.40725 -1.45762,-1.00489 -3.36797,-0.38097 -4.61026,0.7288 -1.10978,1.24229 -1.72264,3.14714 -0.7233,4.60475 z m -2.75511,0 c 0,-4.47223 3.62198,-8.08871 8.08867,-8.08871 4.46124,0 8.08317,3.61648 8.08317,8.08871 0,4.4667 -3.62193,8.08318 -8.08317,8.08318 -4.46669,0 -8.08867,-3.61648 -8.08867,-8.08318 z M 312.27066,265.69626 c -1.45211,-1.00488 -3.36246,-0.38096 -4.60475,0.72882 -1.10977,1.24229 -1.72814,3.15264 -0.7233,4.60475 0.99383,-1.34167 1.52388,-2.20299 2.40176,-2.9263 0.72881,-0.87232 1.58463,-1.40237 2.92629,-2.40727 z m 8.08869,5.33357 c 0,4.46675 -3.62194,8.08316 -8.08869,8.08316 -4.46118,0 -8.08316,-3.61641 -8.08316,-8.08316 0,-4.46673 3.62198,-8.08867 8.08316,-8.08867 4.46675,0 8.08869,3.62194 8.08869,8.08867 z M 285.02862,42.630684 c 0.99382,-1.341668 1.52387,-2.202987 2.40176,-2.926298 0.7233,-0.872328 1.58462,-1.402378 2.9263,-2.407271 -1.45212,-1.004878 -3.36248,-0.380957 -4.60477,0.728815 -1.10977,1.242292 -1.73369,3.147139 -0.72329,4.604754 z m -2.76062,0 c 0,-4.46673 3.62194,-8.088668 8.08868,-8.088668 4.46673,0 8.08316,3.621938 8.08316,8.088668 0,4.466744 -3.61643,8.083163 -8.08316,8.083163 -4.46674,0 -8.08868,-3.616419 -8.08868,-8.083163 z M 426.29632,159.08017 c 0.99383,-1.34168 1.52388,-2.20851 2.40175,-2.92625 0.72332,-0.8779 1.58463,-1.40243 2.9263,-2.40177 -1.45211,-1.01595 -3.36801,-0.38635 -4.6103,0.72326 -1.10422,1.2423 -1.72264,3.15268 -0.71775,4.60476 z m -2.76066,0 c 0,-4.4667 3.62198,-8.08868 8.08871,-8.08868 4.4612,0 8.08318,3.62198 8.08318,8.08868 0,4.46122 -3.62198,8.08871 -8.08318,8.08871 -4.46673,0 -8.08871,-3.62749 -8.08871,-8.08871 z M 529.89224,-58.773304 c 2.9208,0.480362 15.15043,2.666791 18.73373,3.544669 -3.22994,-16.089028 -6.97889,-31.377457 -11.26893,-45.699715 -4.99123,-1.3251 -12.28487,-3.03117 -19.79382,-4.51086 4.38392,14.609322 7.92858,26.137778 12.32902,46.665906 z M 584.03952,165.3413 c 1.05458,-0.33127 2.07603,-0.65149 3.08643,-0.98277 1.38582,-12.04193 2.41832,-24.32127 3.08639,-36.63376 l -2.97045,0.22651 c -0.71224,12.76523 -1.7889,25.2654 -3.20237,37.39015 z m -114.81517,92.56995 c -3.88149,0.24307 -12.43395,0.64048 -12.67135,0.65705 -1.24784,20.10853 -2.25269,28.52298 -3.7545,42.76235 -10.55117,0.3201 -21.10236,0.49142 -31.65354,0.20415 -7.64145,-0.0608 -15.28294,-0.34784 -22.91334,-0.75088 -0.75642,-3.89801 -1.4466,-7.76846 -1.99872,-11.62783 -1.22021,-8.64634 -2.45696,-18.99877 -3.64404,-30.75355 -0.26503,-0.0118 -0.52455,-0.0332 -0.78401,-0.0373 -0.13258,0 -0.30934,-0.0118 -0.50247,-0.0373 -2.14775,-0.0882 -4.26243,-0.19876 -6.34947,-0.31471 1.22022,12.36215 2.50115,23.21149 3.78762,32.21672 0.48035,3.32934 1.05454,6.68075 1.67846,10.03771 -13.72039,-0.87789 -25.68504,-1.557 -56.3282,-5.46607 18.40801,4.25691 38.29566,7.14453 56.94657,8.67945 0.16563,0.83371 0.30353,1.65085 0.48035,2.47904 0.69018,0.0497 6.47096,0.39214 7.84026,0.46379 -0.17683,-0.78401 -0.30933,-1.55701 -0.46934,-2.33551 7.38749,0.47485 14.79154,0.79506 22.19007,1.0049 10.46837,0.094 20.93673,-0.0608 31.38853,-0.58526 -0.0716,0.6515 -0.14368,1.34168 -0.20995,1.98766 1.76682,-0.0829 12.34564,-0.77298 12.7763,-0.80611 0.0716,-0.66255 0.14367,-1.35274 0.20993,-2.03185 14.47683,-1.21466 28.89844,-3.09745 43.11575,-5.99057 -14.28355,1.41895 -28.54504,2.58948 -42.8231,3.24096 1.44106,-13.90808 2.40176,-21.49985 3.68823,-42.99424 z M 327.08982,-103.72212 c -0.78405,0.17102 -2.73304,0.61286 -2.9263,0.65153 -3.38454,8.944504 -8.95554,26.866591 -13.49955,46.516845 0.89445,-0.165635 1.80546,-0.342456 2.72198,-0.524531 4.40599,-18.976646 9.85551,-36.52883 13.70387,-46.643844 z m -29.14139,234.06953 -1.80546,-0.13258 c 0.67911,14.42158 1.74476,28.69411 3.14714,42.56913 0.69017,0.1379 2.44594,0.46379 2.60052,0.50242 -1.40238,-13.83634 -2.46801,-28.1862 -3.15815,-42.87834 -0.25964,-0.0207 -0.52453,-0.0331 -0.78405,-0.0608 z M 570.59522,-49.618989 c 0.84475,0.248453 1.66188,0.513478 2.45696,0.76193 -4.57164,-16.304394 -9.98801,-31.752925 -16.17185,-46.086217 -1.24784,-0.45273 -2.51771,-0.8889 -3.80969,-1.31956 6.53168,14.763922 12.04193,30.317376 16.597,46.367769 0.3201,0.09943 0.63493,0.176821 0.92758,0.276197 z m -9.53529,179.530189 0.91653,-0.0608 c -0.5245,14.22282 -1.38032,28.21378 -2.5453,41.77407 -10.26408,2.12569 -14.2836,2.65022 -18.07117,3.31278 1.30855,-14.07379 2.26925,-28.76042 2.85999,-43.8501 0.23728,-0.0118 0.49142,-0.0373 0.72882,-0.0497 0,0 13.99647,-0.97172 16.11113,-1.12634"
         style="fill:#3c2334;fill-opacity:1;fill-rule:nonzero;stroke:none;stroke-width:0.552128" />
    </g>
  </g>
</svg>
