<?xml version="1.0" encoding="UTF-8" standalone="no"?>
<!-- Created with Inkscape (http://www.inkscape.org/) -->

<svg
   version="1.1"
   id="svg1"
   width="600"
   height="525.33331"
   viewBox="0 0 600 525.33331"
   xmlns="http://www.w3.org/2000/svg"
   xmlns:svg="http://www.w3.org/2000/svg">
  <defs
     id="defs1" />
  <g
     id="g1">
    <g
       id="group-R5"
       transform="translate(-113.92276,162.0453)">
      <path
         id="path3599"
         d="m 383.3007,200.98869 c 0.72827,-3.92125 0.61447,-7.69002 0.17068,-11.46334 -0.4984,-3.76422 -1.25169,-7.52389 -2.09148,-11.29266 -1.59989,-7.55119 -3.48657,-15.20023 -3.96449,-23.14742 1.65681,3.62083 3.02457,7.29402 4.26946,11.01728 1.26308,3.71869 2.32817,7.5034 3.1998,11.37002 0.8011,3.87574 1.44288,7.84705 1.38371,11.90257 -0.0455,4.01456 -0.81929,8.22711 -2.96768,11.61355 z m 58.45916,-34.88614 c 1.2426,-3.72326 2.61036,-7.39645 4.26944,-11.01728 -0.47792,7.94719 -2.36686,15.59623 -3.9645,23.14742 -0.84204,3.76877 -1.59534,7.52844 -2.09374,11.29266 -0.44152,3.77332 -0.55758,7.54209 0.17523,11.46334 -2.15293,-3.38644 -2.92671,-7.59899 -2.96996,-11.61355 -0.0614,-4.05552 0.58262,-8.02683 1.38144,-11.90257 0.87392,-3.86662 1.939,-7.65133 3.20209,-11.37002 z M 371.97164,81.607937 c -1.41329,5.60536 -2.6832,11.256239 -2.75831,16.800148 -0.25717,8.648135 2.52845,8.657245 4.35821,16.265335 0.72144,3.0405 0.8011,6.04459 1.16978,8.87345 0.28903,2.86299 1.0924,5.62584 2.18251,8.40234 -1.89121,-2.28947 -3.30903,-5.05461 -4.19208,-7.96311 -0.87162,-2.91761 -1.40189,-5.79654 -2.30312,-8.41828 -2.94491,-7.82656 -5.44606,-7.58761 -5.40053,-17.209806 0.17978,-6.249414 1.74327,-12.146086 3.8416,-17.742332 2.14154,-5.584887 4.81336,-10.91259 8.05413,-15.89438 -1.6659,5.705503 -3.45242,11.283562 -4.95219,16.886635 z m 82.10953,-0.992255 c 3.11562,8.297651 5.59399,19.009967 2.20983,27.161978 -5.09557,9.27627 -3.87345,8.86207 -6.0719,16.20844 -0.88074,2.9085 -2.30086,5.67364 -4.1898,7.96311 1.09014,-2.7765 1.89349,-5.53935 2.18025,-8.40234 0.81019,-6.22666 0.26172,-8.24305 3.61402,-15.44375 1.31314,-4.55623 4.08737,-6.92081 -0.84434,-26.495183 -1.49749,-5.603073 -3.2863,-11.181132 -4.94993,-16.886635 3.2385,4.98179 5.91033,10.309493 8.05187,15.89438 z m -98.8983,11.64312 c 1.70914,-2.983613 3.37505,-5.778322 4.87482,-8.639033 1.48156,-2.865275 2.85162,-5.762391 4.10787,-8.741442 1.32225,-2.949474 2.52161,-5.980872 3.84159,-9.003177 1.29495,-3.03596 2.63314,-6.085555 4.32862,-9.073721 -0.0205,3.431957 -0.49841,6.775129 -1.22896,10.070539 -0.70777,3.304492 -1.78423,6.52706 -3.10194,9.674532 -1.3928,3.111056 -3.0405,6.162927 -5.2071,8.855239 -2.12788,2.708222 -4.66543,5.100129 -7.6149,6.857063 z m 107.71257,-8.639033 c 1.49979,2.860711 3.16342,5.65542 4.87256,8.639033 -2.95174,-1.756934 -5.48702,-4.148841 -7.61264,-6.857063 -2.16886,-2.692312 -3.81429,-5.744183 -5.20937,-8.855239 -1.3177,-3.147472 -2.39188,-6.37004 -3.10195,-9.674532 -0.73053,-3.29541 -1.20618,-6.638582 -1.22894,-10.070539 1.69548,2.988166 3.03367,6.037761 4.32862,9.073721 1.32225,3.022305 2.51934,6.053703 3.84158,9.003177 1.25855,2.979051 2.62631,5.876167 4.11014,8.741442 z M 617.61978,-45.585726 c -3.31589,7.683189 -7.63312,14.929419 -12.64222,21.661313 -10.04777,13.463789 -22.66267,24.84748115 -36.33356,34.585729 -13.66634,9.763295 -28.49334,17.858417 -43.88476,24.563002 -12.46016,5.498389 -25.33449,10.020456 -38.41368,13.773302 -0.5644,-1.515705 -1.25625,-2.903955 -2.13017,-4.164763 13.30677,-3.441049 26.41097,-7.680918 39.13055,-12.922146 15.36639,-6.269898 30.19112,-13.900756 43.9371,-23.2020519 13.72097,-9.30129525 26.4656,-20.2730491 36.74323,-33.3522311 5.11151,-6.552105 9.56073,-13.618546 13.05414,-21.197046 3.46835,-7.555744 5.75329,-15.648582 6.78196,-23.948521 -0.82157,8.299939 -2.92899,16.497464 -6.24259,24.203413 z m 0.25489,10.946724 c -3.21119,7.760569 -7.4761,15.081901 -12.41008,21.918477 -9.97041,13.64359315 -22.50793,25.257136 -36.12647,35.20021 -13.64357,9.970397 -28.46831,18.29538 -43.88476,25.232092 -12.12786,5.498389 -24.66767,10.122874 -37.43506,13.978127 0.0752,-2.492027 -0.15925,-5.336828 -0.61903,-8.55711 -0.0273,-0.204825 -0.0773,-0.40964 -0.12751,-0.589441 11.99816,-3.083735 23.84383,-6.861626 35.38,-11.433743 15.34135,-6.065093 30.16608,-13.463793 43.96442,-22.560284 13.74597,-9.0714349 26.54067,-19.8360981 36.94802,-32.708162 5.16386,-6.477007 9.66088,-13.463793 13.23394,-20.967193 3.54347,-7.503398 5.96039,-15.546169 7.06415,-23.818798 -0.71915,8.297663 -2.74919,16.547534 -5.9877,24.305825 z M 477.53357,105.06259 c 1.64541,1.6682 2.95402,3.03141 3.10649,5.83067 0.25945,4.42194 -2.84932,7.78561 -6.78196,11.30631 -3.69822,-2.41464 -7.2963,-3.28856 -10.71458,-2.5694 -7.32135,1.54301 -12.20299,9.84067 -16.54527,17.13698 -1.31314,2.23714 -2.5694,4.36731 -3.80291,6.14245 -1.82292,-11.73416 -10.95809,-32.98128 -23.42735,-41.57708 l -0.0226,-0.0251 c -1.64316,-1.13789 -3.40237,-2.086914 -5.27764,-2.796971 1.69322,-36.659005 3.86436,-54.770043 6.58169,-65.577939 4.39917,0.557578 6.69093,2.246234 10.01362,6.756932 3.24305,4.403717 8.09969,6.176583 13.24077,6.176583 4.25807,0 8.71187,-1.21984 12.6058,-3.167955 10.82611,-5.411904 25.79421,-2.52388 27.92894,10.90121 0.81248,5.104692 1.00136,10.539365 -0.65543,15.480177 -3.6914,-1.349549 -7.22804,-3.52525 -10.21391,-6.395065 -3.39782,-3.252167 -6.08328,-7.348661 -7.97905,-11.859337 1.03777,4.770125 2.96312,9.474269 5.9399,13.614006 2.62631,3.661797 6.05371,6.82519 10.11606,9.230752 -0.10016,0.163858 -0.198,0.327717 -0.30042,0.489289 -0.13432,0.209377 -0.26626,0.416479 -0.40511,0.623591 -4.14654,-2.553478 -8.1611,-5.120612 -11.44512,-8.520694 -3.66636,-3.718706 -6.28128,-8.518429 -8.2089,-13.591247 1.06509,5.300392 2.86299,10.639486 6.12425,15.295824 2.91305,4.235328 6.73417,7.671815 10.46424,10.926257 -0.32999,0.416479 -0.6577,0.839776 -0.98315,1.265348 -3.83476,-2.901679 -7.5603,-5.680456 -10.48701,-9.244407 -3.34318,-3.987248 -5.53709,-8.980396 -7.21209,-14.112399 0.8102,5.325438 2.13017,10.744191 4.99544,15.639494 2.66954,4.647223 6.44285,8.454681 9.90895,12.143789 -1.34729,2.758304 -2.14383,6.024115 -1.62494,10.430118 0.64178,5.500664 3.08146,8.015464 5.06142,10.047764 z m -4.5471,37.70363 c -1.21757,4.77242 -3.70277,9.06461 -6.80701,12.71731 1.90943,-4.41738 3.96905,-8.65269 5.06828,-13.15654 1.18116,-4.49021 1.34045,-9.15566 1.30859,-13.96903 1.43377,4.5858 1.63633,9.64269 0.43014,14.40826 z m -13.73917,27.21434 c -5.59626,9.57439 -10.42555,17.84474 -10.42555,24.89752 0,2.8812 1.22211,5.07738 2.401,7.20073 2.00045,3.59353 3.7278,6.69775 -0.10468,13.28628 -10.02045,17.23028 -14.6199,35.67813 -13.66405,54.83148 0.41874,8.4251 -0.76923,13.46834 -2.14383,19.3172 -1.16294,4.92944 -2.47838,10.51888 -2.94038,18.9713 -0.3186,5.88529 -4.64268,11.04913 -7.08236,11.04913 -3.67545,0 -4.98179,-2.61265 -6.49293,-5.6395 -1.43605,-2.86981 -3.05871,-6.12652 -7.07327,-6.12652 -4.01,0 -5.63494,3.25671 -7.06871,6.12652 -1.51344,3.02685 -2.81748,5.6395 -6.49523,5.6395 -2.44194,0 -6.76147,-5.16384 -7.08236,-11.0514 -0.462,-8.45015 -1.7797,-14.03959 -2.93808,-18.96903 -1.37688,-5.84659 -2.56714,-10.8921 -2.14612,-19.3172 0.95584,-19.14881 -3.64132,-37.59437 -13.66405,-54.83148 -3.8325,-6.58853 -2.10742,-9.69275 -0.10704,-13.28628 1.18115,-2.12335 2.40328,-4.31953 2.40328,-7.20073 0,-7.05278 -4.83386,-15.32313 -10.43011,-24.89981 -1.73874,-2.9745 -3.52297,-6.05369 -5.22985,-9.19432 11.28809,-20.42555 1.1106,-29.45831 -7.22119,-36.69317 2.66271,-1.50887 5.11833,-2.00955 7.46925,-1.53163 6.01275,1.25853 10.55985,8.94173 14.56757,15.751 2.09831,3.53664 4.08055,6.87072 6.14473,9.07372 3.40692,16.63174 7.21666,33.04501 10.31404,45.84425 -6.38823,12.33953 -10.82838,27.2553 -1.73418,51.91842 -0.96039,7.20073 -0.46426,14.9226 1.97997,23.15198 5.11151,17.18933 -1.3928,38.09734 7.12561,39.64491 2.94265,0 4.64496,1.23804 6.03777,-9.13517 1.39509,-10.37776 5.73054,-26.32904 3.4092,-34.69271 -2.32364,-8.3591 -1.23807,-16.87753 -6.04006,-19.82017 -3.11105,-1.90714 -4.70868,-7.02319 -5.07964,-12.35318 -0.13877,-1.97541 -2.84249,-2.4374 -3.62539,-0.61903 -1.0924,2.54665 -1.98224,5.19117 -2.67637,7.9085 -5.59171,-17.80834 -3.61629,-29.96353 1.71142,-41.45645 2.95402,12.05051 5.0364,19.94307 5.08193,20.10693 0.17295,0.66227 0.76923,1.11288 1.44286,1.11288 0.041,0 0.0842,0 0.12751,-0.005 0.71915,-0.0729 1.29494,-0.62812 1.36549,-1.35183 0.006,-0.0934 0.71688,-6.91169 5.44833,-11.87982 l 1.87299,31.30399 2.0528,-34.2967 c 0.25262,-0.13655 0.49159,-0.28675 0.75786,-0.41193 l 1.97996,41.01495 1.98225,-41.02178 c 0.264,0.1275 0.50296,0.2731 0.75557,0.40964 l 2.05052,34.30582 1.87756,-31.34269 c 4.69276,4.87028 5.41419,11.53844 5.44605,11.92078 0.0705,0.72145 0.64862,1.2904 1.37005,1.34957 0.7624,0.0478 1.3837,-0.40509 1.56577,-1.10832 0.0456,-0.16386 2.1279,-8.05871 5.08421,-20.10921 5.32542,11.49293 7.30311,23.64812 1.70914,41.45645 -0.69414,-2.71505 -1.58399,-5.35957 -2.67638,-7.90622 -0.7806,-1.81838 -3.48657,-1.35638 -3.62312,0.61904 -0.37322,5.32999 -1.96859,10.44603 -5.07964,12.35317 -4.80199,2.94265 -3.71642,11.46107 -6.04233,19.82017 -2.32134,8.36366 2.01411,24.31494 3.40692,34.69271 1.39736,10.37321 3.09967,9.13516 6.04232,9.13516 8.51615,-1.54756 2.01184,-22.45557 7.12335,-39.64489 2.4465,-8.23167 2.94036,-15.95127 1.97996,-23.15198 9.09647,-24.66542 4.65634,-39.58117 -1.73191,-51.92071 3.09741,-12.79924 6.90485,-29.21479 10.31406,-45.84653 2.08238,-2.20071 4.06689,-5.53479 6.16292,-9.06915 4.00773,-6.80927 8.52981,-14.49248 14.56757,-15.751 2.4192,-0.51663 4.96814,0.05 7.74692,1.70231 -8.29539,7.20528 -18.2271,16.25396 -7.02776,36.52475 -1.70688,3.14063 -3.49339,6.21982 -5.23213,9.19433 z m -108.85505,-41.6226 c -0.0341,4.81337 0.12511,9.47882 1.3086,13.96903 1.09696,4.50385 3.15657,8.73916 5.06599,13.15654 -3.10423,-3.6527 -5.58943,-7.94489 -6.80699,-12.71731 -1.20391,-4.76557 -1.00365,-9.82246 0.4324,-14.40826 z m -8.08827,-17.4647 c 0.17978,-2.79926 1.46334,-4.16247 3.10877,-5.83067 1.9777,-2.0323 4.41965,-4.54709 5.06142,-10.047759 0.5189,-4.387796 -0.26854,-7.649066 -1.61128,-10.402808 3.47519,-3.695935 7.26217,-7.512497 9.93854,-12.171111 2.86299,-4.895303 4.18525,-10.314044 4.99545,-15.639483 -1.67729,5.131993 -3.86891,10.125151 -7.2121,14.112399 -2.93582,3.573045 -6.67273,6.356384 -10.51432,9.264891 -0.32317,-0.425572 -0.65316,-0.846604 -0.98316,-1.263083 3.74146,-3.26127 7.57167,-6.704585 10.49156,-10.949006 3.25898,-4.656338 5.05689,-9.995432 6.12425,-15.295834 -1.92762,5.072828 -4.54254,9.87254 -8.2089,13.591246 -3.29084,3.406921 -7.31452,5.97632 -11.47017,8.534351 -0.10016,-0.145597 -0.20482,-0.28675 -0.3004,-0.434687 -0.0154,-0.02727 -0.0319,-0.05679 -0.05,-0.08417 -0.12289,-0.19117 -0.23667,-0.395996 -0.35503,-0.591718 4.07374,-2.407838 7.51023,-5.578059 10.14337,-9.246683 2.97451,-4.139738 4.89986,-8.843881 5.93764,-13.613996 -1.89577,4.510677 -4.58124,8.607171 -7.97906,11.859337 -2.99953,2.883471 -6.55665,5.065989 -10.26626,6.415538 -2.50339,-7.42147 -1.80017,-20.141066 5.10242,-25.76691 5.57576,-3.82793 15.14562,-4.155647 22.1802,-0.63495 3.89394,1.950381 8.35,3.167945 12.60808,3.167945 5.14109,0 9.9977,-1.772856 13.23847,-6.176583 3.32725,-4.512963 5.61675,-6.197078 10.02048,-6.754656 2.71734,10.803355 4.88848,28.889356 6.58396,65.575673 -0.10925,0.04101 -0.21848,0.0934 -0.32545,0.134325 -1.67274,0.662262 -3.33182,1.536192 -4.9613,2.660452 l -0.0251,0.0295 c -12.46924,8.5958 -21.60213,29.86796 -23.42507,41.57481 -1.23351,-1.77514 -2.49204,-3.90532 -3.80291,-6.14246 -4.31497,-7.2963 -9.22392,-15.59397 -16.54754,-17.13698 -0.76922,-0.15242 -1.54073,-0.25717 -2.33727,-0.25717 -2.69685,0 -5.49839,0.95131 -8.37504,2.82657 -3.93264,-3.52068 -7.01636,-6.88436 -6.78424,-11.3063 z M 253.6082,22.479685 c -13.61856,-9.943074 -26.15835,-21.55661685 -36.12647,-35.20021 -4.934,-6.836576 -9.17386,-14.157908 -12.41008,-21.918477 -3.2385,-7.758291 -5.26855,-16.008162 -5.9877,-24.305825 1.13109,8.272629 3.52071,16.3154 7.06644,23.818798 3.57077,7.5034 8.09283,14.490186 13.23165,20.967193 10.40735,12.8720639 23.20204,23.6367271 36.94805,32.708162 13.79833,9.096491 28.62533,16.495191 43.96441,22.560284 11.53617,4.572117 23.38184,8.350008 35.37999,11.433743 -0.05,0.179801 -0.0978,0.384616 -0.1275,0.589441 -0.45971,3.220282 -0.69411,6.037772 -0.61674,8.55711 C 322.16059,57.834651 309.64582,53.210166 297.49291,47.711777 282.07646,40.775065 267.25172,32.450082 253.60814,22.479685 Z m -47.71498,-68.320303 c 3.46836,7.5785 7.91304,14.644941 13.02683,21.197046 10.27764,13.079182 23.02226,24.05093585 36.74321,33.3522311 13.74599,9.3012959 28.57073,16.9321539 43.9371,23.2020519 12.7196,5.241228 25.84884,9.506132 39.15786,12.922146 -0.89894,1.260808 -1.59306,2.674094 -2.15975,4.164763 -13.0769,-3.752846 -25.94896,-8.274913 -38.41139,-13.773302 -15.39142,-6.704585 -30.21614,-14.799707 -43.88704,-24.563002 -13.64358,-9.73824785 -26.25849,-21.12194 -36.33128,-34.585729 -4.98407,-6.731894 -9.32634,-13.978124 -12.64223,-21.661313 -3.31359,-7.705949 -5.42101,-15.903474 -6.24258,-24.203413 1.02639,8.299939 3.31359,16.392777 6.80927,23.948521 z M 388.658,33.528823 c 2.53527,-2.733268 5.16158,-5.525701 11.70457,-6.975403 0.39372,1.067362 0.77606,2.223475 1.14931,3.484283 -5.02276,0.712332 -7.863,2.76058 -11.63632,7.878916 -4.89758,6.647696 -14.629,5.84659 -22.09826,2.107422 -0.30041,-0.152425 -0.62813,-0.250345 -0.93309,-0.389168 14.41053,1.804719 17.99267,-2.032315 21.81379,-6.10605 z m 51.48375,113.047137 c -5.53709,27.05274 -12.14609,53.55928 -15.03867,64.85422 -1.72279,-4.60401 -5.41192,-10.57122 -13.20434,-12.86525 -0.27766,-0.0798 -0.56896,-0.0798 -0.84434,0 -7.79243,2.29403 -11.48382,8.26124 -13.20662,12.86525 -2.89029,-11.29494 -9.50384,-37.81514 -15.04094,-64.8747 0.0934,-7.90622 8.03369,-31.04684 20.65313,-41.34951 3.02685,15.64632 5.05007,43.23389 6.52252,88.67303 0.0251,0.80791 0.68503,1.44743 1.49521,1.44743 0.80565,0 1.46564,-0.63952 1.49522,-1.44743 1.4702,-45.41411 3.49113,-73.00168 6.51115,-88.67303 12.63083,10.31179 20.57347,33.47743 20.65768,41.36999 z M 434.31562,33.528823 c 3.79381,4.073735 7.40098,7.910769 21.78649,6.10605 -0.30724,0.138769 -0.63268,0.236679 -0.93308,0.389168 -7.46699,3.739168 -17.20071,4.54254 -22.09828,-2.107422 -3.76876,-5.111509 -6.62492,-7.159756 -11.63176,-7.876641 0.37325,-1.260796 0.75559,-2.419196 1.15158,-3.488845 6.54982,1.447426 9.1693,4.242156 11.72505,6.97769 z m 49.12827,16.290365 c -0.32089,-0.883019 -0.71916,-1.695494 -1.16977,-2.469268 0.45061,0.773774 0.84888,1.586249 1.16977,2.469268 z M 598.19104,-143.28011 c -0.60992,-0.51889 -1.50432,-0.47566 -2.05507,0.0978 -0.55074,0.56895 -0.55985,1.47473 -0.0183,2.05506 21.87978,23.52522 29.24663,50.16604 21.304,77.038996 -13.32724,45.109166 -67.6808,85.828252 -138.5432,103.845965 -5.37323,-3.359115 -13.02683,-4.433315 -22.77418,-3.145196 -13.20663,1.745565 -16.03321,-1.285833 -19.60398,-5.13882 -6.64996,-7.132434 -13.49793,-8.896208 -24.78375,-8.925784 -0.13877,0 -0.26628,0.0064 -0.40509,0.0086 h -0.0955 c -16.47014,0.02727 -20.8625,4.754215 -24.74278,8.91668 -3.59808,3.852988 -6.42466,6.884386 -19.63127,5.138831 -9.65406,-1.263083 -17.25759,-0.2367 -22.62855,3.056434 -70.70765,-18.067807 -124.92693,-58.766408 -138.20638,-103.80046 -7.91761,-26.857023 -0.54846,-53.481916 21.31767,-76.995746 0.54165,-0.58034 0.53254,-1.48612 -0.0183,-2.05508 -0.54848,-0.57123 -1.45198,-0.61219 -2.05279,-0.0978 -33.67541,28.95761 -47.319,62.553361 -39.45828,97.155024 12.08235,53.1746813 74.74724,103.638853 156.00788,125.687067 l 0.57806,0.730541 c 3.18617,4.032756 5.93536,7.528429 5.13882,14.387768 -0.53937,4.472007 -2.33954,6.32226 -4.23985,8.27491 -1.82523,1.90031 -3.72554,3.85297 -3.95768,7.75829 -0.32771,5.9786 3.75511,10.17294 8.40007,14.26034 -2.96767,13.20888 2.78334,26.41551 8.22258,36.54066 1.84341,3.4274 3.78696,6.75692 5.6668,9.97266 5.15246,8.81884 10.02046,17.14836 10.02046,23.39095 0,2.10286 -0.93991,3.7938 -2.02777,5.74647 -2.13471,3.83703 -4.55393,8.18387 0.13655,16.24712 9.72462,16.72504 14.1875,34.6176 13.26125,53.17468 -0.44151,8.84841 0.85115,14.33997 2.2212,20.15245 1.18571,5.04322 2.41466,10.2617 2.86528,18.45012 0.37322,6.87071 5.45742,13.87797 10.06824,13.87797 5.52572,0 7.54665,-4.0464 9.16931,-7.29629 1.42923,-2.85388 2.33728,-4.46972 4.39462,-4.46972 2.0619,0 2.96996,1.61584 4.39462,4.46744 1.62494,3.25217 3.64588,7.29857 9.17158,7.29857 4.61537,0 9.69502,-7.00726 10.06598,-13.87797 0.45061,-8.18842 1.67956,-13.4069 2.86754,-18.45241 1.36777,-5.81245 2.66271,-11.30175 2.21893,-20.15016 -0.92399,-18.56391 3.53892,-36.45418 13.26352,-53.17468 4.68821,-8.06325 2.27128,-12.41009 0.13433,-16.24712 -1.08556,-1.95267 -2.02549,-3.64361 -2.02549,-5.74647 0,-6.24259 4.86799,-14.57211 10.02046,-23.38866 1.87756,-3.21803 3.82111,-6.54755 5.66226,-9.97495 5.48702,-10.21619 11.30858,-23.57757 8.14062,-36.90935 4.29448,-3.82112 8.01319,-7.77879 8.01319,-13.22255 0,-0.22988 -0.0251,-0.43697 -0.0251,-0.6691 -0.23214,-3.90532 -2.1074,-5.85798 -3.95765,-7.75829 -1.90032,-1.95265 -3.70049,-3.802903 -4.23986,-8.27491 -0.79655,-6.859339 1.95266,-10.3277 5.1388,-14.387768 l 0.43242,-0.550751 c 81.54287,-21.954899 144.45809,-72.4577731 156.6292,-125.782652 7.90395,-34.631248 -5.73736,-68.256579 -39.43552,-97.239229"
         style="fill:#3c2334;fill-opacity:1;fill-rule:nonzero;stroke:none;stroke-width:0.227582" />
    </g>
  </g>
</svg>
