<?xml version="1.0" encoding="UTF-8" standalone="no"?>
<!-- Created with Inkscape (http://www.inkscape.org/) -->

<svg
   version="1.1"
   id="svg1"
   width="600"
   height="525.33331"
   viewBox="0 0 600 525.33331"
   xmlns="http://www.w3.org/2000/svg"
   xmlns:svg="http://www.w3.org/2000/svg">
  <defs
     id="defs1" />
  <g
     id="g1">
    <g
       id="group-R5"
       transform="translate(-113.92276,162.0453)">
      <path
         id="path3601"
         d="m 444.63878,249.07374 c -0.49609,-16.85359 -1.22612,-33.69507 -2.15347,-50.52218 0.16637,10.28275 0.26497,20.56522 0.28188,30.84795 l -3.27246,2.17883 c -0.0365,-2.83305 -0.56092,-39.81889 -0.69903,-54.8426 1.42342,-0.1334 2.95958,-0.4679 4.58878,-0.97893 0.43971,3.48696 0.87942,6.99055 1.34166,10.57335 2.8243,22.01088 3.16819,43.54485 -0.0872,62.74358 z m -2.07172,9.96337 c -0.76949,3.09826 -1.6461,6.11957 -2.64107,9.05042 -0.0762,-9.83091 -0.21423,-21.06606 -0.37771,-32.86805 0.0704,-0.078 0.15792,-0.1463 0.2114,-0.24553 l 3.00468,-5.24747 c 0.0148,9.7748 -0.0395,19.54455 -0.19723,29.31063 z m -8.69838,23.13609 c -0.36077,-21.20813 -1.17818,-42.39315 -2.29157,-63.55506 l 0.0704,-0.0507 -0.0704,0.0148 c -0.10146,-1.92571 -0.18878,-3.84494 -0.29876,-5.77064 0.0339,1.93669 0.0451,3.8734 0.0734,5.80897 l -4.50703,0.8236 c -0.0281,-16.42176 0.11564,-33.29085 0.35234,-50.0365 0.67928,1.96432 1.65172,3.62452 2.97366,4.82809 1.52208,1.38931 3.39369,2.18755 5.56968,2.45195 0.13805,15.05444 1.12183,84.68961 1.16974,99.19132 -0.94143,2.15684 -1.9505,4.2587 -3.04133,6.29462 z m -13.43088,41.3714 c -3.07799,-2.43194 -6.00093,-5.16605 -8.76885,-8.03854 -3.88974,-4.05295 -7.5089,-8.39987 -10.88283,-12.9351 -6.71968,-9.08678 -12.57966,-18.90471 -16.86402,-29.46256 3.61917,10.809 8.88439,21.06382 15.10799,30.68361 3.12871,4.8061 6.5252,9.45688 10.25709,13.86216 3.03007,3.55742 6.27152,6.9618 9.89913,10.05697 -0.47073,1.00287 -1.02036,1.94205 -1.68838,2.74253 l -0.0395,-0.0341 c -40.81695,-37.05658 -53.55445,-110.87437 -56.57886,-133.6043 0.66238,-0.94142 1.45724,-1.56462 2.39304,-1.87948 5.47382,31.91256 19.91097,88.90889 56.02077,123.92194 0.43409,0.41377 0.88226,0.82023 1.31914,1.23204 0.0592,1.18356 -0.002,2.33949 -0.17484,3.45483 z m -6.373,9.51098 c -1.73347,-1.41269 -3.41621,-2.93223 -5.02847,-4.52761 -2.87502,-2.85162 -5.56685,-5.92678 -8.1121,-9.12878 -5.0764,-6.41244 -9.59752,-13.32124 -13.43934,-20.62665 3.19634,7.60925 7.12837,14.93889 11.71151,21.88293 2.29721,3.4706 4.76635,6.83861 7.48353,10.04935 0.87661,1.02825 1.79266,2.04015 2.72564,3.03231 -0.28467,-0.0332 -0.57501,-0.11012 -0.86533,-0.17187 -0.8597,-0.7695 -1.72501,-1.58661 -2.61008,-2.50577 -25.37072,-26.36545 -50.49905,-101.7084 -47.19276,-127.68739 4.31254,28.02562 18.22262,94.17609 56.43797,129.09107 -0.35515,0.22578 -0.7244,0.4228 -1.11057,0.59247 z M 368.22783,195.57224 c 0.69901,0.44591 1.35296,1.07138 1.97869,1.82115 3.21327,8.90949 6.30816,20.35605 9.15218,33.58147 5.69086,26.48127 28.84049,64.86347 38.57612,80.52336 0.64547,1.03726 1.12465,2.11399 1.53618,3.19298 -33.90281,-34.40087 -47.7565,-88.84377 -53.11759,-119.86335 0.65675,0.14988 1.28531,0.37544 1.87442,0.74439 z m 39.68948,6.41245 c 1.04292,0.16933 2.02381,0.25425 2.93423,0.25425 0.35797,0 0.68212,-0.0451 1.02316,-0.0683 -1.25429,28.48817 -1.23737,55.52528 1.07674,86.94118 -0.73566,-1.00287 -1.44315,-2.00604 -2.14218,-3.01005 -0.58063,-6.7053 -1.06545,-13.42188 -1.38679,-20.15029 -0.69055,-14.3354 -0.95268,-28.70294 -0.65956,-43.07244 -0.80332,14.34978 -1.04854,28.73704 -0.86532,43.11978 0.0676,5.50542 0.23958,11.01053 0.47918,16.51227 -0.81177,-1.23203 -1.60101,-2.46633 -2.36205,-3.69836 -0.7723,-22.32348 0.2396,-48.90905 1.90259,-76.82812 z M 346.12674,-6.5758415 c 3.79954,79.3479755 22.70428,151.2547215 50.03396,189.2891015 0.0311,0.0395 0.0592,0.0769 0.0902,0.11331 -0.45663,0.34358 -0.93297,0.65392 -1.44878,0.90732 -6.24615,-6.72503 -11.29155,-14.68237 -15.50825,-23.02278 -4.78045,-9.48761 -8.55463,-19.51919 -11.8722,-29.68608 2.63263,10.36729 5.73033,20.65539 9.93578,30.58579 3.43594,8.09462 7.65547,15.99023 13.11803,23.09298 -0.54965,-0.002 -1.13029,-0.0561 -1.71938,-0.14397 -0.34953,-0.46254 -0.69903,-0.89859 -1.04573,-1.38623 C 358.00179,141.67989 339.86938,31.862224 346.1268,-6.5757782 Z m 7.072,-13.0701165 c 0.16066,0.0021 0.31852,0.05645 0.47354,0.08455 l 0.9978,10.3050146 c 4.20262,43.7962744 8.52081,88.7510114 26.69833,135.4950294 l -4.6677,-1.29573 c -3.4895,-9.16092 -6.63231,-18.4681 -9.58345,-27.83169 3.81929,14.49071 8.00219,28.91603 13.42528,42.96197 2.72,7.01818 5.75005,13.94136 9.34103,20.62158 3.01878,5.59193 6.46881,11.01474 10.57277,16.01786 -0.53554,1.4578 -1.21485,2.76791 -2.0407,3.89002 -27.93007,-39.13112 -46.91936,-114.338781 -49.61117,-196.522343 0.0254,-0.05645 0.0535,-0.121132 0.0846,-0.177576 1.85186,-3.571251 3.71498,-3.559962 4.30972,-3.548695 z m 6.13623,7.255221 c 8.11773,41.733018 7.62727,85.960571 39.75714,164.502687 1.30785,3.19636 2.18727,6.71432 2.60725,10.22327 C 368.47867,102.48641 362.99639,45.543918 357.71423,-9.5495309 l -0.71592,-7.3792501 c 0.82022,1.181025 1.59253,2.728466 2.33666,4.538044 z m 51.97319,164.147267 c 3.15126,-44.07535 6.12495,-85.706888 4.62541,-114.040006 -0.84841,-16.018439 -2.36484,-33.637845 -3.9743,-52.291712 -3.13434,-36.414235 -6.5731,-76.309495 -3.94894,-100.817712 0.74131,16.455323 2.57345,36.005523 4.63106,57.881114 4.41966,46.930627 9.91604,105.338815 6.11647,158.180166 -0.77795,10.82645 -3.58532,48.35095 -4.18006,56.68571 -1.15565,-1.34422 -2.27746,-2.7372 -3.36829,-4.17726 0.0339,-0.47353 0.0676,-0.94707 0.0987,-1.4203 z m 6.68586,-290.1863 c 0.0619,31.30117 3.39649,75.151012 6.0911,110.539242 0.451,5.907911 2.60728,35.295214 2.92015,42.268577 0.11838,2.584694 0.16341,6.429347 0.13804,11.745341 -0.0649,12.889708 -2.73127,119.03775 -3.12871,153.04993 -0.86251,-6.61822 -3.29782,-13.32042 -6.62667,-18.22545 0.65676,-9.37203 3.63888,-49.23036 4.41683,-60.05964 3.81648,-53.095025 -1.694,-111.64132 -6.12212,-158.687519 -2.65799,-28.273948 -4.95801,-52.700411 -4.97492,-71.385291 1.27121,-3.80237 3.42748,-8.18819 7.28624,-9.24519 z m 6.23205,0.81741 c 6.3617,27.53546 1.78985,44.951923 2.11399,99.025032 -2.51988,-33.296794 -5.24834,-71.822192 -5.29343,-100.017202 1.34731,0.14946 2.18728,0.42562 3.17944,0.99217 z m 0.38616,412.51005 c 0.0254,0.0148 0.0565,0.0169 0.0818,0.0306 0.21985,6.22982 0.86814,19.15024 0.90196,19.71737 -0.85123,1.04488 -1.73064,2.06551 -2.64108,3.05767 -0.72721,-8.30065 -1.35576,-16.61259 -1.94487,-24.933 z M 381.80528,129.46037 c 0.16066,0.1334 0.3636,0.24553 0.58347,0.305 0.13529,0.0397 0.26496,0.0288 0.40025,0.0288 4.91293,12.18393 10.77572,24.4882 17.85337,36.92664 0.41716,0.73539 0.86532,1.47079 1.29095,2.20758 -0.0507,0.99753 -0.1465,1.97842 -0.28751,2.93083 -3.3091,-3.96584 -6.27715,-8.27528 -8.97461,-12.75441 -3.81081,-6.34761 -7.12838,-13.03065 -10.15279,-19.84954 -2.02662,-4.58567 -3.88411,-9.24745 -5.67678,-13.93797 z m 34.57646,164.14812 c -2.67771,-33.54849 -2.73973,-61.94306 -1.40932,-92.00376 3.0836,-0.99188 5.10741,-3.02442 6.39272,-5.03721 1.2571,-1.97644 2.07452,-4.34356 2.5396,-6.92544 -0.25368,28.72154 -0.14101,57.13951 0.68774,82.33886 l -3.61632,0.33796 c -1.15846,-16.41304 -2.09991,-32.84833 -2.8412,-49.29547 0.15792,25.02092 0.71311,50.04212 1.92796,75.06644 -1.2684,-1.49417 -2.50016,-2.98833 -3.68118,-4.48138 z m 10.46568,-71.43969 4.50702,-3.38238 c 0.31007,22.74091 0.29032,45.49058 -0.28469,68.20049 -0.83431,1.33659 -1.7081,2.64135 -2.61851,3.91201 -1.07955,-20.48036 -1.53336,-44.05475 -1.60382,-68.73012 z m 2.19855,-139.920339 c 0.3495,-13.932619 0.67367,-26.706755 0.88788,-37.496572 1.49951,20.48598 3.57968,43.830101 6.41807,70.567871 -0.33259,4.78324 -0.53553,11.47164 -0.64264,19.4741 -1.27968,2.61824 -2.65518,5.27398 -4.21389,8.00441 -1.7053,2.98834 -3.08081,6.47191 -4.03633,10.11643 0.43971,-24.93074 1.04572,-49.14863 1.58691,-70.666239 z m 23.5978,-16.351027 c 4.11805,25.083216 -1.14156,62.438866 -17.47568,88.661106 -1.79831,0.22466 -3.46976,0.16637 -4.9552,-0.13529 0.87378,-3.59379 2.27466,-7.20196 3.93484,-10.1108 16.19882,-28.33313 16.91758,-50.84011 17.39392,-65.733872 0.18033,-5.645783 0.36926,-9.761006 1.10212,-12.681144 z m 1.49106,-7.576547 c 0.009,-0.04799 0.0592,-0.09872 0.0761,-0.14946 -0.007,0.05348 -0.0169,0.160664 -0.0281,0.214211 l -0.0619,0.03382 c 0,0 0.009,-0.04799 0.0148,-0.09872 z m 0.29031,-0.569362 z m 4.43939,2.294379 c 6.29688,21.768473 4.06169,56.150446 -4.77479,82.764476 -1.31067,1.54718 -2.63827,2.92239 -3.97714,4.14005 0.91608,-2.52807 1.7363,-5.07923 2.48889,-7.64335 1.43187,-4.9304 2.62981,-9.90843 3.60505,-14.92028 0.98654,-5.01382 1.80393,-10.04794 2.44097,-15.1046 0.58062,-5.05667 1.21482,-10.13308 1.04853,-15.22639 -0.13804,5.08204 -1.07391,10.09643 -1.95332,15.08826 -0.93581,4.98339 -2.04919,9.93295 -3.3232,14.83206 -1.26277,4.90193 -2.74257,9.74098 -4.43376,14.48197 -1.56717,4.35228 -3.32882,8.62566 -5.43435,12.66731 -1.80958,1.09028 -3.59098,1.91051 -5.30755,2.4886 16.32567,-28.08198 20.96517,-67.168569 15.6971,-92.006563 0.87096,-0.752582 2.12809,-1.355766 3.92357,-1.561543 z m 10.95331,39.323066 c -0.17483,3.97995 -0.49045,8.02472 -0.933,12.0695 -2.45784,9.71027 -5.70212,17.47595 -9.32693,23.60653 6.60695,-24.95668 7.9317,-54.279143 2.66928,-74.24087 7.89224,5.051025 8.0078,29.15053 7.59065,38.56484 z m 22.9213,-34.832946 c 1.7222,-8.988695 3.09207,-15.657621 4.98621,-20.099838 -0.80051,18.952659 -5.77543,61.832854 -32.59495,100.499184 1.21485,-3.80292 2.29721,-7.81613 3.24709,-11.94828 16.10581,-25.66951 20.97926,-50.831642 24.36165,-68.451066 z M 506.37581,37.76726 c 1.16409,33.198128 -14.25959,92.11368 -35.06691,124.36191 -3.43876,2.34202 -6.98182,4.07831 -10.51077,5.0705 0.41153,-0.40535 0.8315,-0.80277 1.22893,-1.21993 2.26058,-2.38177 4.24772,-4.95577 6.09394,-7.59403 3.72909,-5.24523 6.96772,-10.75261 9.93012,-16.38991 2.96523,-5.63196 5.56686,-11.4443 7.8838,-17.34572 2.30283,-5.90848 4.30971,-11.93195 5.84306,-18.06817 -1.92514,6.02349 -4.30408,11.87783 -6.9649,17.58587 -2.67772,5.69906 -5.61476,11.27465 -8.89286,16.63008 -3.26682,5.35207 -6.79861,10.54686 -10.71372,15.36393 -1.93923,2.42659 -3.99684,4.72999 -6.21514,6.80198 -1.13309,1.05926 -2.35076,2.0689 -3.57123,2.9565 2.12245,-3.03907 4.07578,-6.64047 5.84308,-10.6658 35.90404,-45.17741 39.46965,-99.053198 39.64439,-115.65791 1.47416,-1.316319 3.23864,-1.950517 5.46821,-1.8293 z m 8.40804,15.739369 c -2.60444,25.300258 -11.71151,51.138871 -17.91536,71.714771 -3.6981,12.27553 -10.45442,23.2232 -18.39739,30.99988 18.72997,-33.37601 31.76343,-85.413744 30.99394,-117.360388 3.83337,2.759457 4.91856,9.930118 5.31881,14.645737 z m 0.31006,-12.227331 c 0.0281,-0.06489 0.0761,-0.115635 0.0958,-0.186032 l 1.96743,-6.722494 -3.68681,4.168792 c -2.19009,-2.883485 -4.87347,-3.996861 -8.25586,-3.807998 l -1.38113,-4.433761 -1.52772,4.901652 -0.007,0.03953 c -7.55683,2.511423 -9.60879,13.346331 -12.55993,28.722094 -3.18509,16.584992 -7.26368,37.789719 -19.56147,60.073459 1.42622,-8.11717 2.33666,-16.48294 2.69181,-24.53303 0.35515,-8.05008 0.46224,-25.508816 -4.30408,-35.41359 0.0281,-0.04502 0.0676,-0.07611 0.093,-0.126839 l 2.54525,-5.49638 -4.15188,3.010324 c -2.61854,-3.779817 -5.82617,-5.341339 -10.37548,-4.112412 -0.66521,-1.471338 -1.95614,-3.681158 -2.78482,-5.065125 0.0619,1.045728 0.40588,4.27872 0.32132,5.786694 -0.0592,0.115635 -0.10146,0.228311 -0.13254,0.355151 -5.03976,3.030069 -5.27936,10.152807 -5.59223,20.040648 l -0.002,0.0676 c -2.86939,-20.254859 -5.71905,-38.841078 -8.10928,-54.39725 -3.41621,-22.244821 -5.88535,-38.316806 -6.35605,-45.501568 -0.50736,-7.745668 -0.35234,-16.807633 0.0592,-26.579922 l 4.73815,-3.861565 -4.60849,0.9358 c 0.21985,-4.738154 0.47917,-9.60598 0.74977,-14.580902 1.47979,-27.042188 5.34979,-71.303564 -11.88629,-75.858494 l 1.02318,-6.39836 c -1.98997,2.95678 -3.74318,5.43155 -4.02224,5.98964 -0.17186,0 -0.32978,-0.0365 -0.50451,-0.0311 l -2.50862,-3.60789 v 4.02223 c -16.91475,4.92419 -13.15468,57.810625 -12.04694,76.622344 l -2.61007,-1.961785 2.48887,5.569672 c 0.0788,0.180324 0.2255,0.324138 0.37206,0.46789 0.94707,14.885316 6.77042,82.533067 7.61883,98.50077 0.4848,9.19445 0.49044,19.840514 0.17483,31.515388 l -5.10459,1.45443 5.01721,1.426224 c -0.70748,22.819857 -2.57625,49.402877 -4.5493,77.040077 -14.54146,-21.37132 -23.13837,-51.51994 -29.18155,-80.30969 l 4.44501,-3.058247 -4.97212,0.513003 c -2.46911,-12.018764 -4.51546,-23.74436 -6.37297,-34.435537 -0.26213,-1.516432 -0.52426,-3.01595 -0.78359,-4.492933 l 3.25274,-4.566222 -3.75726,1.694005 C 367.4329,4.08147 364.27037,-11.917224 359.43637,-18.777826 l -0.0395,-0.05645 c -1.80113,-2.542435 -3.87564,-3.844655 -6.17002,-3.867189 h -0.0649 c -2.84401,0 -5.19477,1.747552 -6.98463,5.194777 -5.03975,9.6877281 -5.53865,34.345332 -2.35357,63.808741 l -4.20826,1.206392 4.52394,1.648913 c 3.57688,31.134883 11.16189,67.171389 21.77977,96.504869 l -2.46915,4.61442 3.45285,-1.93671 c 5.40056,14.45097 11.54521,27.14366 18.32409,36.61152 6.32506,8.83369 12.90662,14.31908 19.56428,16.31185 0.0395,0.0111 0.0676,0.0148 0.10712,0.0254 -1.5559,25.92292 -2.54806,50.73047 -2.09143,72.13448 -6.69149,-11.81298 -11.29718,-23.35199 -14.83459,-33.95605 l 1.40086,-5.01412 -2.28309,2.3254 c -1.92234,-5.95864 -3.53178,-11.60694 -5.00312,-16.78735 -3.87003,-13.62539 -6.66614,-23.46869 -12.22453,-26.99767 -0.14946,-0.0989 -0.31286,-0.16066 -0.47071,-0.24746 l 0.26496,-4.12455 -2.72565,3.18536 c -0.9076,-0.19722 -1.85748,-0.2655 -2.84966,-0.18074 -2.28311,0.1947 -5.38362,1.42905 -7.17912,6.20979 -0.73284,1.94994 -1.17538,4.36356 -1.40086,7.10274 l -5.34417,-1.13621 5.20324,3.98361 c -0.3608,16.28873 6.30815,42.67389 16.07197,67.77092 l -4.72125,1.1596 5.73314,1.40595 c 9.00562,22.5746 20.40426,43.74526 31.28427,55.05398 6.25177,6.50294 12.97146,10.78361 21.83332,8.92387 6.61821,0.87997 14.63446,-1.78139 20.81859,-9.22884 13.32941,-16.06861 17.54049,-52.22886 16.9232,-95.60855 l 4.64233,-4.94701 -4.68742,2.03816 c -0.28469,-15.00397 -1.14156,-30.83581 -2.37332,-46.95599 0.87943,-0.0727 1.78141,-0.18287 2.72283,-0.34133 7.13402,-1.19455 14.47945,-7.37248 21.82769,-18.36298 9.89911,-14.79795 18.88217,-37.42669 24.90844,-59.87672 l 5.16098,-3.34575 -4.36328,0.33824 c 4.05887,-15.79855 10.93638,-49.712638 3.95176,-64.530307"
         style="fill:#3c2334;fill-opacity:1;fill-rule:nonzero;stroke:none;stroke-width:0.281865" />
    </g>
  </g>
</svg>
