<?xml version="1.0" encoding="UTF-8" standalone="no"?>
<!-- Created with Inkscape (http://www.inkscape.org/) -->

<svg
   version="1.1"
   id="svg1"
   width="600"
   height="525.33331"
   viewBox="0 0 600 525.33331"
   xmlns="http://www.w3.org/2000/svg"
   xmlns:svg="http://www.w3.org/2000/svg">
  <defs
     id="defs1" />
  <g
     id="g1">
    <g
       id="group-R5"
       transform="translate(-113.92276,162.0453)">
      <path
         id="path3607"
         d="m 295.88911,79.451623 c -6.00297,3.917191 -8.60655,14.241406 -6.58411,21.303107 1.76543,-8.623213 2.11745,-13.259461 6.58411,-21.303107 z m 43.80233,22.011417 c 4.10179,2.26448 9.06965,3.32695 13.56797,2.33422 -20.03244,-1.60445 -28.77099,-31.085376 -47.68623,-18.335698 14.26181,-5.940189 20.81428,9.014914 34.11826,16.001478 z m 15.63875,-27.656489 c -9.83057,6.267511 -18.53371,-6.664595 -34.56474,-0.638563 18.57774,1.336135 28.81555,10.077396 34.56474,0.638563 z M 268.97314,176.19029 h -65.04426 c 0.26602,1.94248 0.61816,3.72401 1.01043,5.32307 h 63.12001 c 0.16944,-1.78148 0.47168,-3.55767 0.91382,-5.32307 z m 7.5355,-15.14293 h -72.67848 c -0.22015,1.84593 -0.34974,3.62206 -0.4062,5.31772 h 69.53184 c 1.0351,-1.80298 2.21134,-3.57913 3.55284,-5.31772 z m -76.67778,27.03941 c -2.9449,-8.41394 -6.09955,-24.6086 1.64363,-45.65413 -6.93615,14.57411 -11.0948,29.87802 -11.0948,42.69209 0,28.32185 21.65295,48.05809 41.08549,48.05809 6.7435,0 13.13012,-2.29667 18.71241,-6.68605 -23.61265,-2.75817 -42.96632,-17.30543 -50.34673,-38.41 z m 4.25956,-1.48642 c 7.47054,21.34605 28.33687,35.41577 53.15905,35.85041 0.60581,0.012 1.10916,0.34329 1.35437,0.89078 0.24509,0.56344 0.15092,1.16977 -0.25797,1.63126 -0.40675,0.46685 -0.84675,0.93904 -1.31417,1.41663 -10.9499,11.2107 -25.46553,14.27308 -39.84055,8.41394 -15.59316,-6.35339 -31.32633,-24.1793 -31.32633,-49.67864 0,-35.28698 30.45221,-88.748677 64.69224,-98.402165 -57.0081,47.065405 -51.48485,85.529055 -46.46652,99.877785 z m 65.79656,-13.80674 c 0.50495,-1.40593 1.1129,-2.79572 1.79868,-4.1748 h -68.29124 c 0.008,1.87812 0.10467,3.65426 0.26602,5.32311 h 65.91838 c 0.12114,-0.38113 0.17185,-0.77271 0.30788,-1.14831 z m 297.05071,-90.288746 -20.10645,-2.457605 -0.69761,5.70942 20.10649,2.463007 z m 66.49043,-35.764519 h -130.6643 c -0.5908,-6.396323 -3.45839,-12.481395 -8.55613,-16.377132 -0.42981,-0.321961 -1.03776,-0.0161 -1.00396,0.515138 0.0648,0.890787 -0.14649,1.851279 -0.88861,2.924496 -5.87153,8.521234 -16.56548,4.920654 -27.06947,31.407337 -8.94783,-8.462236 -3.73528,-19.89721 -3.03501,-23.138282 0.53015,-2.436195 -1.43382,-4.115755 -3.58612,-3.225002 -1.40268,0.574173 -2.22636,2.060553 -2.22636,3.589869 0.012,4.206991 1.2535,11.724783 2.64116,16.275146 1.62429,5.290914 10.02375,20.310418 28.29506,13.68876 10.58339,-3.842091 15.64998,-13.790695 15.53246,-23.492482 l 19.87094,2.929843 h 106.80531 v 6.047526 h -65.75523 l 42.04278,6.197761 h 23.75004 v 6.643152 h -4.9314 c -0.0121,0.735117 -0.0282,1.459524 -0.0535,2.157138 h 4.98506 v 3.493284 h -5.15139 c -0.0161,0.230599 -0.0592,0.429258 -0.0753,0.654624 -0.043,0.627831 -0.0805,1.266395 -0.14489,1.862021 h 9.21884 z m -16.64006,25.375914 c -8.94517,-2.41471 -18.01909,-4.314287 -27.10379,-6.101165 -9.09003,-1.781538 -18.22837,-3.273267 -27.36133,-4.791874 -18.31426,-2.699084 -36.68215,-5.285522 -55.1992,-6.224563 z m -96.6308,8.00609 c 4.71622,6.509022 7.71581,7.888063 14.37931,5.897294 0.14047,1.421978 1.08824,3.428883 1.803,4.770378 0.4486,0.847848 1.48371,1.18051 2.34121,0.761963 1.19501,-0.579534 2.84345,-1.523925 4.02935,-2.742022 6.33189,5.446498 17.55225,7.270974 26.20762,3.568416 0.0696,0.627822 1.06248,1.743941 1.42203,2.527398 0.59563,1.30929 2.22153,1.776136 3.41814,0.981978 1.42737,-0.949783 2.97814,-2.720568 6.27824,-4.936757 5.09775,5.183587 8.20467,3.820596 14.60096,0.558081 0.82635,-0.418547 1.15371,-2.243023 0.57417,-2.96743 -4.44846,-5.537744 -5.57532,-6.911424 -12.77651,-4.759636 -1.42198,-2.795712 -2.8762,-5.044096 -3.85818,-6.380231 -0.74587,-1.008792 -2.20544,-1.18587 -3.3001,-0.563431 -0.9498,0.531236 -2.2108,1.336135 -3.67572,2.484492 -5.01725,-6.154854 -17.1659,-8.108079 -26.88378,-3.729403 -0.74051,-2.280568 -2.61323,-4.201598 -4.66948,-2.935203 -1.05443,0.654635 -2.55316,1.851279 -4.55685,4.067426 -4.1168,-4.598661 -7.78503,-3.085437 -14.36914,0.02812 -1.2637,0.600987 -1.7858,2.237631 -0.96427,3.369853 z m 76.41163,29.518521 c -14.09656,-2.34498 -28.28431,-4.19086 -42.53646,-5.39286 -14.25536,-1.17516 -28.55101,-1.76004 -42.85255,-2.04446 -14.29934,-0.10745 -28.6057,0.13402 -42.8863,0.89615 -14.27847,0.73512 -28.52151,2.0498 -42.71036,3.724 14.26398,-0.8532 28.52417,-1.56151 42.78385,-1.9908 14.26185,-0.39722 28.52578,-0.67073 42.78331,-0.3755 14.26398,0.10746 28.51561,0.71368 42.75862,1.51858 14.23069,0.89613 28.45065,2.14644 42.65989,3.665 z m -185.33549,8.84319 c -2.9218,-0.11269 -5.39125,-1.92638 -6.46442,-4.46452 -6.91469,0.70832 -13.63507,1.51322 -20.07647,2.43616 l 0.53876,2.92985 c 0.28695,-0.19841 0.5704,-0.40245 0.85963,-0.59563 1.63666,-1.11612 3.9553,-0.0857 4.08944,1.88887 l 0.004,0.0753 c 0.0713,1.40593 -0.64928,2.72058 -1.80029,3.53622 -16.07715,11.26866 -19.85,23.93783 -19.16475,37.27774 0.0858,1.65811 -1.95539,2.47375 -3.08979,1.24494 -7.26719,-7.83975 -4.49188,-18.40544 2.87407,-28.14478 -1.80889,-4.5021 -7.44966,-10.2813 -13.68122,-12.89455 -4.95552,1.10537 -9.72808,2.29128 -14.29992,3.55229 -3.24485,32.44835 31.30966,54.57245 69.05642,54.57245 34.12847,0 46.35335,-17.72932 46.35335,-30.13019 0,-26.44378 -30.93676,-30.72587 -45.20073,-31.28395 z m -75.21876,8.26906 c -5.04727,1.50786 -9.79515,3.13376 -14.33695,4.84552 3.05381,0.78345 6.12263,1.98006 8.4075,3.01568 1.87382,0.8532 4.0535,-0.22536 4.49402,-2.24298 0.36221,-1.71713 0.85912,-3.73475 1.43543,-5.61822 z m -12.90957,-1.50787 c 8.58349,-3.10693 17.43743,-5.4143 26.34771,-7.4695 8.91512,-2.09275 17.97242,-3.49329 27.03777,-5.02795 -9.16839,0.60097 -18.33676,1.5776 -27.38765,3.32695 -9.05517,1.71709 -17.99926,4.06741 -26.74856,7.04555 -8.67952,3.14452 -17.18361,6.91683 -25.0443,11.81064 -7.86016,4.85626 -15.16277,10.73741 -20.98169,17.8796 13.06897,-12.98043 29.60113,-21.58216 46.77672,-27.56529 z m 140.80553,-87.348144 1.80459,5.532384 1.26422,0.187947 -0.59937,-1.159056 16.7098,-8.709055 -2.12334,-3.976228 c -3.46269,2.264436 -8.09894,4.931361 -13.19075,6.884585 -1.25779,0.48833 -2.56552,0.86394 -3.86515,1.23955 z m 10.06773,-21.426528 c 2.62024,3.638164 4.54235,7.442702 5.71804,10.082785 1.35815,-0.906885 2.51721,-1.738592 3.39561,-2.387907 -1.05013,-2.403965 -3.00978,-6.34264 -5.79584,-9.71249 -0.96588,0.681472 -2.07504,1.352238 -3.31781,2.017612 z M 266.44951,70.924996 c 8.93766,-2.988883 18.47899,-5.129928 26.11751,-5.596774 4.21931,-0.257571 7.9589,-2.860059 9.73395,-6.69679 1.01901,-2.200043 2.24947,-4.22305 3.14826,-5.602134 0.38595,-0.584883 -0.19921,-1.330743 -0.86125,-1.100016 -14.62027,5.09234 -27.52609,10.930583 -38.90582,17.273226 -1.00613,0.558081 -0.32478,2.092748 0.76735,1.722488 z M 639.07315,30.170037 v 51.540669 c 0,1.556162 -1.26635,2.817165 -2.82252,2.817165 h -13.00188 c -2.94056,13.957032 -10.88765,23.771499 -24.36709,29.851179 -0.49905,0.22538 -1.05177,0.30064 -1.58836,0.22014 -0.57417,-0.0913 -58.39467,-8.75735 -162.52073,-2.98889 -3.10854,0.17185 -6.05345,0.41856 -9.08201,0.62783 21.02999,4.55041 36.6671,18.3357 36.6671,37.75537 0,23.97538 -21.44316,38.93049 -49.65664,38.93049 -28.21617,0 -53.61249,-11.56381 -67.43373,-29.06242 -11.80955,-14.93896 -17.95957,-28.15013 -44.4543,-18.722 -9.44526,5.3177 -16.96576,11.25789 -22.46809,17.65418 h -74.19601 c 2.81286,-18.17472 14.3332,-42.65989 47.84561,-70.327086 0.8575,-0.713707 1.08983,-1.904959 0.56826,-2.892298 -0.5221,-0.992731 -1.58027,-1.454173 -2.64331,-1.148314 -16.46885,4.705988 -33.48289,19.559158 -46.67204,40.749578 -12.29946,19.75233 -19.63804,42.16084 -19.63804,59.94921 0,22.98805 13.15321,43.78676 32.73059,51.76657 5.08487,2.07557 10.18686,3.09618 15.1633,3.09618 9.95022,0 19.39069,-4.08943 27.13813,-12.01507 0.49904,-0.50975 0.96215,-1.01418 1.40001,-1.50248 0.98951,-1.12686 1.22828,-2.67228 0.62891,-4.03526 -0.60155,-1.35759 -1.89691,-2.21614 -3.38277,-2.23763 -23.86643,-0.41855 -43.91175,-13.89263 -51.06734,-34.34254 -0.22257,-0.64393 -0.44488,-1.35224 -0.66486,-2.0874 h 62.28557 c -0.34771,11.78379 5.11919,23.76075 15.75249,33.55378 0.94552,0.88 1.18216,2.27518 0.57418,3.40739 -0.60798,1.13762 -15.28886,27.82391 -49.69636,27.82391 -35.07609,0 -56.60939,-36.04462 -56.60939,-61.88203 0,-22.97734 11.79075,-61.03854 45.022,-92.708801 C 243.75929,74.0696 270.95376,58.368627 303.70742,47.29315 334.83464,36.765011 371.2313,30.384825 412.20198,28.200839 c -1.1655,4.909913 -1.73376,10.549592 -1.82391,17.144447 -27.84858,2.522047 -57.08106,7.786117 -83.92782,17.740072 -42.90727,15.915638 -65.42365,28.702861 -91.72951,56.015942 -0.17184,0.15575 -0.3288,0.32196 -0.4883,0.49904 -2.09814,2.25373 -3.37471,5.29087 -3.37471,8.60708 0,7.02415 5.67835,12.69603 12.68745,12.69603 1.97467,0 3.83617,-0.45076 5.50659,-1.25031 0.42981,-0.2467 1.3458,-0.75661 1.3458,-0.75661 34.64413,-19.28009 73.3573,-22.85926 111.60688,-29.72774 26.62243,-4.77043 43.74756,-9.37983 66.97442,-19.66114 9.59175,2.586438 25.58088,6.095815 40.00423,5.462643 28.36694,-1.23956 34.84375,-20.551886 36.20831,-31.428832 -5.38908,10.689114 -16.33525,16.157107 -26.57471,16.157107 -15.05382,0 -22.91881,-12.642339 -24.97293,-19.333779 -1.48154,-4.861625 -2.71196,-12.234534 -2.8692,-17.004923 -3.65374,0.02009 -7.42656,0.128791 -11.20373,0.236246 0.55111,-3.428894 1.12151,-6.965073 1.75416,-10.356415 0.40676,-2.151789 1.22616,-4.137204 2.37073,-5.886541 0.3461,0 10.65905,-0.01207 10.65905,-0.01207 -3.28292,-2.216181 -6.84598,-2.704476 -9.90462,-1.051767 2.05468,-2.640084 4.91583,-4.614754 8.2798,-5.575286 13.37106,-3.820595 21.23336,-7.254877 24.76367,-10.8125513 l 0.0918,-0.1018191 c 6.32655,5.9992284 9.60251,15.4755994 9.60251,15.4755994 0,0 -1.04585,0.853198 -2.7147,2.065946 h 121.50772 c 2.03906,-2.200083 5.40896,-2.924497 8.27976,-1.416631 l 2.70447,1.416631 h 19.2855 c 1.55616,0 2.82251,1.266355 2.82251,2.827868 z M 432.07291,88.198233 c 5.06228,-1.169809 9.69265,-3.428893 14.27682,-5.682616 3.46487,-1.98542 9.12226,-5.065549 12.66867,-8.709066 -0.46311,0.225377 -14.61597,7.152904 -13.72092,6.712903 -4.43558,2.48445 -8.92746,4.807967 -13.22457,7.678779 z m -39.99782,2.130293 -0.13201,-0.311093 c -7.05739,2.41471 -14.40024,4.105013 -21.67175,3.788401 -8.92746,-0.150117 -16.79189,-3.842049 -24.43417,-8.290508 11.39421,0.692222 24.90154,-9.132963 22.12036,-19.172803 -0.68956,-3.117632 -3.48363,-5.77381 -6.65925,-5.934796 -6.09151,-0.686862 -12.14277,5.09234 -10.29633,10.318864 -0.23462,-5.51093 5.76846,-8.531976 9.91267,-7.700274 4.46022,0.826395 5.09769,6.444622 2.71196,10.329618 -3.23836,5.537734 -11.93293,10.871543 -20.70534,10.474491 -11.8299,-7.008052 -22.46808,-11.665753 -36.31668,-5.006508 -12.87632,6.315798 -13.56424,19.585969 -17.60111,29.588272 -0.0528,-5.74168 -3.96978,-10.377913 -8.38014,-12.073566 -3.21317,-1.271745 -6.77458,-1.132254 -9.79728,0.04303 3.23841,-0.257571 6.41617,0.128781 9.08471,1.54006 6.25032,3.246456 9.02779,10.791066 5.49587,16.865436 -0.46522,0.56343 -0.94978,1.10002 -1.49659,1.56686 -2.58857,2.21618 -6.05983,3.03718 -9.61485,3.54157 -15.48635,1.79224 -24.45724,-8.05978 -32.4478,-4.486 l 0.1155,0.31673 c 7.85207,-1.85663 17.97403,9.51396 32.74131,7.1207 3.75407,-0.59024 7.92725,-1.71175 10.8179,-4.78649 3.94242,-4.04596 5.18576,-10.07738 7.14755,-17.21958 6.24874,-9.48712 17.24263,-7.786074 16.71249,-0.65462 -0.1976,2.62398 -2.26178,5.46795 -5.40412,5.64503 7.32192,1.92106 10.90214,-11.311558 1.74825,-13.516994 -4.17314,-0.906888 -9.08254,0.863898 -12.13204,5.446498 2.6578,-7.850507 6.29862,-13.618967 14.05415,-16.645406 24.83075,-10.281309 35.54562,15.942442 62.61505,15.207325 7.74265,-0.2306 15.09786,-2.672281 21.8118,-5.993879 z m 94.48175,-46.636115 c -6.5208,3.740156 -12.50498,11.756989 -16.9239,22.703675 8.68865,6.900682 26.05686,2.087366 28.4925,-13.742398 0.0608,-0.413197 0.0902,-0.821002 0.132,-1.23955 -0.68739,0.160976 -1.40001,0.246703 -2.13621,0.246703 -4.77256,0 -8.7343,-3.434244 -9.56439,-7.968546 z m -71.03705,7.73247 c 8.84376,-43.4486928 35.36372,-37.803662 50.41164,-44.5755576 -8.08872,-2.6347308 -23.88954,-5.0816376 -33.66964,-3.015732 -9.78067,2.0712979 -12.6021,-31.5951224 -8.08928,-39.6870994 -7.71368,11.381337 -5.07843,34.2352463 1.69404,49.662551 -7.90037,5.827502 -10.72184,24.640794 -10.34676,37.615838 z m 4.23432,18.432294 c 0,-0.520525 -0.0323,-1.008824 -0.10266,-1.507864 l -24.06128,6.927527 c 2.03106,4.303576 6.39952,7.276324 11.46558,7.276324 7.00909,0 12.69816,-5.682617 12.69816,-12.695987 z m -25.29381,1.513224 24.06126,-6.927569 c -2.02892,-4.303534 -6.39737,-7.281685 -11.46561,-7.281685 -7.00962,0 -12.69598,5.687978 -12.69598,12.69603 0,0.525843 0.0439,1.014184 0.10023,1.513224 z m 27.17837,-58.135533 c -9.59393,-28.584783 -3.57808,-44.19456 2.62829,-55.479308 6.78534,4.877716 6.03677,18.072782 6.07272,28.010644 0.0241,5.1835797 4.03901,9.4603142 9.21022,9.8198234 13.12585,0.9229432 29.04737,3.46643861 37.95391,9.755432 -0.0773,1.0141787 -0.66433,2.0069066 -1.6243,2.9834957 -3.97247,4.0084199 -14.48182,7.5607409 -23.76988,10.2222759 -6.68014,1.899572 -11.71509,7.442702 -13.00242,14.273636 -3.97405,21.254812 -4.90883,49.115218 -24.23886,56.091033 -0.0693,0.02823 -0.10948,0.03225 -0.17668,0.06439 -2.37072,0.949793 -4.9405,1.481029 -7.63588,1.481029 -11.35236,0 -20.59639,-9.245651 -20.59639,-20.600142 0,-11.349141 9.24403,-20.594825 20.59639,-20.594825 1.92855,0 3.80453,0.284534 5.57585,0.7942 -0.3272,-15.963936 1.7375,-27.382822 9.00687,-36.821684 z M 367.54001,84.76399 c 0,3.203517 2.60145,5.806015 5.798,5.806015 3.1987,0 5.80388,-2.602498 5.80388,-5.806015 0,-3.192806 -2.60518,-5.800697 -5.80388,-5.800697 -3.19655,0 -5.798,2.607891 -5.798,5.800697 z m -1.12739,0 c 0,-3.820638 3.10854,-6.927559 6.92539,-6.927559 3.8233,0 6.92971,3.106921 6.92971,6.927559 0,3.820596 -3.10641,6.927527 -6.92971,6.927527 -3.81685,0 -6.92539,-3.106931 -6.92539,-6.927527 z m -47.71359,14.375579 c -3.20086,0 -5.80444,2.602501 -5.80444,5.795301 0,3.20352 2.60358,5.80602 5.80444,5.80602 3.19651,0 5.79957,-2.6025 5.79957,-5.80602 0,-3.1928 -2.60306,-5.795301 -5.79957,-5.795301 z m 0,-1.126861 c 3.81898,0 6.92322,3.106922 6.92322,6.922162 0,3.8206 -3.10424,6.93288 -6.92322,6.93288 -3.82329,0 -6.93183,-3.11228 -6.93183,-6.93288 0,-3.81524 3.10854,-6.922162 6.93183,-6.922162 z m -43.97189,17.525412 c 3.19813,0 5.80388,-2.6025 5.80388,-5.80067 0,-3.19816 -2.60575,-5.80066 -5.80388,-5.80066 -7.68038,0 -7.66968,11.60133 0,11.60133 z m 0,-12.72819 c 3.82329,0 6.92967,3.10692 6.92967,6.92752 0,3.8206 -3.10638,6.92753 -6.92967,6.92753 -9.16841,0 -9.16036,-13.85505 0,-13.85505 z m 0,10.82861 c 2.15658,0 3.90483,-1.74394 3.90483,-3.90109 0,-2.15714 -1.74825,-3.90647 -3.90483,-3.90647 -2.15287,0 -3.90112,1.74933 -3.90112,3.90647 0,2.15715 1.74825,3.90109 3.90112,3.90109 z m 40.0665,-8.69832 c 0,2.15179 1.74824,3.90649 3.90108,3.90649 2.15715,0 3.90487,-1.7547 3.90487,-3.90649 0,-2.15178 -1.74772,-3.90108 -3.90487,-3.90108 -2.15284,0 -3.90108,1.7493 -3.90108,3.90108 z m 58.54651,-16.269791 c 2.15501,0 3.90056,-1.749301 3.90056,-3.906439 0,-2.151788 -1.74555,-3.901131 -3.90056,-3.901131 -2.15714,0 -3.9027,1.749343 -3.9027,3.901131 0,2.157138 1.74556,3.906439 3.9027,3.906439 z m 71.14812,-33.34981 c -3.37468,0 -6.11457,2.742022 -6.11457,6.117267 0,3.375204 2.73989,6.111875 6.11457,6.111875 3.37685,0 6.11192,-2.736671 6.11192,-6.111875 0,-3.375245 -2.73507,-6.117267 -6.11192,-6.117267 z m -196.2854,81.445491 c 4.23593,-2.30737 6.06629,-7.30317 4.5445,-11.71404 l -16.84877,9.1652 c 2.87777,3.67571 8.06566,4.85087 12.30427,2.54884 z m 2.99747,-14.55265 -16.8445,9.16515 c -1.5261,-4.41087 0.30425,-9.41197 4.54449,-11.71939 4.23596,-2.29663 9.42381,-1.12687 12.30001,2.55424"
         style="fill:#3c2334;fill-opacity:1;fill-rule:nonzero;stroke:none;stroke-width:0.536602" />
    </g>
  </g>
</svg>
