<?xml version="1.0" encoding="UTF-8" standalone="no"?>
<!-- Created with Inkscape (http://www.inkscape.org/) -->

<svg
   version="1.1"
   id="svg1"
   width="600"
   height="525.33331"
   viewBox="0 0 600 525.33331"
   xmlns="http://www.w3.org/2000/svg"
   xmlns:svg="http://www.w3.org/2000/svg">
  <defs
     id="defs1" />
  <g
     id="g1">
    <g
       id="group-R5"
       transform="translate(-113.92276,162.0453)">
      <path
         id="path3609"
         d="m 361.30397,90.521355 2.06976,-3.238776 -3.75447,-5.071016 -5.3397,2.822572 z m -23.37672,3.157714 12.10623,9.451481 4.84804,-2.56474 5.80776,-9.083314 -7.51081,-5.862461 z M 308.49389,72.141663 c -0.23016,0.666504 -0.47847,1.298148 -0.7217,1.91849 l 1.89633,-0.997905 z m 17.52744,-7.724348 -8.74629,-6.834919 -1.92978,-0.3408 -3.86668,0.293077 c -0.42706,4.996982 -1.27412,9.285534 -2.59959,13.461411 l 1.89067,1.480581 z m 27.27875,19.848957 5.63995,-2.975294 -8.43898,-11.392102 -9.3077,4.921579 z m -13.08811,-10.215101 9.60797,-5.076673 -4.81696,-6.509164 -9.65745,-1.697392 -7.24167,3.827999 z m -6.68735,-13.60377 -13.86301,-2.446886 7.46273,5.831356 z m -15.21113,60.731479 12.10668,9.45714 7.91763,-4.18203 4.0929,-6.41109 -8.8674,-6.91976 z m 26.18702,20.44764 0.0495,-0.0176 z m -16.34337,8.64115 10.5304,8.22497 c 1.50983,-5.51458 3.30903,-10.80806 5.38778,-15.74852 l -0.67782,-0.53216 z m 24.01777,-45.46327 1.46597,-2.29606 -2.62601,1.39008 z m -40.36825,54.10258 12.10623,9.4571 14.12275,-7.46651 c 0.10149,-0.41056 0.20824,-0.82112 0.31288,-1.2265 l -11.29454,-8.81984 z m 23.04347,17.99319 c 0.75514,-5.03944 1.71437,-9.90824 2.85227,-14.54275 l -12.81187,6.77078 z m 2.62602,-48.71152 -6.07836,3.20957 12.12319,9.46608 1.76956,-0.93381 c 0.58919,-1.34386 1.22791,-2.71555 1.91659,-4.09669 l -9.55093,-7.35243 c -0.099,-0.0718 -0.14707,-0.18384 -0.17995,-0.29272 z M 322.75664,83.275928 310.65041,73.824453 307.1481,75.67694 c -1.43436,3.41933 -3.27555,6.91598 -5.72479,10.904236 l 6.08727,4.750462 z m 11.90966,29.263682 8.37954,6.54214 8.51439,-13.31625 -1.64649,-1.2873 z m 51.72546,-52.431106 c 0,-1.924148 -1.55931,-3.483456 -3.48534,-3.483456 -1.92414,0 -3.48579,1.559308 -3.48579,3.483456 0,1.927903 1.56165,3.487668 3.48579,3.487668 1.92603,0 3.48534,-1.559765 3.48534,-3.487668 z m 0.42186,32.401594 c -1.66678,-0.961142 -3.79689,-0.3903 -4.7599,1.277864 -0.96114,1.66441 -0.3903,3.7983 1.27599,4.76132 1.66632,0.96114 3.80067,0.3903 4.76181,-1.27786 0.96302,-1.664412 0.39218,-3.794563 -1.2779,-4.761324 z m -109.78756,83.495392 -12.11375,-9.45714 -5.03944,2.6642 c -0.32066,4.07689 -0.47136,8.33762 -0.46762,12.99995 l 2.37338,1.84824 z M 300.8303,87.5607 c -1.96795,3.148275 -4.37667,6.703812 -7.69652,11.375582 l 13.2757,-7.019201 z M 667.73866,-23.022088 H 560.39232 v 2.813628 h 107.34634 z m 0,6.687839 H 560.39232 v 10.5723752 h 107.34634 z m 0,14.4428052 H 560.39232 v 1.69223502 H 667.73866 Z M 646.48453,-54.246648 c 8.07929,2.32007 8.63549,6.51999 10.97822,14.76902 0.90974,-3.46883 0.45723,-7.25491 -1.34811,-10.58748 -1.03231,-1.57062 -2.43701,-3.0361 -4.21879,-3.76532 -1.76765,-0.75136 -3.6814,-0.85837 -5.41132,-0.41622 z m -91.78165,17.60619 h -146.0464 v 32.1197162 c 2.90933,-5.105905 6.84244,-9.3996152 11.60236,-12.4913622 1.79497,-7.617333 4.58268,-13.472714 8.94143,-13.472714 h 125.50261 z m 0,11.841781 h -17.38557 c -3.01822,0 -5.86483,1.178422 -8.01521,3.321296 -2.1306,2.126828 -3.30902,4.964459 -3.30902,7.98596 0,6.0891752 4.84475,11.0404472 10.87641,11.2799282 0.15308,-0.0036 0.29449,-0.04808 0.44782,-0.04808 h 8.96124 v -0.589226 c 0,-1.568712 1.27078,-2.840956 2.84328,-2.840956 h 5.58105 z m -8.42433,37.761084 V 3.5203692 h -8.96124 c -0.15308,0 -0.2945,-0.04242 -0.44782,-0.04808 -6.03166,0.24146 -10.87641,5.185096 -10.87641,11.2667048 0,6.245681 5.08233,11.322349 11.32423,11.322349 h 12.14865 c -0.23934,-0.480798 -0.53408,-0.924371 -0.74761,-1.414113 -1.61633,-3.689883 -2.4398,-7.631972 -2.4398,-11.684825 z m -2.75424,18.24161 c -7.48678,0.0036 -14.97169,0.196916 -22.45659,1.135993 7.4849,0.937558 14.96981,1.135993 22.45659,1.135993 7.48632,0 14.96935,-0.189492 22.45425,-1.135993 -7.4849,-0.942755 -14.96793,-1.135993 -22.45425,-1.135993 z M 561.24316,12.83892 h 31.65116 V 10.9077 h -31.65116 z m -46.66435,43.786128 c 0.48974,-13.273791 0.36672,-26.551403 0.56752,-39.825195 -0.20256,-13.2742858 -0.0792,-26.5533108 -0.56752,-39.821941 -0.48786,13.2686302 -0.36626,26.5476552 -0.56892,39.821941 0.2008,13.273792 0.0792,26.551404 0.56892,39.825195 z M 545.7025,42.41744 h -28.28036 v 19.831084 c 0,1.564953 -1.27083,2.837172 -2.84333,2.837172 h -54.0988 v 12.981095 c 20.80678,-2.647674 45.48357,-3.874213 79.09089,-3.940178 v -8.252769 c 0,-8.212251 2.15041,-16.319364 6.1316,-23.456404 z M 448.43409,93.217158 V 105.1947 c 0,0 -46.89388,9.46982 -32.08998,42.57048 0.70326,1.55977 -1.34249,2.88903 -2.50959,1.64083 -9.93936,-10.72934 -12.16185,-29.85289 -2.07687,-44.22405 -9.44439,6.71705 -13.85217,19.57463 -10.75718,31.42536 6.94897,23.73403 31.77186,26.3063 42.12504,26.3063 21.65008,0 43.39209,-9.5542 54.08845,-23.78397 6.65435,-8.84387 8.4974,-18.64323 5.43917,-29.23963 -3.7823,-14.34007 -25.9311,-24.752649 -54.21904,-16.672862 z m -37.76673,27.862282 c 1.11057,-6.33054 3.94774,-12.11754 7.50141,-17.70944 -2.47657,2.22065 -4.59965,4.84616 -6.30084,7.77387 -1.6592,2.95172 -2.82065,6.19428 -3.43769,9.53063 -1.22979,6.68028 -0.20258,13.75085 2.91685,19.64629 -1.32033,-6.48134 -1.78649,-12.93864 -0.67973,-19.24135 z m 27.10007,-67.028541 v 5.350544 h 67.9515 v -5.350544 z m 19.18811,-33.905748 c -4.58454,0 -8.31307,3.734215 -8.31307,8.321141 v 1.393822 h 57.07646 V 20.145151 Z M 437.76743,4.3084902 v 2.930998 h 67.9515 v -2.930998 z m 11.32614,-24.2666492 h 56.62536 v -4.846176 h -56.86484 c -0.37191,1.743606 -0.24712,3.224187 0.23934,4.846176 z m -5.93079,-4.846176 h -5.39535 v 8.97443 h 3.14125 c 2.76929,6.9489552 9.52688,11.8837532 17.4445,11.8837532 h 47.36575 v -3.417454 h -47.36387 c -8.98715,0 -16.4815,-7.7078392 -15.19228,-17.4407292 z m 3.36039,69.913799 h -8.75574 v 3.563097 h 67.9515 v -3.417453 h -48.76339 c -7.71681,0 -13.99548,-6.279121 -13.99548,-13.994066 v -2.79475 c 0,-7.726258 6.27867,-14.004923 13.99548,-14.004923 h 48.76339 v -3.408474 h -48.76147 c -9.22664,0 -16.72427,7.230824 -17.30077,16.319333 h -1.88926 v 4.977222 h 1.88926 c 0.11988,1.891129 0.49353,3.704482 1.16947,5.383991 h -3.05873 v 1.988244 h 4.07123 c 1.18412,2.112228 2.76555,3.935017 4.68451,5.387779 z m 8.2707,33.730848 V 65.085696 h -48.98022 c -1.57249,0 -2.84281,-1.272219 -2.84281,-2.837172 V 32.702977 h -14.99198 c -4.52563,10.55778 -15.39875,18.477272 -33.48198,17.981872 12.50076,-2.813172 23.75615,-6.753807 29.82885,-17.981872 h -3.06205 c -1.04735,1.649777 -2.25173,3.247726 -3.83553,4.708045 -9.0772,8.366849 -25.95842,11.324218 -51.42708,9.009314 l 24.96806,4.397446 c 0.71412,0.12305 1.35708,0.522725 1.78794,1.10251 l 24.62911,33.274101 c 0.70332,0.948405 0.74574,2.23005 0.11418,3.220432 l -23.54641,36.833415 4.97484,3.82235 C 376.749,101.74942 407.357,85.726594 454.79394,78.840312 Z M 354.02174,137.48362 c -8.35363,13.7268 -12.23916,29.76285 -14.15199,45.61411 -1.63897,15.9663 -1.34624,32.07352 0.79144,47.90168 -0.26126,-15.95684 -0.41762,-31.88776 1.46785,-47.64572 1.65876,-15.75935 5.26237,-31.33298 11.8927,-45.87007 z m -10.10288,101.64694 c -14.01437,1.36605 -31.79212,1.92745 -43.31482,1.77285 -11.17856,0.12726 -29.55639,-0.50438 -43.2978,-1.99957 13.70655,3.31798 29.25049,4.06372 43.29594,4.26639 7.26193,-0.0754 14.52956,-0.2503 21.7717,-0.87297 7.23223,-0.63165 14.46683,-1.52067 21.54498,-3.1667 z m 14.26416,-133.05961 c -4.00856,6.2273 -7.85682,12.55404 -11.07725,19.28053 4.80046,-5.71352 8.97446,-11.82673 12.98863,-18.04835 4.01234,-6.224 7.86247,-12.548837 11.07726,-19.284263 -4.80566,5.70828 -8.97635,11.830485 -12.98864,18.052083 z m -99.91564,76.41588 c 0,0 0.0212,2.53883 0.0552,3.76533 0.12482,5.26994 0.47322,10.70908 1.06058,16.62479 l 0.22449,2.13626 c 0.49352,4.44834 1.13649,9.13988 1.91896,13.9144 0.57084,3.50227 1.20765,6.96215 1.88737,10.28532 0.0552,0.26338 0.28884,0.45676 0.55762,0.45676 h 69.77758 c 0.16014,0 0.30969,-0.0661 0.41434,-0.17854 0.10884,-0.11417 0.16404,-0.27432 0.15448,-0.42896 -0.20222,-3.14874 -0.35494,-6.37811 -0.46758,-9.87476 -0.0439,-1.22979 -0.0792,-2.46196 -0.10288,-3.68608 -0.12165,-5.87944 -0.0576,-11.6575 0.19338,-17.17209 l 0.0247,-0.41055 c 0.28742,-6.13726 0.79568,-12.02563 1.52112,-17.51097 0.0888,-0.6849 0.32561,-2.38986 0.32561,-2.38986 0.83622,-5.77053 1.93545,-11.35155 3.26659,-16.60311 0.14566,-0.6076 0.3058,-1.22416 0.46054,-1.81901 1.57957,-5.91054 3.51125,-11.567 5.74085,-16.82184 0.3058,-0.73676 0.61889,-1.46784 0.96676,-2.19707 0.66462,-1.52816 1.40138,-3.09313 2.19142,-4.64911 0.12305,-0.23934 0.0534,-0.54115 -0.16404,-0.70706 l -9.51603,-7.31899 25.78399,-40.335726 c 0.12692,-0.198327 0.11773,-0.456265 -0.0212,-0.646245 L 345.78422,61.613226 c -0.0904,-0.11988 -0.2153,-0.199038 -0.36298,-0.223077 -10.24666,-1.517345 -34.79285,-7.300609 -35.03795,-4.429959 -0.41812,5.269483 -1.27412,9.738539 -2.68635,14.080332 -0.47702,1.42309 -0.97054,2.732567 -1.50982,4.004774 -1.47679,3.564517 -3.3769,7.178991 -5.98781,11.375623 -2.27249,3.686097 -5.06536,7.790351 -9.31336,13.706511 l -0.0704,0.0386 c -0.15662,0.088 -0.23016,0.24464 -0.25596,0.40868 -2.12823,2.97009 -19.733,27.36356 -19.733,27.36356 -2.92015,4.49642 -5.37834,9.75692 -7.30248,15.6401 -0.69246,2.08769 -1.31277,4.26592 -1.85628,6.48134 -0.91681,3.72478 -1.65497,7.72579 -2.1928,11.88375 -0.28317,2.07874 -0.51898,4.32673 -0.71978,6.87356 -0.34469,4.2791 -0.50296,8.7477 -0.48787,13.66974 z M 391.24924,-6.2756568 c 3.60691,-1.988244 6.59352,-4.7778312 9.10499,-7.8657962 -3.17611,2.417675 -6.33757,4.7467212 -9.8672,6.2918882 -3.52255,1.498465 -7.30298,2.192795 -11.0626,1.809571 -7.61925,-0.76737 -14.32357,-5.2826362 -21.14009,-9.2893152 5.66023,5.4542372 12.48238,10.7237202 20.92465,11.5580482 4.15041,0.408679 8.42011,-0.552459 12.04025,-2.504396 z m -5.86811,11.978004 c 0.0318,0.716001 0.0696,1.437695 0.11037,2.183392 0.29448,5.6564548 0.63164,12.6275768 -1.49143,19.1329608 h 2.73631 c 1.84117,-5.949178 2.04905,-12.469196 1.67905,-18.7756488 2.34788,7.3543108 2.43035,13.3162148 1.31462,18.7756488 H 402.9709 V -3.0788408 c -5.6805,7.80499 -13.87247,8.781188 -17.58971,8.781188 z m 40.21739,11.0918498 c -0.008,-10.9961498 0.0625,-21.8527968 0.25986,-33.132229 -7.89031,17.06315822 -7.90681,49.191825 -0.25986,66.279057 z m -16.94204,42.607246 h 14.19867 c -1.03136,-2.181514 -1.8987,-4.816465 -2.59631,-7.777627 -4.75992,-3.102557 -8.69303,-7.390652 -11.60236,-12.496519 z m 10.04446,-67.8680568 0.0141,-0.103236 c -6.31918,6.300832 -10.05718,15.67312 -10.05718,25.8721678 0,10.200958 3.738,19.57275 10.05718,25.879243 l -0.0101,-0.09362 c -2.09339,-15.116883 -2.2739,-35.0893328 -0.003,-51.5543548 z M 612.97473,12.83892 c 0,1.570586 1.2727,2.846611 2.84237,2.846611 1.56966,0 2.84236,-1.276025 2.84236,-2.846611 0,-1.568746 -1.2727,-2.837207 -2.84236,-2.837207 -1.56967,0 -2.84237,1.268461 -2.84237,2.837207 z M 673.4234,-35.320138 V 2.6436192 c 0,1.568712 -1.2727,2.846611 -2.84238,2.846611 H 557.55091 c -1.57063,0 -2.84095,-1.277899 -2.84095,-2.846611 v -2.64958998 h -2.74905 V 12.962407 c 0,3.260948 0.66276,6.433264 1.97224,9.417999 0.85977,1.988704 2.06411,3.76013 3.41554,5.430198 V 12.052673 c 0,-2.012284 1.63142,-3.6437118 3.6418,-3.6437118 h 34.42565 v 1.465482 h 2.08819 c 2.5501,-1.999558 7.16955,-3.338229 12.46305,-3.338229 8.0416,0 14.55596,3.084183 14.55596,6.8772968 0,3.800183 -6.51436,6.877295 -14.55596,6.877295 -5.2935,0 -9.91295,-1.338671 -12.46305,-3.336355 h -2.08819 v 1.471138 h -17.37943 c -0.59393,0 -1.07946,0.48034 -1.07946,1.073313 v 0.764116 c 0,0.928118 -0.74994,1.683256 -1.67806,1.683256 h -4.92348 c -0.59298,0 -1.07378,0.476556 -1.07378,1.069529 v 5.514585 c 3.27227,0.760793 5.67294,3.804425 5.41698,7.368947 -0.26692,3.728558 -3.57015,6.518105 -7.30955,6.518105 h -15.08057 c -4.51856,6.801898 -7.05361,15.065513 -7.05361,23.456404 v 11.095599 c 0,1.568709 -1.2727,2.842831 -2.84332,2.842831 -2.21118,0 -4.26446,0.01763 -6.40027,0.02829 v 3.100692 c 0,0 -18.20295,2.942286 -32.4308,5.680498 -2.66985,0.518983 -3.8167,3.743158 -2.01419,5.779485 6.06513,6.872101 8.94335,16.577161 8.94335,24.931281 0,49.82727 -100.26965,72.20845 -115.7641,18.86428 -0.14,-0.55245 -0.27434,-1.10867 -0.3997,-1.65547 -0.0102,-0.0463 -0.0102,-0.0975 -0.0247,-0.15095 -0.0774,-0.55059 -0.16545,-1.07381 -0.2814,-1.5744 -2.73631,-12.88729 -15.57036,-13.91489 -32.75845,1.44335 -13.96296,24.05312 -18.87322,57.29943 -14.88683,101.68937 l -0.0176,0.12691 0.0247,0.12166 c 0,4.06745 -4.90884,6.81648 -15.9163,8.89523 -5.00643,0.9522 -11.01266,1.63143 -17.36295,2.06415 1.04927,11.27049 -2.68682,14.82981 -9.41285,16.23827 -4.23713,0.88761 -9.04467,-1.55412 -11.64239,-6.18862 -9.22518,0.95781 -19.74432,0.46806 -19.97294,-1.81905 -0.29979,-2.9847 4.98099,-5.13369 18.16666,-7.35763 0.0176,-0.18419 0.0736,-0.38323 0.0936,-0.56187 -12.65349,-0.55575 -34.38793,-2.63495 -36.30313,-10.21368 -0.057,-0.13822 -0.13824,-0.25596 -0.17288,-0.41055 -4.43748,-18.8822 -16.89017,-83.36246 9.19175,-119.70992 4.20178,-5.85348 7.94873,-11.00181 11.28508,-15.57929 20.66304,-28.34259 24.96243,-34.238529 24.96243,-55.054286 0,-1.495182 1.15484,-2.734406 2.64249,-2.839545 l 11.11588,-0.782464 c 0.19904,-0.442159 -0.97432,-5.778065 3.21853,-5.278882 15.33984,2.050927 27.86041,2.38985 37.63992,1.111948 7.70551,-12.471065 19.46953,-15.567975 24.95487,-16.323111 1.47683,-5.175657 1.19685,-10.907521 0.92059,-16.2052508 -0.10148,-1.966573 -0.19691,-3.831788 -0.19691,-5.538625 0,-0.08096 0.0424,-0.14141 0.0499,-0.220601 -13.22621,-2.06082298 -22.31281,-18.1110162 -32.27808,-20.8492352 -1.57061,-0.428937 -1.55976,-2.677373 0.0212,-3.063893 3.94774,-0.971987 8.91931,0.753237 18.41459,6.645384 12.86515,7.9765562 25.57,9.4901182 37.14644,-10.878321 v -13.754646 c 0,-1.57062 1.27033,-2.84285 2.84283,-2.84285 h 151.73204 c 1.5725,0 2.84287,1.27223 2.84287,2.84285 v 1.32029 h 71.09691 v -6.83109 c 0,-18.24726 29.99335,-18.26943 29.99335,0 v 6.83109 h 9.10218 c 1.56968,0 2.84238,1.27224 2.84238,2.83721 z M 439.08589,71.288945 c -1.66633,-0.966786 -3.79691,-0.390287 -4.75946,1.272245 -0.96488,1.670067 -0.39408,3.800649 1.276,4.761777 1.66631,0.961142 3.79644,0.3903 4.75757,-1.277889 0.96302,-1.662507 0.39218,-3.794991 -1.27411,-4.756133 z M 260.48047,163.08852 c -0.18631,1.48622 -0.35176,3.06955 -0.4973,4.78581 l 3.94962,-2.09384 z m 205.2341,-89.875427 0.0354,0.339037 c 11.54483,-0.852704 23.11559,-1.018163 34.67315,-1.16382 5.78373,-0.0477 11.56695,-0.05696 17.35069,0.03679 14.40087,0.241459 17.28804,-0.112014 19.05709,-0.14142 0.0176,-0.824884 -0.27258,-6.076442 0.70706,-14.546492 0.54348,-4.288082 1.23215,-8.611494 2.97009,-12.618132 l -0.28882,-0.178538 c -2.65904,3.653153 -3.96801,8.068472 -5.01587,12.386226 -0.89655,3.828012 -1.32739,7.731452 -1.63472,11.639117 -11.05367,0.01408 -22.13986,0.725442 -33.21142,1.201991 -11.5764,0.584035 -23.15282,1.526783 -34.6425,3.045548 z m -185.43463,83.926247 -12.1086,-9.44582 -5.44808,2.87631 c -0.85836,3.52962 -1.55224,7.29683 -2.07546,11.20968 l 4.38799,3.4212 z m 39.21383,-55.00857 -12.1029,-9.445813 -15.24934,8.064693 12.09916,9.44203 z m -38.13486,13.04379 c 0,0 -8.23625,11.41614 -8.29331,11.49674 l 13.72493,-7.2544 z m 21.78064,-4.39885 -11.86158,-9.2582 c -2.05329,2.86689 -9.24876,12.73833 -9.24876,12.73833 l 5.86245,4.57561 z m -38.76273,33.95336 c -0.4511,1.40847 -0.85837,2.87065 -1.24301,4.3418 l 4.05993,-2.14521 z m 19.16594,-6.44836 -11.98129,-9.35202 c -2.70661,4.2334 -5.00313,9.1531 -6.82592,14.63657 l 3.56119,2.77495 z m 16.34341,-8.64118 -12.11047,-9.44957 -15.24747,8.05949 12.11189,9.45148 z m -25.01616,64.64434 15.24793,-8.05953 -12.1067,-9.45145 -15.24746,8.05951 z m 22.73848,-45.01598 -15.24602,8.05574 12.11563,9.46042 15.24606,-8.05949 z m -9.63955,55.24426 15.24605,-8.05953 -12.11944,-9.46607 -15.2479,8.0614 z m 3.25013,-18.86759 15.24789,-8.06137 -12.10668,-9.45149 -15.24794,8.05575 z m 38.16078,31.23211 -12.10669,-9.44957 -15.24556,8.05904 12.10811,9.45521 z m -44.68081,6.49032 15.24744,-8.05949 -12.10245,-9.45102 -15.24793,8.06095 z m 20.59658,-26.73569 12.09916,9.45144 15.24792,-8.06091 -12.09915,-9.44582 z m 27.3876,21.38655 c -0.0176,-0.52837 -0.0318,-1.05113 -0.0442,-1.57955 l -1.17842,0.6222 z m -40.48655,-31.61109 12.12134,9.46042 15.24602,-8.05903 -12.11942,-9.46089 z m 24.09697,20.25626 -12.09916,-9.44582 -15.24743,8.05904 12.10057,9.44581 z m -54.63288,-21.25038 -2.19137,1.16523 c 0.12904,4.87399 0.45297,9.91718 0.9724,15.33277 l 13.3252,-7.04133 z m 78.43008,-110.013821 -15.24981,8.066608 12.1067,9.445779 15.24934,-8.060911 z m -21.71845,131.448041 12.10672,9.44956 2.13199,-1.12517 c -0.10643,-5.43536 -0.0457,-10.7859 0.16792,-15.94176 z m -58.95628,-23.18157 c 0.008,0.54677 0.0141,1.08791 0.0247,1.63471 l 1.23359,-0.65522 z m 57.91786,-63.25049 15.24981,-8.05953 -12.1067,-9.45098 -15.25312,8.06091 z m 16.35469,-8.64497 15.24556,-8.05949 -12.10811,-9.445828 -15.24793,8.055748 z m -21.93761,-38.523285 12.10668,9.445818 15.25313,-8.061406 -12.10814,-9.451437 z m 8.84574,28.303975 15.24792,-8.059034 -12.10668,-9.445817 -15.24228,8.059033 z m -49.10369,112.95093 -8.7755,4.64344 c 0.52838,3.18555 1.1011,6.34327 1.71957,9.38881 h 10.49176 l 8.66711,-4.58127 z m 29.4315,1.57058 -15.24794,8.05904 5.63433,4.40263 h 16.03605 l 5.68565,-3.0069 z m -23.57046,12.46167 h 12.1081 l -4.88859,-3.81719 z m 33.35329,-69.04127 -15.24415,8.05571 12.10623,9.45525 15.24227,-8.05953 z m -0.94084,69.04127 h 7.11627 l -2.87252,-2.24278 z m 23.13581,-31.7511 c 0.27258,-5.36938 0.72358,-10.55826 1.33825,-15.45251 l -12.59601,6.66189 z m -71.99677,9.451 c 0.44028,3.78981 0.97623,7.71727 1.62057,11.72723 l 7.98741,-4.22395 z m 69.45374,11.41234 -15.24602,8.05953 3.622,2.82823 h 14.40983 c -0.18242,-2.88529 -0.31854,-5.85917 -0.41954,-9.04093 z m -43.49344,-12.55355 -12.11895,-9.46087 -14.19488,7.50516 0.16015,1.50791 10.90423,8.50872 z m 15.10273,-75.26857 12.10623,9.45147 15.24228,-8.05573 -12.10669,-9.45145 z m 11.98275,10.79913 -15.24556,8.0614 12.11754,9.46043 15.25122,-8.06141 z m -25.07461,-21.01843 12.11189,9.45143 15.24415,-8.05571 -12.11189,-9.45147 z m 19.67082,58.16295 12.11754,9.46044 13.73197,-7.26007 c 0.076,-0.58357 0.24322,-1.78603 0.24322,-1.78603 l -10.84908,-8.47573 z m 33.87036,-36.31963 -12.1232,-9.46418 -15.24036,8.05571 12.12132,9.46422 z m -44.69165,6.46864 15.24746,-8.05761 -12.10623,-9.44961 -15.24792,8.05575 z m -19.59725,27.50311 15.24602,-8.05528 -12.11563,-9.45523 -15.24416,8.05575 z m 6.39132,-36.371 12.1067,9.45143 -15.24603,8.05575 -12.10672,-9.45147 15.24605,-8.05571"
         style="fill:#3c2334;fill-opacity:1;fill-rule:nonzero;stroke:none;stroke-width:0.47137" />
    </g>
  </g>
</svg>
