<?xml version="1.0" encoding="UTF-8" standalone="no"?>
<!-- Created with Inkscape (http://www.inkscape.org/) -->

<svg
   version="1.1"
   id="svg1"
   width="600"
   height="525.33331"
   viewBox="0 0 600 525.33331"
   xmlns="http://www.w3.org/2000/svg"
   xmlns:svg="http://www.w3.org/2000/svg">
  <defs
     id="defs1" />
  <g
     id="g1">
    <g
       id="group-R5"
       transform="translate(-113.92276,162.0453)">
      <path
         id="path3603"
         d="m 356.37177,236.95892 c -17.38242,3.56211 -35.85751,2.83658 -53.22682,-2.07173 -34.13543,-9.34465 -64.98845,-34.00871 -83.76512,-64.67379 -9.4364,-15.26697 -16.04496,-32.44832 -18.0293,-50.1061 4.66359,17.12891 12.72761,32.85044 22.59234,47.12091 19.69893,28.01639 47.63228,51.04582 80.80616,62.42721 16.39026,5.54645 33.88194,8.13828 51.62274,7.3035 z m -28.67639,7.39963 c -38.24394,0 -74.08395,-22.39565 -101.97796,-51.9593 C 195.07419,149.16396 184.37463,115.65789 194.78133,95.500061 205.27985,75.176149 233.694,74.14466 239.28415,74.14466 c 27.79351,0 51.53972,16.420846 57.89038,39.95725 -0.0132,0.389 -0.88727,31.71842 0.0295,33.12144 11.16725,17.05462 31.88889,29.27079 50.79233,36.45627 v -0.14423 c 2.4345,0.91785 4.89521,1.79639 7.39965,2.62245 v 0.13538 c 2.54815,0.83919 5.14437,1.62591 7.79303,2.37331 v -0.1137 c 7.87604,2.23346 15.98379,4.01674 24.14829,5.37164 v 0.10916 c 55.68754,9.09549 139.64061,-2.37768 168.71912,-46.81493 0.31044,-0.47645 0.47641,-1.03152 0.47641,-1.5997 0,-10.35428 -0.13538,-19.90433 -0.3759,-28.86434 7.62695,0.80421 13.61486,4.7204 17.42177,11.47755 7.32972,13.00732 5.05255,32.98156 -5.7956,50.88408 -9.30531,15.35004 -38.8471,50.78796 -112.5333,48.52392 -8.36998,-2.7317 -17.34745,-4.70728 -28.62394,-4.70728 -37.38729,0 -48.95661,21.42533 -98.93159,21.42533 z M 179.73291,61.875999 c 6.42934,-10.345528 15.43742,-17.050233 27.89401,-18.772298 28.318,-3.767575 65.51734,19.130702 91.66304,33.667759 -0.18358,2.049875 -0.36715,4.112864 -0.5332,6.263272 -25.96217,-15.808949 -62.64137,-41.036836 -90.96374,-38.479951 -5.61641,0.537593 -11.14536,2.277149 -15.9663,5.310438 -4.85588,2.998331 -8.86384,7.268541 -12.09381,12.01078 z m 172.18507,-81.453008 c 2.81038,-2.097953 5.72568,-4.27021 8.72837,-6.604182 13.12532,-10.192552 18.17353,-20.380735 23.11243,-33.48857 9.61563,-5.157466 11.1716,-1.236917 15.15771,10.218781 7.22921,20.782843 15.76086,31.569815 43.06047,31.556702 24.96565,0 31.39938,-16.739912 21.54336,-28.239315 -6.7615,-7.893547 -3.01143,-23.182377 5.74314,-14.161181 25.06618,66.2253725 110.05949,133.936787 -2.50443,225.001054 53.03452,-20.73477 75.19849,-50.99337 82.44519,-73.62066 0.009,0.144244 0.89598,18.10795 1.01838,21.97606 0.30158,9.71176 0.46329,20.21463 0.46766,31.6747 -2.67925,3.95988 -6.04473,7.71436 -9.89097,11.2765 v -22.24266 c -7.1986,8.17765 -15.94008,16.13676 -27.73667,23.01192 -22.0897,12.88054 -51.16822,19.41042 -86.43129,19.41042 -15.16207,0 -28.41851,-1.18881 -40.08402,-3.22996 0.26652,0.0481 0.52013,0.10067 0.79111,0.14851 v 15.03968 c -8.4224,-1.41612 -16.48642,-3.29991 -24.14829,-5.55958 v -15.43305 l 0.0481,0.0163 c -2.84971,-0.95283 -5.55518,-1.96683 -8.1514,-3.02456 0.10915,0.0437 0.20095,0.096 0.31043,0.13998 v 15.80897 c -2.52191,-0.86977 -4.99136,-1.77891 -7.39965,-2.74046 v -16.33345 c 0.14851,0.0699 0.32354,0.13538 0.47205,0.20553 -4.72475,-2.2509 -8.99497,-4.66794 -12.87619,-7.18109 -1.40733,-35.57775 -4.57176,-95.277609 9.67686,-125.282704 -15.66909,28.42725 -16.48205,85.329854 -17.19887,119.950444 -0.94407,-0.73428 -1.84442,-1.47292 -2.73606,-2.21596 -1.65648,-39.40655 -5.9704,-101.628342 16.42964,-132.533809 -23.32226,28.519045 -23.63259,87.908599 -24.18766,125.392019 -1.33744,-1.35493 -2.6268,-2.70549 -3.82001,-4.03418 C 312.8089,95.665128 309.3735,33.596324 335.0035,3.6873877 309.03259,30.619859 307.37609,88.156209 306.13479,126.00678 c -1.1801,-1.56473 -2.28152,-3.05952 -3.31738,-4.47564 2.22907,-103.586418 19.04766,-118.6873001 49.10085,-141.109173 z m 259.36815,81.876976 c 55.18928,-23.890444 68.4195,11.639261 43.52378,58.698963 -8.65406,16.62627 -19.92619,31.6791 -32.60569,45.26333 11.56936,-14.51957 22.17712,-29.85213 30.19741,-46.47403 6.98444,-14.80366 15.83518,-37.229915 8.25632,-51.76261 -8.47484,-16.547598 -30.93169,-9.882226 -48.34034,-3.247449 -17.07644,6.98443 -33.31372,16.101789 -49.31936,25.529454 15.23202,-10.647107 31.17208,-20.393841 48.28788,-28.007658 z m -57.2916,14.724998 c 41.36465,-22.968203 94.80123,-55.718124 120.016,-15.148966 -26.94993,-39.550773 -79.00538,-3.173145 -119.47841,21.438457 -0.16619,-2.163512 -0.35403,-4.230877 -0.53759,-6.289491 z m -10.8569,1.210703 C 541.2757,60.997482 537.76161,44.414913 531.74312,28.675903 525.93441,13.207867 516.96566,-2.5835915 503.98897,-12.90727 c 28.54964,11.7572806 44.81752,58.205076 39.14866,91.142938 z M 594.3102,212.25987 c -37.96419,26.68334 -79.84457,31.61788 -107.26219,24.30567 36.16781,4.33139 74.25002,-7.90666 103.90547,-29.08287 36.97205,-25.90971 58.77325,-62.6982 60.93676,-65.27256 0,0 8.50111,-13.87709 11.01865,-17.81949 -7.7493,16.93223 -16.54324,33.65465 -28.21746,48.46272 -11.42513,14.93916 -24.93071,28.42726 -40.38123,39.40653 z M 626.88528,30.546576 c -28.9867,3.431026 -50.9147,24.004081 -74.12329,34.699261 -7.86733,-65.22010694 -27.25153,-73.2797373 -56.56605,-96.042524 -27.02426,-20.988266 -17.4305,-46.76686 -37.8156,-46.76686 -20.34575,0 -17.28626,31.740274 -31.75337,31.740274 -13.89458,0 -11.89277,-31.740274 -31.74029,-31.740274 -20.35449,0 -11.01861,25.953423 -37.82435,46.76686 -2.97209,2.312121 -5.85676,4.462522 -8.64094,6.534251 C 324.496,-6.4079873 307.61621,6.240916 300.50068,65.245837 293.15344,61.862884 285.79753,57.409109 278.07005,52.662493 262.21304,42.9245 245.81843,32.845579 226.37738,30.546576 c -20.14034,-2.386422 -37.30858,1.687107 -48.31411,11.464436 -20.46376,18.182256 -16.12802,49.096463 -6.66536,74.761428 15.37625,41.78421 47.85079,79.14088 51.15508,80.25981 28.83372,30.29791 65.75769,53.16999 105.14239,53.16999 50.97149,0 63.37129,-21.42974 98.93159,-21.42974 35.48598,0 47.95134,21.42974 98.94029,21.42974 88.18398,0 164.17356,-114.55697 164.17356,-170.799591 0,-37.43971 -26.74014,-53.143762 -62.85554,-48.856073"
         style="fill:#3c2334;fill-opacity:1;fill-rule:nonzero;stroke:none;stroke-width:0.437072" />
    </g>
  </g>
</svg>
