<?xml version="1.0" encoding="UTF-8" standalone="no"?>
<!-- Created with Inkscape (http://www.inkscape.org/) -->

<svg
   version="1.1"
   id="svg1"
   width="600"
   height="525.33331"
   viewBox="0 0 600 525.33331"
   xmlns="http://www.w3.org/2000/svg"
   xmlns:svg="http://www.w3.org/2000/svg">
  <defs
     id="defs1" />
  <g
     id="g1">
    <g
       id="group-R5"
       transform="translate(-113.92276,162.0453)">
      <path
         id="path3589"
         d="m 580.44751,147.4462 c 2.43193,-18.82946 3.51268,-37.881 2.97959,-56.926258 -0.84276,-19.01985 -3.32162,-38.07779 -8.617,-56.41224 -5.25535,-18.32173 -13.11142,-35.9136597 -23.64501,-51.69057 9.15009,16.5955803 16.17796,34.23192 20.77204,52.47117 4.60808,18.23292 7.0996,36.96087 7.61051,55.77129 0.83009,18.810408 -0.26512,37.665238 -2.07019,56.450288 -1.80489,18.79771 -4.57629,37.51926 -7.3255,56.26623 4.33577,-18.44235 7.85858,-37.08774 10.29556,-55.92991 z M 568.8357,94.803682 c 0,-5.22931 -4.26153,-9.48769 -9.4947,-9.48769 -5.23821,0 -9.49469,4.25838 -9.49469,9.48769 0,5.235698 4.25648,9.494078 9.49469,9.494078 5.23317,0 9.4947,-4.25838 9.4947,-9.494078 z m -2.56578,76.212658 c -3.31467,16.44326 -6.96128,32.90557 -11.88916,48.80304 -0.55532,-0.32985 -1.11316,-0.64732 -1.67861,-0.96466 3.7805,-16.51304 6.15084,-33.12132 8.22798,-49.78668 -3.25755,16.16402 -6.847,32.34074 -11.64927,47.9907 -0.71396,-0.34889 -1.44758,-0.6537 -2.16853,-0.98369 3.73291,-16.39881 6.09311,-32.88649 8.15312,-49.43765 -3.25756,16.15768 -6.84448,32.32169 -11.64166,47.95895 -0.50772,-0.19039 -1.02872,-0.37459 -1.54406,-0.55846 3.74305,-16.41785 6.10577,-32.93094 8.1683,-49.5011 -3.27721,16.27191 -6.89141,32.55016 -11.73809,48.29532 -4.42525,-1.3708 -8.97935,-2.33546 -13.67182,-2.55121 6.03404,3.24927 12.12967,5.69262 18.24306,8.24383 6.15275,2.44331 12.27118,4.87396 18.8504,6.7461 -1.32382,-1.18041 -2.71176,-2.26563 -4.14224,-3.27469 3.94423,-16.90653 6.35584,-33.92096 8.48058,-50.9798 z m -19.42095,-32.23283 c 0,5.23569 4.26152,9.49407 9.4947,9.49407 5.23317,0 9.49469,-4.25838 9.49469,-9.49407 0,-5.2357 -4.26152,-9.49403 -9.49469,-9.49403 -5.23318,0 -9.4947,4.25833 -9.4947,9.49403 z m 8.19815,-76.650568 c 5.23821,0 9.49469,-4.25833 9.49469,-9.49402 0,-5.2357 -4.25648,-9.50041 -9.49469,-9.50041 -5.23317,0 -9.49469,4.26471 -9.49469,9.50041 0,5.23569 4.26152,9.49402 9.49469,9.49402 z m -12.08527,-39.58184 c 5.23827,0 9.49469,-4.25833 9.49469,-9.49403 0,-5.2356897 -4.25642,-9.4940697 -9.49469,-9.4940697 -5.23312,0 -9.4896,4.25838 -9.4896,9.4940697 0,5.2357 4.25648,9.49403 9.4896,9.49403 z m -15.34215,-52.75675 c -0.15183,-2.57025 -1.47042,-5.05163 -3.42381,-6.65723 -1.9185,-1.5739 -3.66375,-3.36355 -5.6,-4.93107 -7.74183,-6.2765 -16.1088,-11.835857 -25.09768,-16.24017 -18.04253,-8.84042 -38.11013,-12.927402 -58.01657,-13.99358 -19.95085,-0.945613 -40.00132,0.774217 -59.3899,5.337219 -19.32637,4.683565 -37.99842,12.813169 -53.74039,25.270931 -1.95087,1.60564 -3.79764,3.16045 -5.76374,4.91203 -1.99527,1.98642 -3.0367,4.9057 -2.81837,7.71713 0.26512,5.75607 5.98711,10.59195 11.86441,9.69079 1.43554,-0.19039 2.83109,-0.69178 4.07556,-1.45333 1.30417,-0.82501 2.18443,-1.75158 3.09891,-2.47506 1.82455,-1.62463 3.74305,-3.13504 5.70153,-4.58199 3.91692,-2.89391 7.98995,-5.58477 12.29593,-7.86944 17.15532,-9.40521 36.76918,-13.37163 56.26881,-14.82491 19.59672,-1.14234 39.44918,-0.37459 58.6093,4.04257 9.58608,2.17043 18.87258,5.65455 27.59367,10.27467 4.33834,2.34811 8.45136,5.10242 12.39051,8.08515 1.968,1.49141 3.83252,3.11604 5.70914,4.72802 1.76995,1.77061 4.27613,2.94465 6.82477,2.8812 5.16401,0.15231 9.72002,-4.67724 9.41792,-9.91293 z m -41.19191,12.62278 c -8.55731,-8.06611 -19.4774,-13.42241 -30.74461,-16.88111 -11.32685,-3.46508 -23.16651,-4.9057 -34.95668,-5.25473 -11.79773,-0.0238 -23.6323,0.99635 -35.12036,3.73162 -11.39858,2.76697 -22.80416,6.86666 -32.09575,14.08877 5.13921,-2.80509 10.31527,-5.40071 15.92536,-6.95557 5.45592,-1.88485 11.10857,-3.20486 16.78787,-4.22663 11.35607,-2.0562 22.9133,-3.10334 34.44072,-2.76697 11.52738,0.0571 23.03258,1.4787 34.21097,4.25838 11.1555,2.79234 22.00386,7.2284 31.55248,14.00624 z M 329.33986,-0.7524877 C 319.04239,11.007212 311.66225,25.311742 306.9914,40.308052 c -4.72484,15.02801 -6.95619,30.71605 -7.96016,46.37241 -0.66193,15.675328 -0.17325,31.401448 1.71288,46.937178 1.91403,15.53573 4.82445,30.91915 8.74646,46.02331 -2.34054,-15.42782 -4.49194,-30.83661 -5.77387,-46.31522 -1.25909,-15.46596 -1.76238,-30.99531 -0.81296,-46.442218 0.66955,-15.4532 2.91737,-30.8176 6.93839,-45.72504 4.01406,-14.91383 10.479,-29.17395 19.49772,-41.9109597 z M 312.32167,210.80128 c -5.10942,-16.24017 -8.82581,-33.10229 -12.21916,-49.93267 2.11455,16.97003 4.51916,33.88289 8.41833,50.69422 -0.50072,0.12042 -1.0084,0.22228 -1.50721,0.3427 -4.95269,-15.94187 -8.60434,-32.44226 -11.92853,-48.92993 2.08476,16.72885 4.46462,33.40691 8.27239,49.98978 -0.73871,0.22847 -1.4679,0.4823 -2.1939,0.73614 -4.85172,-15.73878 -8.4634,-32.02974 -11.74066,-48.30165 2.0651,16.60191 4.43226,33.1594 8.18801,49.609 -0.58768,0.24751 -1.16009,0.52038 -1.74777,0.78059 -4.87143,-15.78956 -8.49325,-32.12492 -11.77998,-48.44125 2.08476,16.75422 4.46714,33.45765 8.28444,50.05956 -4.26852,2.11965 -8.35426,4.63278 -11.97355,7.86306 6.57922,-1.87214 12.69765,-4.30279 18.85292,-6.7461 6.11086,-2.55121 12.20902,-4.99456 18.24053,-8.24383 -1.74267,0.0823 -3.46317,0.26035 -5.16586,0.52038 z m -32.81481,-62.5237 c 5.23317,0 9.4947,-4.25838 9.4947,-9.49407 0,-5.2357 -4.26153,-9.49403 -9.4947,-9.49403 -5.23821,0 -9.49469,4.25833 -9.49469,9.49403 0,5.23569 4.25648,9.49407 9.49469,9.49407 z m -2.99734,-43.97982 c 5.2357,0 9.4947,-4.25838 9.4947,-9.494078 0,-5.22931 -4.259,-9.48769 -9.4947,-9.48769 -5.23317,0 -9.49469,4.25838 -9.49469,9.48769 0,5.235698 4.26152,9.494078 9.49469,9.494078 z M 271.3062,52.638922 c 0,5.23569 4.259,9.49402 9.49469,9.49402 5.23312,0 9.49469,-4.25833 9.49469,-9.49402 0,-5.2357 -4.26157,-9.50041 -9.49469,-9.50041 -5.23569,0 -9.49469,4.26471 -9.49469,9.50041 z m 12.08521,-39.58185 c 0,5.2357 4.259,9.49403 9.49217,9.49403 5.2357,0 9.49722,-4.25833 9.49722,-9.49403 0,-5.2356897 -4.26152,-9.4940697 -9.49722,-9.4940697 -5.23317,0 -9.49217,4.25838 -9.49217,9.4940697 z M 573.88547,223.08769 c -1.52691,6.04803 -3.15855,12.16584 -4.89618,18.35986 -3.8103,13.58739 -20.59817,18.42326 -31.0994,8.99268 l -38.6356,-34.66347 c -5.24012,-4.70894 -0.56989,-13.27011 6.22257,-11.41063 l 6.95871,1.90389 c 3.56979,0.97732 7.22907,-1.20578 8.08391,-4.80413 C 541.04592,115.23879 537.48817,46.254512 509.6438,8.0117723 491.60703,-16.764198 462.65903,-28.809428 421.16506,-28.809428 c -41.49843,0 -70.44577,12.04523 -88.48069,36.8212003 -27.84184,38.2427397 -31.40212,107.2270177 -10.8782,193.4541177 0.85804,3.59835 4.51921,5.78145 8.08391,4.80413 l 6.95871,-1.90389 c 6.79246,-1.85948 11.46332,6.70169 6.22258,11.41063 l -38.63561,34.66347 c -10.50375,9.43058 -27.2891,4.59471 -31.0994,-8.99268 -1.73506,-6.19402 -3.36926,-12.31183 -4.89618,-18.35986 -48.17471,-191.074258 9.6064,-308.861462 152.72488,-308.861462 143.11401,0 200.89764,117.787204 152.72041,308.861462 z M 526.97999,-30.167568 c 0.39649,4.85491 -3.83252,9.55119 -8.77821,9.48774 -2.45663,0 -4.75972,-1.12329 -6.4656,-2.88125 -1.85629,-1.65638 -3.70621,-3.31909 -5.65455,-4.86757 -3.90169,-3.09701 -8.04203,-5.86398 -12.27118,-8.49772 -8.57702,-5.08339 -17.84643,-9.06884 -27.47754,-11.80411 -19.29657,-5.572018 -39.57993,-6.746099 -59.51874,-5.572018 -19.921,1.237527 -40.13777,5.629128 -57.77602,15.624548 -4.41259,2.44968 -8.64175,5.22936 -12.59803,8.35807 -1.98575,1.55486 -3.88712,3.21124 -5.75926,4.9057 -0.96655,0.86946 -1.82711,1.73887 -2.62041,2.24659 -0.85737,0.56483 -1.83659,0.94561 -2.85774,1.11058 -4.12506,0.81868 -8.55289,-2.62098 -8.88988,-6.94281 -0.22085,-2.12603 0.4855,-4.3155 1.96291,-5.88939 1.69575,-1.58656 3.59264,-3.29373 5.42418,-4.88662 15.02549,-12.70531 33.42024,-21.348967 52.69711,-25.607299 19.28382,-4.423399 39.27722,-4.854915 58.88408,-3.433377 19.60624,1.434294 39.10144,5.273771 57.20043,12.997227 9.02633,3.877599 17.50496,8.992689 25.47721,14.818579 1.9978,1.45334 3.79507,3.15413 5.72181,4.70899 1.89879,1.52311 3.10333,3.71891 3.29943,6.12414"
         style="fill:#3c2334;fill-opacity:1;fill-rule:nonzero;stroke:none;stroke-width:0.634628" />
    </g>
  </g>
</svg>
