<?xml version="1.0" encoding="UTF-8" standalone="no"?>
<!-- Created with Inkscape (http://www.inkscape.org/) -->

<svg
   version="1.1"
   id="svg1"
   width="600"
   height="525.33331"
   viewBox="0 0 600 525.33331"
   xmlns="http://www.w3.org/2000/svg"
   xmlns:svg="http://www.w3.org/2000/svg">
  <defs
     id="defs1" />
  <g
     id="g1">
    <g
       id="group-R5"
       transform="translate(-113.92276,162.0453)">
      <path
         id="path3587"
         d="m 488.93327,73.184485 v -3.551671 c 0,-1.689502 -0.83347,-2.538026 -2.50045,-2.538026 -1.71203,0 -2.56804,0.840978 -2.56804,2.515499 v 3.837028 c 0,1.216442 0.63823,1.824662 1.92226,1.824662 h 3.14623 v 5.075992 h -3.14623 c -0.51079,0 -0.96111,0.180218 -1.3516,0.540642 -0.38296,0.353106 -0.57066,0.788433 -0.57066,1.29157 v 3.679341 c 0,1.73455 0.82599,2.57553 2.47044,2.53802 v 14.709928 c -2.15507,0 -3.99476,-0.61576 -5.39142,-1.83969 -1.43415,1.22393 -3.21378,1.83969 -5.32379,1.83969 V 88.397542 c 1.68951,0.0395 2.53803,-0.80347 2.53803,-2.53802 v -5.834418 c 0,-0.630746 -0.42802,-1.411686 -1.26905,-2.342766 0.84103,-0.886039 1.26905,-1.644459 1.26905,-2.282692 v -5.766832 c 0,-1.689502 -0.84852,-2.538026 -2.53803,-2.538026 V 52.392351 h 1.52433 c 1.51677,0.247793 2.80829,0.841033 3.86703,1.764628 1.05876,-0.923595 2.32781,-1.516835 3.79952,-1.764628 h 9.82913 v 20.792134 z m -3.51416,44.452705 H 342.62992 c -1.86216,0 -3.379,-1.50929 -3.379,-3.379 0,-1.86223 1.51684,-3.37901 3.379,-3.37901 h 142.78919 c 1.86972,0 3.3865,1.51678 3.3865,3.37901 0,1.86971 -1.51678,3.379 -3.3865,3.379 z m -15.81373,16.61715 c -14.9277,14.67991 -34.66108,22.76699 -55.58082,22.76699 -20.91232,0 -40.65319,-8.08708 -55.57335,-22.76699 -1.57687,-1.5468 -1.5994,-4.07734 -0.0507,-5.66169 1.56189,-1.57687 4.09237,-1.59191 5.66174,-0.0451 13.41837,13.19315 31.16191,20.46927 49.9642,20.46927 18.80224,0 36.54578,-7.27612 49.9642,-20.46927 1.58435,-1.56183 4.10735,-1.53181 5.66917,0.0451 1.54687,1.58435 1.52434,4.11489 -0.0507,5.66169 z M 340.44483,87.669152 c 0.53332,0.52543 1.17894,0.78843 1.95234,0.78843 0.7734,0 1.42667,-0.263 1.98984,-0.78843 0.55585,-0.52544 0.83349,-1.14887 0.83349,-1.86972 0,-1.524265 -0.78844,-3.063635 -2.35027,-4.632953 -0.46574,-0.457858 -1.32907,-0.653277 -2.59806,-0.570709 -0.0451,-0.630757 -0.0828,-1.073739 -0.12786,-1.329075 -0.0828,-0.46574 -0.27033,-0.848469 -0.56317,-1.141321 -3.94967,-3.829535 -6.02967,-7.944429 -6.02967,-12.554911 0,-9.123308 2.47045,-13.68868 7.41883,-13.68868 2.41036,0 4.33261,1.434162 5.77432,4.310088 v -3.79952 h 5.38388 V 71.72025 h -5.8945 v -2.598059 c 0,-0.585694 -0.21795,-1.096317 -0.63825,-1.524325 -0.42066,-0.420686 -0.94611,-0.630747 -1.58434,-0.630747 -0.59325,0 -1.11136,0.210061 -1.55435,0.630747 -0.44322,0.428008 -0.66081,0.938631 -0.66081,1.524325 0,1.441707 0.72085,2.79331 2.09497,4.122384 0.33791,0.330579 1.22399,0.502908 2.65816,0.502908 0,1.231478 0.263,2.042444 0.75841,2.477933 4.37767,3.769502 6.47265,8.47004 6.47265,13.883986 0,9.00314 -2.53048,13.500978 -7.58394,13.500978 -2.71075,0 -4.90334,-1.43422 -6.55527,-4.310088 v 3.807008 h -5.7068 V 82.180008 h 5.7068 v 3.551674 c 0,0.76591 0.26299,1.41169 0.80342,1.9373 z m 40.09003,-9.919242 c -0.84853,0.923598 -1.269,1.666979 -1.269,2.215103 v 5.954599 c 0,1.697 0.82595,2.51544 2.47795,2.47793 v 14.709928 c -2.12507,0 -3.91216,-0.61576 -5.36136,-1.83969 -1.4042,1.22393 -3.19129,1.83969 -5.36134,1.83969 V 88.397542 c 1.69698,0.0395 2.53796,-0.78093 2.53796,-2.47793 V 82.30779 c 0,-1.261492 -0.70582,-1.89973 -1.99733,-1.89973 h -3.8671 c -1.2014,0 -1.8397,0.593186 -1.92981,1.772121 v 3.739431 c 0,1.697 0.84853,2.51544 2.53804,2.47793 v 14.709928 c -2.17007,0 -3.95722,-0.61576 -5.36137,-1.83969 -1.44919,1.22393 -3.2288,1.83969 -5.36134,1.83969 V 88.397542 c 1.65193,0.0395 2.47794,-0.78093 2.47794,-2.47793 v -6.014625 c 0,-0.510791 -0.42069,-1.231479 -1.26899,-2.155077 0.84846,-0.893575 1.26899,-1.606888 1.26899,-2.162559 v -6.082206 c 0,-1.689502 -0.82601,-2.538026 -2.47794,-2.538026 V 52.392351 h 0.38295 c 1.94479,0 3.61931,0.60822 5.00841,1.832207 1.3516,-1.223987 3.02613,-1.832207 5.00848,-1.832207 h 0.32269 v 14.574768 c -1.68951,0 -2.53802,0.848524 -2.53802,2.538026 v 4.054803 c 0.0901,1.186425 0.72841,1.779609 1.92981,1.779609 h 3.8671 c 1.2915,0 1.93728,-0.660764 1.93728,-1.967313 l 0.0603,-3.867099 c 0,-1.689502 -0.84097,-2.538026 -2.53797,-2.538026 V 52.392351 h 0.3227 c 1.94479,0 3.61177,0.60822 5.00842,1.832207 1.39664,-1.223987 3.06362,-1.832207 5.00847,-1.832207 h 0.38295 v 14.574768 c -1.652,0 -2.47794,0.848524 -2.47794,2.538026 v 6.022116 c 0,0.59324 0.42069,1.329074 1.26899,2.222649 z M 397.0169,67.094788 c -1.71203,0 -2.56804,0.840978 -2.56804,2.515499 v 3.837028 c 0,1.216442 0.64573,1.824662 1.92225,1.824662 h 3.15374 v 5.075992 h -3.15374 c -1.27652,0 -1.92225,0.653277 -1.92225,1.959821 v 3.604282 c 0,1.65947 0.85601,2.48547 2.56804,2.48547 1.66696,0 2.50795,-0.84852 2.50795,-2.53802 V 82.30779 h 5.70674 v 20.79968 h -8.33488 c -2.16255,0 -3.94965,-0.61576 -5.34631,-1.83969 -1.4417,1.22393 -3.22132,1.83969 -5.34631,1.83969 V 88.397542 c 1.69699,0.0395 2.53797,-0.80347 2.53797,-2.53802 v -5.834418 c 0,-0.675798 -0.44322,-1.456738 -1.32908,-2.342766 0.88609,-0.848534 1.32908,-1.606889 1.32908,-2.282692 v -5.766832 c 0,-1.689502 -0.84098,-2.538026 -2.53797,-2.538026 V 52.392351 h 1.52427 c 1.52432,0.247793 2.81583,0.841033 3.86709,1.764628 1.05876,-0.923595 2.32775,-1.516835 3.80702,-1.764628 h 9.82912 v 20.792134 h -5.70674 v -3.551671 c 0,-1.689502 -0.84099,-2.538026 -2.50795,-2.538026 z m 28.14332,14.004108 c -0.47306,-0.457848 -1.05126,-0.690836 -1.73455,-0.690836 -0.39027,0 -0.96865,0 -1.74204,0 -0.77346,0.04508 -1.35916,0.06022 -1.74211,0.06022 -1.29151,0 -1.93728,0.62321 -1.93728,1.854689 v 3.581733 c 0,1.70454 0.84851,2.53049 2.53801,2.49297 v 14.709938 c -2.12499,0 -3.94966,-0.65328 -5.35386,-1.96737 -1.44919,1.31409 -3.22881,1.96737 -5.36135,1.96737 V 88.397692 c 1.65199,0.0395 2.47794,-0.78096 2.47794,-2.48549 V 79.87505 c 0,-0.510792 -0.42801,-1.223932 -1.26899,-2.16257 0.84098,-0.886028 1.26899,-1.606877 1.26899,-2.155012 v -6.10473 c 0,-1.659486 -0.82595,-2.485483 -2.47794,-2.485483 V 52.39252 h 0.38295 c 1.94485,0 3.61182,0.60822 5.00848,1.832207 1.35159,-1.223987 3.00353,-1.832207 4.94082,-1.832207 h 3.67934 c 2.11752,0 3.91965,0.743381 5.42146,2.237687 1.5018,1.501742 2.25266,3.303879 2.25266,5.413896 v 12.660001 c 0,1.982347 -0.69833,3.709412 -2.09499,5.188627 1.39666,1.351606 2.09499,2.951002 2.09499,4.805734 v 3.168717 c 0,1.68202 0.80347,2.53054 2.40287,2.53054 v 14.709918 c -2.11751,0 -3.90467,-0.63829 -5.35386,-1.89979 -1.44171,1.2615 -3.22881,1.89979 -5.35387,1.89979 V 88.397722 c 1.6895,0 2.55307,-0.84104 2.59812,-2.5155 V 82.73597 c 0.0451,-0.630746 -0.1729,-1.171388 -0.64579,-1.636901 z M 447.5968,77.74991 c -0.93108,0.923598 -1.39666,1.666979 -1.39666,2.215103 v 5.954599 c 0,1.697 0.84854,2.51544 2.53804,2.47793 v 14.709928 c -2.15507,0 -3.93467,-0.61576 -5.32385,-1.83969 -1.44171,1.22393 -3.2363,1.83969 -5.39137,1.83969 V 88.397542 c 1.65194,0.0395 2.47045,-0.78093 2.47045,-2.47793 v -6.014625 c 0,-0.46574 -0.44322,-1.186427 -1.32907,-2.155077 0.88603,-0.93108 1.32907,-1.65194 1.32907,-2.162559 v -6.082206 c 0,-1.689502 -0.81851,-2.538026 -2.47045,-2.538026 V 52.392351 h 0.31538 c 1.94478,0 3.63428,0.60822 5.07599,1.832207 1.3441,-1.223987 3.01859,-1.832207 5.00093,-1.832207 h 0.32269 v 14.574768 c -1.6895,0 -2.53802,0.848524 -2.53802,2.538026 v 6.022116 c 0,0.59324 0.46574,1.329074 1.39666,2.222649 z m 16.3844,-10.655122 c -1.71202,0 -2.56805,0.840978 -2.56805,2.515499 v 3.837028 c 0,1.216442 0.6458,1.824662 1.92981,1.824662 h 3.14625 v 5.075992 h -3.14625 c -0.51811,0 -0.96116,0.180218 -1.35161,0.540642 -0.39026,0.353106 -0.5782,0.788433 -0.5782,1.29157 v 3.679341 c 0,1.73455 0.82602,2.57553 2.47795,2.53802 v 14.709928 c -2.15503,0 -4.00221,-0.61576 -5.39138,-1.83969 -1.4417,1.22393 -3.21382,1.83969 -5.33133,1.83969 V 88.397542 c 1.69704,0.0395 2.53803,-0.80347 2.53803,-2.53802 v -5.834418 c 0,-0.630746 -0.42069,-1.411686 -1.26899,-2.342766 0.84847,-0.886039 1.26899,-1.644459 1.26899,-2.282692 v -5.766832 c 0,-1.689502 -0.84099,-2.538026 -2.53803,-2.538026 V 52.392351 h 1.52432 c 1.52432,0.247793 2.81584,0.841033 3.8671,1.764628 1.05875,-0.923595 2.32775,-1.516835 3.80702,-1.764628 h 9.82911 v 20.792134 h -5.70673 v -3.551671 c 0,-1.689502 -0.83349,-2.538026 -2.50801,-2.538026 z M 342.62992,37.066712 h 142.78919 c 1.86972,0 3.3865,1.516778 3.3865,3.379003 0,1.862225 -1.51678,3.379003 -3.3865,3.379003 H 342.62992 c -1.86216,0 -3.379,-1.516778 -3.379,-3.379003 0,-1.862225 1.51684,-3.379003 3.379,-3.379003 z m 15.82129,-15.828773 c 14.92016,-14.6798538 34.65354,-22.7669358 55.57335,-22.7669358 20.91974,0 40.66067,8.087082 55.58082,22.7669358 1.57687,1.546852 1.59939,4.084878 0.0507,5.661745 -0.78844,0.795925 -1.81711,1.193915 -2.86088,1.193915 -1.01372,0 -2.02742,-0.382953 -2.8083,-1.148861 -13.41092,-13.19315 -31.16196,-20.4692698 -49.9642,-20.4692698 -18.80229,0 -36.54583,7.2761198 -49.9642,20.4692698 -1.56937,1.554341 -4.09986,1.531814 -5.66174,-0.04505 -1.5468,-1.576868 -1.53181,-4.107404 0.0507,-5.661746 z m 55.58083,-36.515762 c -51.38338,0 -93.02769,41.651848 -93.02769,93.027733 0,51.36834 41.64431,93.02018 93.02769,93.02018 51.36834,0 93.02018,-41.65184 93.02018,-93.02018 0,-51.375885 -41.65184,-93.027733 -93.02018,-93.027733 z m 11.77397,88.650067 c 0,1.306549 -0.64579,1.967313 -1.92981,1.967313 h -3.93468 c -1.29151,0 -1.93728,-0.660764 -1.93728,-1.967313 v -4.505338 c 0,-1.306548 0.64577,-1.959821 1.93728,-1.959821 h 3.93468 c 1.28402,0 1.92981,0.653273 1.92981,1.959821 z m 150.45575,95.070106 c -1.96737,1.69701 -3.14625,3.82954 -4.82824,6.78804 -1.68953,-3.13871 -0.36044,-7.04332 1.99738,-9.6189 2.57553,-2.36531 6.48019,-3.69438 9.61889,-1.99733 -2.95099,1.69698 -5.08355,2.86089 -6.78803,4.82819 z m -10.15205,2.20008 -78.03244,1.47179 c 4.0473,-3.18377 7.91436,-6.57032 11.51863,-10.22713 l 49.96419,-0.93863 c 1.75708,-0.0395 3.36403,-0.98363 4.24256,-2.50046 0.87855,-1.52427 0.89354,-3.39399 0.0451,-4.92579 l -24.18616,-43.76187 c 1.36663,-4.89579 2.39531,-9.919228 3.1237,-15.040338 l 37.68715,68.195828 c -2.07245,2.12499 -3.55921,4.77566 -4.36268,7.7266 z M 332.15502,151.09681 c -18.79475,-20.97984 -28.22443,-47.18592 -28.22443,-73.3469 0,-26.078413 9.20441,-52.119266 28.22443,-73.3543878 67.07699,-74.7961542 191.97245,-27.4225262 191.97245,73.3543878 0,19.530642 -5.11357,39.06877 -16.22671,57.21778 -38.40052,62.88698 -126.36725,71.19183 -175.74574,16.12912 z m 86.26972,104.82418 c -1.41168,-0.36775 -2.86838,-0.62326 -4.3927,-0.62326 -1.53182,0 -2.98855,0.25511 -4.40774,0.62326 l -40.24016,-66.76911 c 4.70059,1.89224 9.56635,3.43909 14.53721,4.72311 l 25.81558,42.83821 c 0.90861,1.5093 2.53803,2.4254 4.28763,2.4254 1.75707,0 3.379,-0.9161 4.28756,-2.4254 l 25.82307,-42.83821 c 4.97091,-1.28402 9.82918,-2.83087 14.52971,-4.72311 z m -11.18827,10.1971 c -1.96731,1.71202 -3.14619,3.84451 -4.82072,6.80305 -1.6895,-3.13875 -0.36774,-7.04336 1.9899,-9.6189 2.58303,-2.3653 6.4877,-3.70941 9.62639,-1.99738 -2.95848,1.68202 -5.09103,2.86089 -6.79557,4.81323 z M 262.27728,170.64998 c -0.82447,-3.05615 -2.39087,-5.79686 -4.57595,-7.95193 l 37.56775,-67.978048 c 0.73066,5.12111 1.76311,10.137008 3.11849,15.032838 l -24.17869,43.76937 c -0.84999,1.5318 -0.8327,3.40152 0.0451,4.92579 0.88007,1.51683 2.48695,2.46296 4.24403,2.50046 l 49.96341,0.93863 c 3.60427,3.65681 7.47137,7.04336 11.51114,10.22713 z M 257.70133,-7.2057223 c 2.19111,-2.1550718 3.75148,-4.9033277 4.57595,-7.9519207 l 77.69449,-1.464235 c -4.03976,3.183753 -7.90687,6.570246 -11.51113,10.2346063 l -49.9634,0.9310843 c -1.7571,0.039419 -3.36398,0.9836846 -4.24403,2.5080096 -0.87703,1.516778 -0.89432,3.38649303 -0.0451,4.918307 l 24.17867,43.7693568 c -1.35537,4.895782 -2.38783,9.911744 -3.11847,15.032793 z M 409.6243,-100.42871 c 1.41919,0.36775 2.87592,0.623259 4.40774,0.623259 1.52432,0 2.98102,-0.255119 4.3927,-0.623259 l 40.24016,66.769109 c -4.70053,-1.892242 -9.5588,-3.431548 -14.52971,-4.72306 l -25.82307,-42.838272 c -1.80963,-3.011087 -6.75802,-3.011087 -8.57519,0 l -25.81558,42.838272 c -4.97086,1.291512 -9.83662,2.830818 -14.53721,4.72306 z m -5.21865,-26.61151 c 2.58303,-2.3653 6.4877,-3.70186 9.62639,-1.99738 -2.95848,1.6895 -5.09103,2.86089 -6.79557,4.82071 -1.96731,1.70454 -3.14619,3.84458 -4.82072,6.79557 -1.6895,-3.1387 -0.36774,-7.04336 1.9899,-9.6189 z m 162.04197,111.890066 c 0.76591,2.845854 2.19258,5.4064061 4.15995,7.4863517 L 532.78525,60.772279 c -0.7284,-5.121049 -1.75707,-10.137011 -3.11623,-15.032793 l 24.1787,-43.7693568 c 0.84847,-1.53181397 0.83348,-3.401529 -0.0451,-4.918307 -0.87853,-1.524325 -2.48549,-2.4704459 -4.24256,-2.5080096 l -49.96415,-0.9385745 c -3.60427,-3.6568701 -7.47133,-7.0433631 -11.51863,-10.2271161 z m 7.31369,-14.20685 c 2.58302,-2.365303 6.48013,-3.701868 9.61888,-1.989839 -2.9435,1.682011 -5.08353,2.8534 -6.78807,4.813221 -1.9673,1.704483 -3.14619,3.844518 -4.82071,6.795514 -1.69699,-3.1387 -0.36776,-7.035817 1.9899,-9.618896 z M 238.54463,168.44235 c -1.96209,1.69701 -3.14096,3.82954 -4.8192,6.78804 -1.69249,-3.13871 -0.36324,-7.04332 1.9921,-9.6189 2.57783,-2.36531 6.48172,-3.69438 9.62041,-1.99733 -2.95099,1.69698 -5.0805,2.86089 -6.79331,4.82819 z m 0,-194.975972 c -1.96209,1.704483 -3.14096,3.844518 -4.8192,6.795514 -1.69249,-3.1387 -0.36324,-7.035817 1.9921,-9.618896 2.57783,-2.365303 6.48172,-3.701868 9.62041,-1.989839 -2.95099,1.682011 -5.0805,2.8534 -6.79331,4.813221 z M 583.04979,157.60702 c -1.31404,0 -2.59058,0.18022 -3.82205,0.45054 L 534.84268,77.74991 579.27279,-2.6478408 c 1.32159,0.315373 2.68822,0.525435 4.1074,0.525435 9.73154,0 17.61588,-7.8843412 17.61588,-17.6158712 0,-9.731529 -7.88434,-17.615871 -17.61588,-17.615871 -7.82429,0 -14.37957,5.143631 -16.67728,12.201976 l -92.26932,-1.734556 -47.43367,-78.700752 c 2.85334,-3.13121 4.64049,-7.26109 4.64049,-11.834 0,-9.73153 -7.88433,-17.61588 -17.60837,-17.61588 -9.73153,0 -17.62336,7.88435 -17.62336,17.61588 0,4.57291 1.78711,8.6953 4.648,11.82651 l -47.44122,78.708242 -91.60253,1.719519 c -2.2962,-7.050854 -8.84921,-12.186939 -16.67499,-12.186939 -9.72928,0 -17.6166,7.884342 -17.6166,17.615871 0,9.73153 7.88732,17.6158712 17.6166,17.6158712 1.21419,0 2.39909,-0.119955 3.54345,-0.360427 l 44.3318,80.2325808 -44.33478,80.217532 c -1.14362,-0.23259 -2.32628,-0.36042 -3.54047,-0.36042 -9.72928,0 -17.6166,7.89182 -17.6166,17.62335 0,9.73152 7.88732,17.61587 17.6166,17.61587 7.82578,0 14.38104,-5.13608 16.68102,-12.18694 l 91.5965,1.71953 47.44122,78.70824 c -2.86089,3.13121 -4.648,7.25361 -4.648,11.83407 0,9.73153 7.89183,17.60831 17.62336,17.60831 9.72404,0 17.60837,-7.87678 17.60837,-17.60831 0,-4.58046 -1.78715,-8.70286 -4.64049,-11.83407 l 47.43367,-78.70824 91.93896,-1.72702 c 2.29773,7.05835 8.85299,12.19443 16.67724,12.19443 9.73153,0 17.61588,-7.88435 17.61588,-17.61587 0,-9.73153 -7.88435,-17.62335 -17.61588,-17.62335"
         style="fill:#3c2334;fill-opacity:1;fill-rule:nonzero;stroke:none;stroke-width:0.750888" />
    </g>
  </g>
</svg>
