<?xml version="1.0" encoding="UTF-8" standalone="no"?>
<!-- Created with Inkscape (http://www.inkscape.org/) -->

<svg
   width="512"
   height="512"
   viewBox="0 0 512 512"
   version="1.1"
   id="svg1"
   xml:space="preserve"
   xmlns="http://www.w3.org/2000/svg"
   xmlns:svg="http://www.w3.org/2000/svg"><defs
     id="defs1" /><g
     id="layer1"><path
       style="fill:currentColor;stroke-width:1.23807"
       d="m 374.47209,481.02615 c 0,-0.15251 1.32458,-1.19523 2.94349,-2.31715 1.61893,-1.12191 3.9307,-3.82545 5.13728,-6.00787 1.84273,-3.33309 2.18946,-4.82134 2.16685,-9.3009 -0.051,-10.11601 -5.96345,-17.81116 -18.72292,-24.3683 -3.92833,-2.01878 -8.68514,-4.70825 -10.57069,-5.9766 -5.93183,-3.99017 -15.95408,-14.31018 -21.58088,-22.22202 -6.0872,-8.5592 -15.51539,-20.08683 -21.34086,-26.093 -2.13364,-2.19981 -3.64461,-3.99965 -3.35774,-3.99965 0.28688,0 2.86638,1.51682 5.73221,3.37072 10.51844,6.80434 24.74557,12.99686 36.93458,16.07622 28.24536,7.13571 44.75202,25.12051 44.75202,48.75947 0,9.78005 -3.41062,19.00654 -9.14595,24.74186 -3.152,3.15201 -12.94739,8.703 -12.94739,7.33722 z m 16.36637,-30.00581 c -2.24787,-16.68733 -11.81158,-29.98552 -28.22164,-39.24174 -5.42839,-3.06191 -24.77022,-11.42687 -25.26884,-10.92826 -0.18889,0.18888 5.08703,3.09957 11.72425,6.4682 18.13936,9.20639 25.89443,14.79383 31.91334,22.99323 5.00658,6.82033 8.69314,16.06449 8.71427,21.85134 0.005,1.36178 0.37287,2.47597 0.81756,2.47597 0.52506,0 0.63762,-1.26864 0.32106,-3.61874 z m -21.62414,-19.04597 c -0.81372,-1.57131 -2.05185,-3.54256 -2.75136,-4.38059 -1.04107,-1.24721 -0.12016,0.66457 3.21087,6.6661 0.17443,0.31426 0.47528,0.57138 0.66859,0.57138 0.19329,0 -0.31435,-1.28561 -1.1281,-2.85689 z m 6.62629,-0.15582 c -0.51147,-0.81897 -1.07747,-1.3415 -1.25779,-1.16117 -0.32651,0.32651 1.33378,2.65019 1.89361,2.65019 0.16174,0 -0.12438,-0.67006 -0.63582,-1.48902 z m -16.272,-4.55807 c -1.15682,-2.12545 -2.2397,-3.72805 -2.40642,-3.56133 -0.16671,0.1667 0.65906,2.02642 1.83503,4.1327 1.17598,2.10629 2.25886,3.70888 2.40641,3.56134 0.14754,-0.14754 -0.67821,-2.00727 -1.83502,-4.13271 z m 3.49447,-0.0187 c -2.79511,-4.3558 -3.73026,-5.05199 -1.82978,-1.36218 1.94771,3.78147 3.50075,5.99233 3.917,5.57609 0.20664,-0.20665 -0.7326,-2.10291 -2.08722,-4.21391 z m -6.79251,-0.60034 c -0.40305,-0.73326 -1.2911,-2.01887 -1.97344,-2.85689 -1.19529,-1.46804 -1.20755,-1.45411 -0.33565,0.38091 0.98383,2.07063 2.22869,3.8092 2.72747,3.8092 0.17294,0 -0.0154,-0.59994 -0.41838,-1.33322 z m 15.53508,-14.7071 c -1.67605,-0.79312 -3.73301,-1.42444 -4.57103,-1.40297 -0.83803,0.0215 0.19044,0.67159 2.28551,1.44466 4.93617,1.82144 6.17501,1.79883 2.28552,-0.0417 z M 363.6,406.94472 c -0.25315,-0.25315 -0.91024,-0.28022 -1.46019,-0.0602 -0.60775,0.24319 -0.42723,0.42372 0.46028,0.46028 0.8031,0.0331 1.25306,-0.14698 0.99991,-0.40014 z m -3.41239,-0.80612 c -0.52377,-0.21134 -1.38085,-0.21134 -1.90462,0 -0.52375,0.21135 -0.0951,0.38427 0.95231,0.38427 1.04752,0 1.47606,-0.17292 0.95231,-0.38427 z m -41.3298,69.28295 c 7.22785,-4.7278 11.80227,-11.76431 15.63082,-24.04381 1.89035,-6.06303 2.05091,-7.48658 1.74519,-15.47371 l -0.3367,-8.79639 1.76997,2.90949 c 3.82114,6.28118 5.13325,10.91564 5.1376,18.14628 0.004,6.19069 -0.23748,7.35524 -2.48381,11.99166 -4.30742,8.89051 -13.01002,15.76186 -21.55352,17.01813 l -3.33783,0.49081 z m -47.99589,-0.21285 c -0.83803,-0.83802 -1.52369,-2.16489 -1.52369,-2.94859 0,-0.78371 2.21961,-5.84041 4.93246,-11.23713 2.71285,-5.39672 4.68411,-8.78374 4.38057,-7.52669 -0.30352,1.25703 -0.44764,6.13939 -0.32027,10.84969 0.22374,8.27373 0.1668,8.62901 -1.6795,10.47529 -2.30885,2.30886 -3.77035,2.40665 -5.78957,0.38743 z m -8.10539,-12.57205 c -1.13941,-2.96925 0.45094,-4.84804 6.96727,-8.23092 3.55906,-1.84763 6.471,-3.13076 6.471,-2.85141 0,1.0827 -5.46568,9.6302 -6.96589,10.89357 -1.95026,1.64239 -5.87069,1.75673 -6.47238,0.18876 z m 19.47532,-0.82404 c -1.52024,-1.62029 -1.82026,-2.66471 -1.69622,-5.90425 0.083,-2.16467 0.60948,-5.24309 1.17019,-6.84093 l 1.01949,-2.90516 3.97221,5.56685 c 2.81409,3.94379 3.97223,6.28233 3.97223,8.02078 0,4.26055 -5.18626,5.52837 -8.4379,2.06271 z m 146.81564,-7.35057 c -1.87795,-2.46211 -7.7312,-16.44757 -7.13375,-17.04502 0.55428,-0.55428 7.70866,4.97589 9.65543,7.4634 1.59276,2.03518 1.94483,3.31224 1.94512,7.05562 4.3e-4,5.59067 -1.48748,6.4321 -4.4668,2.526 z m -121.9982,0.43207 c 3.88377,-2.05209 5.09717,-3.49171 7.75729,-9.20362 1.41396,-3.03616 4.06604,-7.35595 5.89347,-9.59954 1.82743,-2.24361 3.88919,-5.07331 4.58167,-6.28824 1.24225,-2.17941 1.25521,-2.13253 0.96943,3.50482 -0.33999,6.70661 -2.17339,11.38536 -6.214,15.85783 -3.25022,3.59759 -9.59326,7.01083 -12.94698,6.96686 l -2.32639,-0.0305 z m 23.04781,-4.8261 c 0.31308,-2.30457 0.54234,-9.16112 0.50949,-15.23679 -0.0497,-9.1932 -0.32967,-11.81061 -1.66868,-15.59968 -0.88493,-2.50416 -1.48823,-4.67374 -1.34066,-4.8213 0.14757,-0.14757 1.13018,1.21561 2.18357,3.02932 5.29061,9.10914 5.77818,25.92437 1.00187,34.55197 -1.25398,2.26509 -1.25443,2.26382 -0.68559,-1.92352 z m -65.85146,0.75652 c -3.59667,-1.44914 -4.16132,-6.68416 -0.90873,-8.4249 0.87951,-0.47068 2.84671,-0.69888 4.3716,-0.50712 2.69421,0.33887 10.3427,2.92141 11.20459,3.78329 0.56726,0.56727 -10.19132,5.92962 -11.77228,5.86759 -0.67697,-0.0266 -1.97981,-0.35004 -2.89518,-0.71886 z m 152.44189,-7.48878 c -0.0483,-4.22905 -0.52328,-6.86792 -1.72338,-9.57457 -0.9112,-2.05504 -1.5542,-3.839 -1.42888,-3.96431 0.63724,-0.63725 4.42425,5.32031 5.5291,8.69816 1.02746,3.14132 1.10084,4.36491 0.39073,6.51653 -1.71973,5.21083 -2.69571,4.61985 -2.76757,-1.67581 z m -127.92237,1.89066 c -4.3191,-2.01744 -6.69278,-5.36074 -7.07455,-9.96442 -0.32094,-3.87024 -0.17359,-4.34652 2.02524,-6.54536 2.35658,-2.35659 2.40822,-2.36828 8.28137,-1.87523 4.72955,0.39703 6.21434,0.26026 7.43367,-0.68476 1.4546,-1.12734 1.39243,-1.18198 -1.37105,-1.20511 -6.01367,-0.0503 -10.29912,-4.4611 -9.33378,-9.60676 0.81877,-4.36445 7.09259,-7.48705 9.41658,-4.68681 0.63052,0.75972 0.17978,0.90803 -2.0992,0.6907 -2.35149,-0.22425 -3.13657,0.058 -4.13789,1.48758 -2.02963,2.89769 -1.58751,6.3268 1.10816,8.59507 1.28919,1.08477 3.27903,1.97232 4.42188,1.97232 3.398,0 8.61272,-3.85908 10.88416,-8.05466 2.35177,-4.34396 4.00054,-12.3303 3.26605,-15.82018 -0.42043,-1.99776 -0.33308,-2.242 0.51208,-1.43181 0.60884,0.58364 1.13346,3.2437 1.30338,6.6085 0.39275,7.7776 -1.27833,12.52229 -6.26883,17.79901 -5.46919,5.78286 -7.19147,6.51933 -14.03557,6.0017 -5.23026,-0.39556 -5.78258,-0.29268 -7.46589,1.39063 -4.67348,4.67348 0.9302,13.31463 8.63437,13.31463 7.56811,0 15.37124,-5.24105 19.24093,-12.92337 3.7573,-7.4592 4.51624,-14.96969 2.69724,-26.69228 -0.39997,-2.57764 -0.35273,-2.544 1.41864,1.01027 3.55945,7.14199 3.25799,18.83871 -0.69366,26.91558 -2.41525,4.93662 -7.45412,10.24021 -11.88804,12.5126 -4.16397,2.13407 -12.89034,2.77326 -16.27529,1.19216 z m -59.49429,-4.11001 c 1.42622,-1.99032 5.15501,-8.93257 8.28623,-15.42726 4.79875,-9.95344 6.50468,-12.68469 10.85915,-17.38586 8.53388,-9.21332 16.90974,-13.99424 28.92288,-16.50912 6.85137,-1.43429 27.04816,-2.51986 27.03578,-1.45315 -0.005,0.37644 -1.9756,1.60861 -4.38056,2.73813 -6.77141,3.18032 -9.80605,6.227 -16.5928,16.65859 -10.21822,15.70593 -18.06105,22.94305 -30.21545,27.88182 -3.96172,1.6098 -24.02227,7.11558 -25.9259,7.11558 -0.32033,0 0.58446,-1.62844 2.01067,-3.61873 z m 32.05028,-27.23578 c 5.92268,-5.81328 11.70477,-10.35795 17.96578,-14.12093 3.46122,-2.08026 5.80988,-3.78201 5.21924,-3.78169 -1.75804,9.9e-4 -10.2185,4.2567 -15.2353,7.66356 -2.57228,1.74679 -7.46623,4.49863 -10.87544,6.11519 -6.59647,3.12786 -6.89591,3.98447 -0.5134,1.46872 l 3.83697,-1.51239 -3.32352,4.08039 c -3.26281,4.00585 -7.26121,9.63986 -8.44221,11.89567 -0.32905,0.62853 1.39554,-1.08563 3.83245,-3.8092 2.4369,-2.72358 5.82783,-6.32326 7.53543,-7.99932 z m 12.90867,1.90461 0.50486,-1.90461 -1.14754,1.90461 c -0.63115,1.04752 -1.14927,2.41883 -1.15138,3.04736 -0.004,1.01578 0.068,1.01578 0.6427,0 0.35557,-0.62853 0.87369,-1.99984 1.15136,-3.04736 z m -1.53111,-3.69948 c 0.29626,-0.47936 0.32951,-0.87155 0.074,-0.87155 -0.68318,0 -2.68089,5.0611 -2.62157,6.64162 0.028,0.74673 0.49154,-0.05 1.03,-1.77042 0.53846,-1.72045 1.22141,-3.52029 1.51767,-3.99965 z m -4.36373,3.55664 c -0.2432,-0.60774 -0.42372,-0.42723 -0.46027,0.46027 -0.0331,0.80311 0.14698,1.25307 0.40013,0.99992 0.25315,-0.25317 0.28022,-0.91024 0.0602,-1.46019 z m 9.31829,-3.28543 c 0.023,-0.41901 -0.29046,-0.2476 -0.69664,0.38091 -0.40618,0.62852 -0.71964,1.65701 -0.69663,2.28551 0.0442,1.20664 1.31393,-1.22333 1.39327,-2.66642 z m 3.40325,-2.32509 c 0.26016,-0.67799 0.13244,-0.98378 -0.29941,-0.71688 -0.41422,0.256 -0.75312,0.78804 -0.75312,1.18232 0,1.09585 0.54607,0.85438 1.05253,-0.46544 z M 270.67145,398.4996 c -0.73325,-0.19161 -1.93316,-0.19161 -2.66642,0 -0.73328,0.19163 -0.13332,0.34841 1.3332,0.34841 1.46655,0 2.0665,-0.15678 1.33322,-0.34841 z m 6.62126,42.85854 c -1.09035,-0.80474 -1.25583,-1.31796 -0.62992,-1.95358 0.63056,-0.64036 1.16941,-0.54159 2.09505,0.38406 2.36389,2.36389 1.24097,3.5668 -1.46513,1.56952 z m 130.33668,-2.14635 c -0.66652,-0.94277 -1.75832,-3.59969 -2.42621,-5.90426 -0.6679,-2.30457 -2.11129,-5.90425 -3.20755,-7.99931 -1.09625,-2.09506 -2.11892,-4.09481 -2.27261,-4.44389 -0.15367,-0.34907 0.74788,-0.10356 2.00346,0.54584 5.99869,3.10204 12.16899,14.0808 10.0934,17.95909 -1.08894,2.0347 -2.683,1.97481 -4.19049,-0.15747 z m -286.26518,-3.3936 c -1.91511,-2.11618 -2.82608,-5.15638 -3.33454,-11.12848 l -0.46625,-5.4762 4.34305,6.82319 c 4.97074,7.80935 5.64,10.57642 2.64253,10.92564 -1.1414,0.13296 -2.45662,-0.33953 -3.18479,-1.14415 z m 87.02688,0.32467 c -4.19394,-1.46391 -6.10269,-2.98629 -7.75403,-6.18445 -1.93737,-3.75218 -1.93845,-8.96474 -0.002,-13.43384 1.457,-3.36391 7.65576,-11.76004 8.24631,-11.1695 0.16764,0.16763 -0.55624,2.15447 -1.6086,4.41518 -2.44889,5.26069 -2.63471,12.30939 -0.43803,16.61525 3.24549,6.36168 9.62627,9.07792 15.07321,6.41652 2.6556,-1.29754 2.85883,-1.63164 2.80016,-4.60326 -0.0348,-1.76229 0.22231,-3.02766 0.57138,-2.81192 0.88961,0.54979 0.79178,4.67992 -0.15267,6.4446 -1.93519,3.61595 -11.59656,6.105 -16.73499,4.31142 z m 217.55364,-3.3355 c -1.84966,-1.00951 -10.21759,-7.17214 -12.97595,-9.55625 -0.87569,-0.75688 2.87628,-0.14317 8.84139,1.44618 5.11374,1.3625 9.25994,4.75129 8.89993,7.27411 -0.30425,2.132 -1.88318,2.40899 -4.76537,0.83596 z M 99.600411,423.25125 c -1.38806,-1.38806 -1.06544,-5.92118 0.694019,-9.75154 l 1.57475,-3.42828 1.44466,4.57105 c 2.14481,6.78645 1.69071,9.52298 -1.58028,9.52298 -0.67041,0 -1.63033,-0.4114 -2.133149,-0.91421 z m 26.385749,-4.19448 c -1.76258,-1.8764 -8.25396,-11.91405 -8.25396,-12.76315 0,-0.75966 12.38471,7.90773 13.42842,9.39782 3.09204,4.41452 -1.42773,7.35405 -5.17446,3.36533 z m 291.78033,-6.05788 c -3.07084,-2.78954 -5.75476,-5.2281 -5.96427,-5.41902 -0.95855,-0.87357 8.34478,0.88711 11.17287,2.11448 5.68863,2.46885 7.48628,8.3764 2.54892,8.3764 -1.61417,0 -3.61228,-1.30637 -7.75752,-5.07186 z m -8.8168,2.76422 c -2.11198,-0.84909 -13.1461,-8.24964 -13.1461,-8.81707 0,-0.81985 8.83557,0.65637 11.93472,1.99403 6.44972,2.78381 7.62463,9.40138 1.21138,6.82304 z m -298.08962,-4.57803 c -0.99245,-1.85439 -0.6882,-7.97019 0.39648,-7.97019 1.12884,0 4.42347,7.05419 3.91432,8.38101 -0.63604,1.65749 -3.34188,1.39963 -4.3108,-0.41082 z m 106.67308,0.84983 c 0,-1.13222 6.02138,-7.24272 6.58334,-6.68077 0.26714,0.26713 -0.43311,1.69033 -1.55611,3.16264 -2.16236,2.83502 -5.02723,4.8399 -5.02723,3.51813 z m 7.74371,-4.43945 c 1.75793,-2.82833 3.22025,-5.18554 3.2496,-5.23824 0.0294,-0.0528 0.82417,-0.33274 1.76626,-0.62231 l 1.71289,-0.52651 -1.71289,2.78575 c -2.2073,3.58982 -6.64408,8.74372 -7.52713,8.74372 -0.37673,0 0.75332,-2.31408 2.51127,-5.14241 z m 4.44573,2.15798 c 0,-1.73719 2.95579,-6.57813 5.45657,-8.93666 5.01987,-4.73431 22.38848,-12.00972 34.97892,-14.65205 7.09203,-1.48838 7.12844,-1.50736 2.98935,-1.55852 -2.30455,-0.0285 -7.71625,0.63283 -12.02598,1.46959 -9.04915,1.75694 -11.57642,1.81051 -15.78116,0.33461 -3.01855,-1.05955 -2.99337,-1.06618 2.66645,-0.7017 3.90761,0.25164 5.35255,0.13031 4.57103,-0.38382 -0.62852,-0.41346 -2.27718,-0.757 -3.6637,-0.76341 -1.38651,-0.006 -2.33112,-0.3188 -2.09911,-0.69418 0.2457,-0.39759 1.61626,-0.40518 3.28278,-0.0182 1.57353,0.3654 4.40368,0.62747 6.28923,0.58239 2.85132,-0.0681 2.55091,-0.18387 -1.78501,-0.68756 -5.91857,-0.68756 -7.55499,-1.47392 -3.10345,-1.49132 1.96164,-0.007 2.62975,-0.23603 1.95023,-0.66661 -1.26968,-0.8045 -0.65945,-1.20305 3.58509,-2.34157 4.70362,-1.26165 16.89708,-1.07501 24.44344,0.37415 6.58125,1.26382 15.36257,4.72782 16.45144,6.48966 0.42786,0.69229 0.25718,0.85086 -0.57297,0.53229 -0.65029,-0.24953 -4.73477,-0.68771 -9.07659,-0.97373 -15.86972,-1.04538 -29.72767,3.2802 -39.5029,12.33035 -4.93767,4.57142 -5.4558,4.63307 -2.98927,0.35568 1.13916,-1.97551 -0.0416,-1.02982 -4.16819,3.33836 -3.1667,3.35209 -5.76749,5.82393 -5.77957,5.49299 -0.0124,-0.33096 0.68765,-1.99262 1.55492,-3.69258 2.40399,-4.71222 1.20965,-4.35912 -2.1903,0.64753 -3.29891,4.85787 -5.48125,7.09318 -5.48125,5.6143 z m -82.2003,-2.15708 c 11.84529,-15.36862 22.44561,-24.3307 36.73508,-31.05787 15.86838,-7.47046 26.84623,-9.74875 47.36982,-9.83091 14.25362,-0.0571 16.36745,0.12699 32.7591,2.85246 21.18205,3.52195 25.7284,4.37118 25.36211,4.73746 -0.15417,0.15419 -3.69535,-0.20771 -7.86926,-0.80422 -10.02818,-1.43319 -19.64467,-1.40776 -26.85751,0.0711 -9.39438,1.92601 -12.42389,3.36679 -38.63123,18.37246 -11.99885,6.87024 -22.94014,9.85701 -39.99657,10.91832 -14.87193,0.92539 -20.64601,1.86834 -25.80611,4.21429 -3.35291,1.52435 -3.90761,1.61971 -3.06543,0.52701 z m 55.67874,-24.62288 c 6.1397,-2.26378 21.15518,-6.32953 21.62838,-5.85632 0.14206,0.14207 -1.61289,1.37751 -3.89989,2.74543 -2.28702,1.36792 -4.1582,2.78572 -4.1582,3.15067 0,0.36496 1.88697,-0.47273 4.19326,-1.86151 3.93747,-2.37101 17.42809,-7.26769 20.0229,-7.26769 0.64817,0 0.9866,-0.19189 0.75207,-0.42644 -0.82283,-0.82281 -20.10251,2.05733 -28.43739,4.2482 -9.4617,2.48706 -17.18956,5.57827 -23.72828,9.49149 -8.13872,4.87079 -8.30618,5.84671 -0.32745,1.90825 4.34533,-2.14495 10.6249,-4.90438 13.9546,-6.13208 z m -4.89543,-6.56551 c -0.72838,-0.19068 -2.09969,-0.1976 -3.04737,-0.0154 -0.94765,0.18222 -0.3517,0.33824 1.32435,0.34671 1.67605,0.009 2.4514,-0.14066 1.72302,-0.33134 z m 9.13319,-2.31705 c -1.57129,-0.16436 -4.14251,-0.16436 -5.7138,0 -1.57128,0.16436 -0.28569,0.29885 2.85691,0.29885 3.14257,0 4.42818,-0.13449 2.85689,-0.29885 z m 7.04701,-2.53126 c -1.88555,-0.33551 -4.62817,-0.59488 -6.09471,-0.57634 l -2.66644,0.0337 2.28552,0.58157 c 1.25703,0.31986 3.99965,0.57922 6.09471,0.57635 l 3.8092,-0.005 z m 7.99931,-1.4848 c -1.25703,-0.31986 -3.82824,-0.57347 -5.71379,-0.5636 l -3.42828,0.018 3.04736,0.5456 c 1.67606,0.30011 4.24725,0.55372 5.71379,0.5636 l 2.66644,0.018 z M 98.948951,404.70527 c -0.771,-2.00916 0.25549,-5.9532 2.519039,-9.67881 1.19359,-1.96456 2.4273,-3.58277 2.74156,-3.59601 0.31424,-0.0133 0.57008,2.1186 0.56852,4.73741 -0.002,3.40198 -0.43388,5.46845 -1.51247,7.23747 -1.60944,2.63965 -3.575389,3.23169 -4.316649,1.29994 z m 123.012399,-0.86806 c 0.54995,-0.22007 1.20704,-0.193 1.46019,0.0602 0.25317,0.25316 -0.19681,0.43321 -0.99991,0.40012 -0.8875,-0.0365 -1.06802,-0.21706 -0.46028,-0.46026 z M 120.3113,402.36378 c -12.54375,-4.44866 -18.82561,-22.15012 -13.1982,-37.19072 3.05567,-8.16702 13.25542,-20.33688 21.79565,-26.00556 9.3874,-6.23101 17.94945,-8.68043 30.40091,-8.69704 7.15893,-0.01 19.82629,1.59565 27.369,3.46818 3.63781,0.90312 -4.50433,-2.80403 -11.44093,-5.2091 -13.3351,-4.62356 -34.52062,-8.80508 -45.54559,-8.98964 -2.48555,-0.0416 -2.85905,-0.19954 -1.67512,-0.70829 2.10438,-0.90428 15.78899,-0.91211 21.2846,-0.0124 2.48828,0.40746 4.63397,0.63101 4.76822,0.49676 0.13425,-0.13425 -3.1015,-1.31828 -7.19057,-2.63119 -9.46868,-3.0402 -23.65416,-5.47181 -31.92135,-5.47181 -27.279009,0 -46.35845,17.19144 -37.90538,34.15451 2.62651,5.27073 6.38653,8.12758 10.696991,8.12758 2.35121,0 3.74518,-0.46922 4.93822,-1.66225 1.86936,-1.86937 2.13237,-5.70831 0.52458,-7.65651 -0.84277,-1.0212 -0.8204,-1.15465 0.141,-0.84077 0.62853,0.2052 1.90577,1.49916 2.83835,2.87547 5.780539,8.53104 0.29873,20.61626 -9.351481,20.61626 -8.24922,0 -17.04058,-10.39117 -18.36961,-21.71242 -0.48418,-4.12453 -0.5879,-4.32972 -1.0618,-2.10052 -1.84112,8.66075 5.17651,19.90047 15.5884,24.967 l 5.404181,2.62973 -3.268151,0.0128 c -3.69766,0.0144 -7.98933,-1.92848 -11.95898,-5.41388 -3.72597,-3.27143 -5.7035,-6.22812 -7.79203,-11.65015 -1.55038,-4.02494 -1.72411,-4.23887 -1.31861,-1.62376 0.90236,5.81943 5.24663,12.54485 10.96791,16.97951 l 3.46596,2.68654 -3.42828,-0.50176 c -4.93435,-0.7222 -11.24759,-5.26482 -14.21244,-10.22638 -6.08978,-10.19097 -4.72817,-23.11061 3.59452,-34.1064 4.35402,-5.75247 3.80123,-6.47103 -0.92955,-1.20831 -4.17459,4.64396 -7.05018,9.91914 -10.20469,18.72009 -2.22523,6.20826 -2.54082,6.7078 -3.02907,4.79468 -0.78982,-3.09479 0.2017,-9.18304 2.23546,-13.72627 4.84703,-10.82783 20.93737,-22.12877 36.519841,-25.64945 3.41807,-0.77227 5.29431,-1.43303 4.16942,-1.46836 -3.38647,-0.10629 -12.498681,2.07067 -17.528951,4.18788 -6.20106,2.61 -11.42157,6.00744 -16.80365,10.93562 -5.95068,5.44884 -5.5822,3.19164 0.43787,-2.68222 5.56164,-5.42657 12.701,-9.17865 22.60779,-11.88152 5.859981,-1.59877 8.069121,-1.76636 23.2361,-1.76278 14.38234,0.004 18.00359,0.25096 25.52163,1.74472 19.35264,3.84513 33.6091,9.2945 63.77786,24.3784 12.24168,6.12066 22.17029,11.21579 22.06355,11.32252 -0.10666,0.10667 -3.43753,-0.99764 -7.40174,-2.45417 -9.66882,-3.5525 -18.79339,-5.67359 -26.66138,-6.19766 -9.86262,-0.65693 -17.36944,1.16457 -38.44611,9.32888 -1.35699,0.52565 -1.32332,0.37033 0.30767,-1.41979 1.00725,-1.10548 4.8911,-3.59029 8.63078,-5.52175 7.02499,-3.62826 8.37202,-4.9421 3.17937,-3.10102 -3.22362,1.14296 -7.42408,3.60317 -14.82268,8.68167 -4.67867,3.21149 -8.27409,4.51129 -17.0617,6.16811 -5.41466,1.02088 -8.98792,4.07907 -12.49231,10.69163 -3.02413,5.70636 -4.08068,9.99461 -4.05532,16.45947 0.0519,13.24313 8.4214,23.34988 19.33529,23.34879 6.44196,-6.3e-4 10.74156,-2.31168 13.2421,-7.11761 2.35421,-4.52473 0.42744,-10.51313 -3.38259,-10.51313 -1.44911,0 -3.41006,1.8005 -4.14865,3.8092 -0.29076,0.79078 -0.43871,0.65116 -0.48032,-0.4533 -0.18371,-4.87497 7.81292,-5.73421 10.21083,-1.09718 2.35858,4.56099 0.87068,9.62408 -4.07136,13.85429 -5.11975,4.38231 -11.58343,5.53415 -18.09546,3.22465 z m 259.13753,0.24989 c -3.46503,-0.84463 -2.75774,-0.9254 8.38023,-0.95705 14.1202,-0.0401 19.22198,-0.89621 26.8148,-4.49943 6.37133,-3.02354 11.64661,-7.67821 17.48285,-15.42608 4.29816,-5.70599 7.5625,-8.28204 11.49034,-9.06761 4.34175,-0.86837 7.35315,4.65404 4.12895,7.57188 -0.7624,0.69005 -3.26446,1.9008 -5.55996,2.69057 -2.29552,0.78977 -5.55086,2.13855 -7.23411,2.99728 -3.31296,1.69014 -16.11055,11.57785 -14.98513,11.57785 0.37722,0 3.50397,-1.02849 6.94833,-2.28554 6.93537,-2.53109 12.32831,-2.96059 13.86871,-1.10451 1.85371,2.23356 -0.63353,3.3253 -9.57847,4.20431 -4.59606,0.45167 -11.78476,1.70632 -15.97487,2.78814 -6.32236,1.63232 -9.69208,2.00656 -19.80783,2.19981 -7.745,0.14796 -13.56928,-0.10356 -15.97384,-0.68962 z m -8.78593,-4.10846 c -14.49535,-2.37479 -25.98829,-5.50846 -34.74774,-9.47433 -5.09718,-2.30776 -15.53367,-8.6284 -15.53367,-9.40764 0,-0.21246 3.17116,1.30601 7.04701,3.37437 12.13557,6.47614 26.5349,10.49323 42.47254,11.8489 6.61875,0.56299 18.60154,-0.54102 28.91418,-2.66396 3.96096,-0.81538 7.32762,-1.35664 7.48148,-1.20279 0.66452,0.66452 -6.82554,5.02915 -11.10363,6.47033 -3.77677,1.27231 -6.39773,1.55473 -13.64994,1.47092 -4.9366,-0.0571 -9.83272,-0.24417 -10.88023,-0.4158 z m -138.27387,-1.76598 c 3.46364,-1.27807 3.60186,-1.41587 1.52367,-1.51891 -1.78746,-0.0887 -1.24213,-0.41164 2.50257,-1.48232 5.41881,-1.54935 7.3053,-2.79168 3.08019,-2.02841 -1.53862,0.27795 -2.98891,0.19565 -3.22285,-0.1829 -0.23396,-0.37854 2.0534,-0.92049 5.08299,-1.20434 3.02961,-0.28384 6.19403,-0.6781 7.03206,-0.87611 0.83802,-0.19801 -2.55655,1.70472 -7.54351,4.22832 -4.98696,2.52359 -9.78654,4.56178 -10.66576,4.52931 -0.92424,-0.0342 0.009,-0.65197 2.21064,-1.46464 z M 90.846011,391.69244 c -0.29702,-0.29701 -0.54003,-1.72335 -0.54003,-3.16966 0,-2.23422 0.75475,-3.3697 5.01926,-7.55107 2.76061,-2.7068 5.147959,-4.79275 5.305229,-4.6355 0.59839,0.59839 -2.791839,10.4013 -4.450369,12.86831 -1.65779,2.46589 -4.17982,3.64221 -5.33409,2.48792 z m 264.961019,-3.62967 c -13.63079,-1.98957 -26.29898,-6.61182 -36.56831,-13.3427 -5.79184,-3.79619 -16.2924,-13.35724 -15.52208,-14.13329 0.2621,-0.26406 3.86178,1.8203 7.99932,4.63193 9.0466,6.14752 16.30113,9.59393 23.67179,11.24573 14.34927,3.21572 27.50134,-0.0898 36.98927,-9.29647 4.92449,-4.7785 4.60352,-2.89363 -0.39272,2.30624 -6.50881,6.77408 -13.78016,10.14373 -25.31936,11.73333 l -3.80918,0.52473 3.2972,0.99668 c 1.81346,0.54818 6.72906,1.42498 10.92353,1.94846 19.18483,2.39425 36.05855,-5.23492 42.50342,-19.21725 2.15627,-4.67811 2.52031,-6.30904 2.51844,-11.28314 -10e-4,-3.19802 -0.41307,-6.84153 -0.91523,-8.09672 -1.50533,-3.76256 -4.65073,-7.33241 -7.51514,-8.52924 -3.2557,-1.3603 -2.16229,-2.49105 2.42631,-2.50915 2.47156,-0.01 3.48806,0.52001 6.19034,3.22616 2.56241,2.56606 3.43994,4.16383 4.22965,7.70125 1.367,6.12323 0.16756,14.26108 -3.0296,20.55519 l -2.38393,4.6931 2.32752,-2.66642 c 3.27163,-3.748 5.32472,-8.33313 6.31189,-14.09623 2.23047,-13.02132 -5.41047,-29.84631 -16.22838,-35.73416 -12.72784,-6.92735 -30.46728,0.58044 -30.46728,12.89454 0,7.92196 8.07636,12.16171 13.48601,7.07958 1.92899,-1.81218 2.39515,-6.37 0.93127,-9.1053 -0.73386,-1.37124 -0.66362,-1.44784 0.6722,-0.73291 1.86156,0.99626 2.43282,2.44679 2.43282,6.17723 0,8.09512 -12.21292,11.19096 -17.82704,4.51894 -4.47672,-5.32026 -4.22289,-12.6248 0.72992,-21.00525 5.78718,-9.79231 17.30434,-16.43065 30.42932,-17.53906 17.40001,-1.46945 29.45422,8.80877 30.66524,26.14723 0.20967,3.00175 0.10468,7.45852 -0.23328,9.90391 l -0.61447,4.44617 -0.98106,-7.99931 c -0.80333,-6.55018 -2.96297,-14.37547 -3.73412,-13.53042 -0.0996,0.10914 0.28983,2.4266 0.86517,5.15019 3.14127,14.87051 -0.61965,31.66229 -9.38516,41.90281 -4.06,4.74319 -2.46253,4.44564 1.9289,-0.35927 4.9703,-5.43829 8.85432,-11.87415 11.37284,-18.84489 1.61089,-4.45856 2.0713,-7.31088 2.3288,-14.42712 0.37622,-10.39673 -0.68189,-15.12315 -4.73342,-21.1437 -3.17059,-4.71148 -2.34933,-5.097 1.43637,-0.67428 3.99954,4.67256 6.12985,8.63015 8.05181,14.95824 1.43381,4.72083 1.63828,6.75784 1.29996,12.95128 -0.48467,8.87295 -2.25156,14.2523 -7.05404,21.47628 -12.73217,19.1519 -42.90806,30.95007 -69.30551,27.09708 z m 58.70992,-56.40427 c -0.68848,-4.59125 -5.03202,-13.2335 -8.34887,-16.61159 -4.79774,-4.88636 -6.40829,-4.86144 -1.7766,0.0275 4.87982,5.1508 7.69604,10.46497 9.09888,17.16939 1.03741,4.95799 1.79324,4.52707 1.02659,-0.5853 z m 2.60304,-2.02406 c -0.50514,-2.10567 -1.08176,-3.66518 -1.28137,-3.46557 -0.19962,0.1996 0.0775,2.331 0.61581,4.73641 0.5383,2.40542 1.11493,3.96493 1.28138,3.46558 0.16644,-0.49935 -0.11063,-2.63073 -0.61582,-4.73642 z m -175.38478,58.17244 c 1.36929,-0.16955 3.42626,-0.16606 4.57103,0.007 1.14478,0.17381 0.0244,0.31255 -2.48961,0.30827 -2.51407,-0.004 -3.45071,-0.1465 -2.08142,-0.31605 z m 161.51871,-5.89419 c 9.73867,-4.66713 19.73752,-13.00014 24.82682,-20.69059 7.68472,-11.61241 9.16158,-28.26866 3.66618,-41.3481 -7.5139,-17.88363 -26.92661,-30.30461 -44.85839,-28.70205 -5.85591,0.52335 -12.41575,2.46909 -15.95975,4.73389 -1.9137,1.22294 -2.04917,1.23374 -1.14503,0.0913 1.76395,-2.22903 7.88592,-5.22952 13.76182,-6.74493 24.83223,-6.40436 49.59393,8.11477 56.09717,32.89281 4.0543,15.44731 -1.57826,34.66183 -13.72303,46.81377 -6.06132,6.06488 -11.92601,9.88359 -20.37449,13.26653 -7.80116,3.12373 -9.09372,2.94742 -2.2913,-0.31255 z m 15.40485,-4.44474 c 0,-0.16418 2.03399,-1.92992 4.51999,-3.92387 8.1277,-6.51899 14.19438,-15.78586 17.23359,-26.3244 2.14804,-7.44838 2.03125,-20.72876 -0.24602,-27.97283 -0.9507,-3.0242 -1.91206,-6.10965 -2.13637,-6.85656 -0.22431,-0.74689 0.59221,0.52757 1.81451,2.83213 8.59543,16.20633 3.90116,39.5492 -10.93752,54.38789 -3.19172,3.19171 -10.24818,8.60216 -10.24818,7.85764 z m 21.33152,-16.43746 c 12.18401,-12.48455 18.22101,-17.62001 20.71311,-17.62001 0.5146,0 -0.4459,1.45702 -2.1342,3.23783 -1.6884,1.78079 -5.2315,5.80902 -7.8736,8.95161 -2.6422,3.14259 -6.38888,7.05175 -8.32602,8.68707 -3.50661,2.96022 -14.33582,10.33828 -15.23787,10.38171 -0.26048,0.0125 5.52586,-6.12465 12.85858,-13.63821 z m -86.49524,12.12866 c -2.34577,-0.95082 -3.58752,-2.82271 -3.0325,-4.5714 0.68598,-2.16137 1.9162,-1.95749 1.9162,0.31755 0,1.07681 0.62856,2.2142 1.47359,2.66644 1.90578,1.01995 2.00761,1.00779 3.42394,-0.40854 3.02876,-3.02876 -0.0769,-9.15129 -6.00878,-11.84577 -4.40248,-1.99977 -10.11657,-1.75456 -20.19834,0.86677 -9.0238,2.34626 -11.71732,2.63963 -16.11579,1.75533 -2.29739,-0.46189 -1.93641,-0.62443 3.38982,-1.52646 3.27858,-0.55523 9.10664,-1.92902 12.95127,-3.05287 13.02489,-3.80735 22.31759,-2.25563 27.24746,4.54983 2.36984,3.27149 2.7251,5.45444 1.3712,8.4259 -0.65841,1.44507 -3.80689,3.78295 -4.71333,3.49983 -0.0851,-0.0265 -0.85216,-0.33103 -1.70474,-0.67661 z m -202.24192,-0.6012 c -1.46655,-0.17623 -9.16083,-1.26384 -17.09841,-2.41694 l -14.43198,-2.09651 3.76622,-0.94541 c 4.85477,-1.21864 14.4711,-5.73006 22.11758,-10.37626 14.4473,-8.77857 25.28341,-12.01789 40.31028,-12.05027 12.43641,-0.0269 20.61234,1.7735 45.71037,10.06528 11.94699,3.94699 29.90749,9.12161 42.84535,12.34422 21.69838,5.4047 28.14079,7.46474 15.30871,4.89514 -3.49194,-0.69926 -13.7449,-3.11514 -22.78436,-5.36867 -35.66916,-8.89225 -42.78434,-8.84655 -76.50903,0.49144 -19.05079,5.27496 -29.11133,6.67448 -39.23473,5.45798 z m 8.4892,-11.1879 c 3.08266,-0.59753 7.14755,-1.28256 9.03311,-1.52231 l 3.42828,-0.43587 -1.79854,1.52229 c -2.15148,1.82104 -1.99105,1.85098 2.129,0.39735 5.77435,-2.03731 16.33852,-4.29387 21.76288,-4.64868 l 5.33288,-0.34882 -4.86214,1.94577 c -4.57237,1.8298 -8.76358,4.17669 -7.45898,4.17669 0.32354,0 1.58694,-0.51643 2.80755,-1.14763 4.01957,-2.07861 17.6597,-4.94166 23.98851,-5.03516 l 6.09472,-0.0899 -4.19011,-0.72807 c -2.30457,-0.40046 -10.36102,-0.57084 -17.90324,-0.37864 -14.15844,0.3608 -25.30556,1.90711 -39.6153,5.4954 -7.81516,1.9597 -7.0989,2.41631 1.25138,0.79773 z m 14.17553,-10.10449 c -0.73328,-0.19162 -1.93318,-0.19162 -2.66645,0 -0.73327,0.19162 -0.13331,0.34841 1.33321,0.34841 1.46656,0 2.0665,-0.15679 1.33324,-0.34841 z m 9.71344,-0.99853 c -1.25704,-0.31985 -3.65682,-0.57699 -5.33288,-0.5714 l -3.04735,0.01 2.66644,0.56125 c 1.46654,0.30872 3.86633,0.56584 5.33287,0.57143 l 2.66644,0.01 z m -8.96748,-1.22211 c -0.25315,-0.25316 -0.91024,-0.28022 -1.46019,-0.0602 -0.60774,0.24319 -0.42723,0.42373 0.46027,0.46028 0.80312,0.0331 1.25307,-0.14698 0.99992,-0.40013 z m 13.53853,-0.64039 c -3.65523,-1.13952 -9.13059,-2.06217 -8.50089,-1.43248 0.51014,0.51015 8.66674,2.37559 10.40548,2.37976 0.62852,10e-4 -0.22856,-0.42476 -1.90459,-0.94728 z m 3.04734,-1.94669 c -1.25702,-0.31986 -2.97117,-0.58795 -3.8092,-0.59577 -1.19394,-0.0111 -1.11151,0.11781 0.38094,0.59577 1.04752,0.33548 2.76166,0.60357 3.8092,0.59576 1.71078,-0.0128 1.672,-0.0735 -0.38094,-0.59576 z m 101.32465,19.28726 c -37.79413,-4.8331 -71.40936,-21.05567 -94.96571,-45.83007 -20.38949,-21.44378 -31.63659,-48.32609 -28.88132,-69.03074 1.90723,-14.33198 9.77616,-30.25885 19.26496,-38.99273 4.98332,-4.58685 9.20781,-7.26086 22.77767,-14.4178 6.86236,-3.61931 14.65913,-8.17539 17.32617,-10.1246 2.66705,-1.94922 5.47551,-4.00121 6.24105,-4.55996 0.9756,-0.71208 0.13008,1.90022 -2.82716,8.73473 -10.21432,23.60634 -21.31714,59.99544 -27.36329,89.68217 -4.39797,21.59406 -0.97641,35.13093 11.9655,47.33967 12.99912,12.26272 31.94143,21.78018 58.45323,29.36948 10.45275,2.99223 22.96086,7.37001 22.96086,8.03619 0,0.3288 -1.13799,0.28138 -4.95196,-0.20634 z m -87.57385,-45.38026 c -6.43178,-10.30112 -10.32252,-21.69222 -10.32252,-30.22182 0,-8.10957 1.79147,-13.45739 8.18719,-24.44016 0.77238,-1.32633 0.3741,-1.09503 -1.31181,0.76184 -4.5335,4.99322 -8.21914,14.61406 -8.46373,22.09334 -0.19398,5.93151 -1.30745,-1.17718 -1.38307,-8.82974 -0.12808,-12.96541 3.93396,-24.603 12.61567,-36.14346 2.27412,-3.02294 3.97849,-5.65254 3.78747,-5.84355 -0.73761,-0.7376 -8.96793,10.20993 -11.87126,15.7905 -1.67899,3.22722 -3.91837,9.08578 -4.97642,13.01903 l -1.92374,7.15135 0.34226,-7.6184 c 0.56906,-12.66745 5.34047,-26.96938 12.18044,-36.50998 1.8254,-2.54614 5.60614,-7.20055 8.40161,-10.34314 7.12008,-8.00411 7.73673,-9.7364 1.25306,-3.51998 -3.00658,2.88264 -5.67776,5.02992 -5.93595,4.77173 -1.07338,-1.07338 -9.66384,13.05913 -13.30439,21.88755 -3.60585,8.74426 -4.69998,13.98318 -5.16095,24.7116 l -0.43569,10.13983 -4.50099,-9.75891 c -2.47554,-5.36741 -5.63526,-13.18719 -7.0216,-17.37733 -1.38635,-4.19011 -2.53206,-6.90187 -2.54604,-6.02612 -0.0539,3.37287 3.1836,13.87549 6.76929,21.96048 4.86564,10.9711 6.35998,14.77634 10.49646,26.72865 3.63471,10.5025 8.92557,21.39348 13.23761,27.2491 3.27409,4.44607 4.59419,4.70322 1.8871,0.36759 z m -22.65203,-32.95278 c -0.47808,-1.0493 -1.01277,-1.76431 -1.18814,-1.58892 -0.35583,0.35581 1.18882,3.49673 1.71962,3.49673 0.18577,0 -0.0534,-0.8585 -0.53148,-1.90781 z m 0.90192,-3.27944 c 0,-0.33894 -0.51981,-1.28171 -1.15514,-2.09506 -1.07114,-1.3713 -1.08995,-1.32649 -0.25863,0.61622 0.89699,2.0962 1.41377,2.63676 1.41377,1.47884 z m -1.60131,-41.6784 c -0.42589,-4.16297 -0.97333,-7.74874 -1.21652,-7.96837 -0.51032,-0.4609 0.24219,9.81085 0.99127,13.53069 0.91403,4.53895 1.01177,2.12544 0.22525,-5.56232 z m 2.35504,-3.79667 -0.51233,-6.85656 -0.11026,5.33288 c -0.0938,4.53334 0.45449,9.34685 0.97962,8.60092 0.0855,-0.12128 -0.0752,-3.30613 -0.35699,-7.07724 z m 4.8846,-15.6177 c 0.33719,-2.3982 0.25802,-2.32157 -0.78698,0.76184 -0.67132,1.9808 -1.28592,7.12739 -1.45565,12.18943 l -0.29374,8.76115 1.08073,-9.523 c 0.5944,-5.23764 1.24944,-10.72289 1.45564,-12.18942 z m -10.42554,14.66541 c -0.17455,-1.15229 -0.31736,-0.20951 -0.31736,2.09506 0,2.30455 0.14281,3.24734 0.31736,2.09505 0.17457,-1.15227 0.17457,-3.03782 0,-4.19011 z m 12.9616,-6.83957 c -0.16492,-1.58064 -0.30262,-0.47409 -0.30601,2.45899 -0.004,2.93309 0.13157,4.22633 0.29987,2.87389 0.16829,-1.35243 0.17107,-3.75223 0.006,-5.33288 z m 117.14819,125.76386 c -10.08116,-1.30074 -17.39853,-5.29281 -27.63119,-15.07452 -2.2078,-2.11051 -5.29324,-4.64454 -6.85656,-5.63119 -2.73407,-1.72557 -2.75707,-1.77484 -0.60332,-1.2931 2.71823,0.608 5.19535,2.33017 11.77584,8.18691 5.99876,5.33898 12.24707,8.5767 19.50605,10.10752 6.31762,1.33227 10.50854,1.51847 8.76115,0.38923 -0.62852,-0.40619 -2.22084,-0.74376 -3.5385,-0.75017 -3.76759,-0.0183 -11.73833,-2.84716 -15.63067,-5.5473 -1.9533,-1.35504 -6.84825,-5.46343 -10.87768,-9.12979 -7.1908,-6.54286 -7.28007,-6.66591 -4.82879,-6.65691 1.37361,0.005 3.98947,0.86211 5.81305,1.9046 1.82356,1.04248 3.4566,1.89542 3.62895,1.89542 0.17237,0 -0.19584,-1.2856 -0.81823,-2.8569 -1.09805,-2.77221 -1.09271,-2.80131 0.18025,-0.98158 5.876,8.39993 12.02198,13.87914 18.27819,16.29522 5.64637,2.18057 5.92508,1.36287 0.46786,-1.37263 -3.10179,-1.55481 -6.8012,-4.24289 -9.05398,-6.57882 l -3.80919,-3.94983 4.41733,3.53726 c 6.63533,5.31336 11.44909,7.49039 17.28025,7.81505 l 4.9668,0.27651 -4.36331,-1.11861 c -5.7076,-1.46322 -11.16867,-4.28513 -13.5285,-6.99059 -1.04125,-1.19377 -1.40123,-1.74195 -0.79995,-1.21819 1.40126,1.22058 2.57621,1.23396 1.82642,0.0208 -0.31664,-0.51234 0.60591,-0.14471 2.05009,0.81697 4.85073,3.23002 10.47761,5.5025 14.566,5.88261 l 4.05843,0.37733 -5.7557,-1.77049 c -9.89895,-3.04499 -14.78622,-6.71671 -18.3808,-13.80917 l -1.58943,-3.1361 4.29027,4.0409 c 5.86784,5.52676 11.49969,8.03798 18.76924,8.36914 5.34337,0.2434 5.98544,0.0965 9.9039,-2.26568 3.33168,-2.00844 4.5971,-3.36086 6.17657,-6.60118 1.77828,-3.6482 2.03665,-3.88769 2.46557,-2.28551 2.2696,8.47763 -1.85788,18.83425 -9.61728,24.13149 -5.32531,3.63555 -14.82574,5.83235 -21.49913,4.97131 z m -2.28551,-16.26642 c -0.7584,-0.83803 -1.7543,-1.51228 -2.21313,-1.49834 -0.45882,0.014 -0.0249,0.69959 0.96432,1.52368 2.32652,1.93819 3.01318,1.92426 1.24881,-0.0254 z m -42.77713,11.03374 c -7.00118,-2.07078 -18.21475,-6.75164 -23.26607,-9.71192 -9.95074,-5.83152 -20.0031,-15.49744 -24.52356,-23.5808 -2.16897,-3.87845 -7.3296,-17.59318 -7.3296,-19.47887 0,-0.25361 1.867,2.26282 4.14889,5.59204 4.84299,7.06584 9.53044,12.10842 16.42077,17.66484 2.72357,2.19633 8.89447,7.2055 13.71312,11.13151 8.14687,6.63772 19.47157,14.59921 26.3902,18.55287 3.79096,2.16634 2.17751,2.11705 -5.55375,-0.16967 z M 114.11345,336.81121 c -1.28656,-0.51914 -1.19878,-2.22021 0.22688,-4.39606 2.35979,-3.60147 13.5452,-6.84145 22.05693,-6.38902 l 4.57104,0.24296 -4.95196,1.82237 c -2.72358,1.0023 -8.12816,3.48781 -12.01017,5.52334 -6.92455,3.63088 -7.97492,3.97026 -9.89272,3.19641 z m 134.58084,-5.10759 c -10.15202,-7.69221 -18.42994,-17.06308 -24.17985,-27.37233 -4.84117,-8.67999 -9.26681,-25.49829 -9.26681,-35.21578 0,-5.94005 2.12226,-16.05787 4.58062,-21.83807 2.22637,-5.23471 7.44953,-13.98507 8.01205,-13.42256 0.17364,0.17364 -1.01475,2.868 -2.64086,5.98747 -6.02368,11.55559 -9.00574,26.30569 -7.67578,37.96661 0.36929,3.23789 1.01836,6.72391 1.44237,7.74669 0.42402,1.0228 1.30807,3.81344 1.96457,6.20143 1.68252,6.12017 2.63588,6.11907 1.34585,-10e-4 -1.55069,-7.35739 -0.85731,-15.87584 1.72127,-21.14626 1.85522,-3.79194 4.49817,-6.38704 5.49231,-5.3929 0.21932,0.21935 -0.33818,1.43375 -1.23889,2.6987 -5.09236,7.15154 -6.3412,19.58196 -3.13239,31.17825 0.96567,3.48982 2.49947,7.26094 3.40846,8.38024 0.90898,1.1193 2.79379,3.84798 4.18848,6.06372 1.39469,2.21573 2.63252,3.92987 2.75075,3.8092 0.11831,-0.12066 -0.68129,-2.79064 -1.77671,-5.93324 -2.61164,-7.49232 -2.76804,-15.57078 -0.39823,-20.56966 l 1.62525,-3.42828 -0.35767,6.09473 c -0.19671,3.35208 -0.0627,7.63743 0.29799,9.52298 l 0.65567,3.42828 1.09048,-6.09471 1.09046,-6.09472 0.42832,10.28484 c 0.39989,9.60259 0.58622,10.59107 2.80884,14.90144 1.30928,2.53915 2.97196,5.10747 3.69485,5.7074 1.05145,0.87263 0.9708,0.41746 -0.40327,-2.27593 -1.03243,-2.02372 -1.83651,-5.21217 -2.01572,-7.99293 l -0.29813,-4.62619 1.07306,4.64586 c 1.3855,5.99869 3.96034,10.95322 8.77043,16.8761 2.12678,2.61882 3.74914,4.7615 3.60524,4.7615 -0.14391,0 -3.14226,-2.18264 -6.66301,-4.85031 z m 67.49708,3.39303 c -6.27731,-2.93291 -6.3097,-3.49468 -0.20158,-3.49468 4.48587,0 6.08055,-0.33952 8.4168,-1.79199 5.56006,-3.45679 7.8479,-9.02755 5.85749,-14.26271 -1.19022,-3.13052 -0.28087,-3.14392 2.64746,-0.039 9.79905,10.39001 -3.37477,25.82369 -16.72017,19.58835 z m -62.34687,-3.29364 c -3.1934,-3.89713 -6.5816,-10.84182 -6.59216,-13.51174 -0.005,-1.2892 0.84285,-0.10889 2.68858,3.74254 1.48281,3.09411 3.7273,7.15371 4.98773,9.02133 3.01895,4.47324 2.34785,4.93617 -1.08415,0.74787 z m -59.92836,-4.98072 c -9.787,-6.92933 -23.67534,-20.88353 -29.25767,-29.39641 -5.23228,-7.97907 -11.13606,-19.72077 -15.75894,-31.34211 -3.64691,-9.16792 -16.81798,-36.07012 -22.3488,-45.64799 -1.91589,-3.31778 -3.34719,-6.16859 -3.18065,-6.33511 0.3723,-0.37231 7.41492,10.96695 11.93474,19.21602 1.83428,3.34769 7.00135,13.70338 11.48241,23.01263 10.99311,22.83787 19.85873,37.75715 30.2024,50.82527 4.73521,5.98242 16.18572,17.71023 21.49754,22.01814 5.23461,4.24528 3.4452,3.32516 -4.57103,-2.35044 z m 68.57837,1.94929 c 0.0152,-3.86815 3.93442,-13.95477 7.33678,-18.88204 3.76316,-5.44976 9.75618,-10.54429 15.71129,-13.35579 6.19997,-2.9271 14.54691,-4.52662 28.09561,-5.38395 l 8.57299,-0.54247 -4.53359,5.26053 c -2.49348,2.8933 -7.10525,7.83173 -10.24839,10.97433 -6.74296,6.74175 -14.60602,11.05152 -25.90152,14.1968 -9.07216,2.52615 -13.56626,4.75586 -16.63859,8.25505 l -2.4074,2.74188 z m 20.93776,-9.73996 c 1.94134,-0.83421 -0.0616,-0.83421 -2.66644,0 -1.53109,0.49035 -1.60579,0.61435 -0.38092,0.63235 0.83803,0.0124 2.20934,-0.27224 3.04736,-0.63235 z m 7.8502,-13.52934 c 10.97983,-5.35645 14.1724,-7.36967 8.614,-5.432 -1.34637,0.46935 -2.65602,0.64528 -2.91034,0.39097 -0.25432,-0.25433 -0.83677,-0.15803 -1.29434,0.21398 -2.28332,1.85639 -17.21024,8.97248 -17.2023,8.20084 0.005,-0.49011 0.86212,-2.38314 1.90459,-4.2067 2.09909,-3.67184 2.27779,-4.24812 1.08956,-3.51376 -0.44324,0.27394 -1.67554,2.33483 -2.73849,4.57979 -1.06293,2.24496 -3.61432,6.00353 -5.66975,8.3524 -2.05543,2.34885 -3.73717,4.43164 -3.73717,4.62841 0,0.19676 2.3141,-1.41608 5.14243,-3.58412 2.82833,-2.16803 10.38914,-6.50144 16.80181,-9.62981 z m -4.48541,10.76184 c 0.76458,-0.67407 -4.24159,-0.17822 -5.26938,0.52191 -0.81882,0.55776 -0.27888,0.63379 1.90459,0.26819 1.67606,-0.28064 3.19021,-0.63619 3.36479,-0.7901 z m 2.53946,-3.10303 c -0.94276,-0.18158 -2.4855,-0.18158 -3.42827,0 -0.94278,0.18159 -0.17142,0.33016 1.71414,0.33016 1.88556,0 2.65691,-0.14857 1.71413,-0.33016 z m -187.16761,15.3391 c -2.188329,-2.18833 -0.94245,-5.05092 2.7864,-6.40217 3.5653,-1.292 18.50976,-2.04444 17.80012,-0.89623 -0.29816,0.48245 -0.98083,0.87719 -1.517,0.87719 -0.53618,0 -4.48011,1.71413 -8.76428,3.8092 -4.28418,2.09506 -8.0861,3.80919 -8.44874,3.80919 -0.36264,0 -1.19806,-0.53872 -1.8565,-1.19718 z m 246.18659,-8.27496 c -0.87989,-8.5253 -8.06945,-17.91412 -14.66543,-19.15153 -4.80102,-0.90067 -9.33499,0.2919 -12.72893,3.34809 -2.11052,1.9005 -2.83192,2.27652 -2.24337,1.16935 1.19333,-2.24484 5.31317,-5.60906 8.52026,-6.95757 3.63548,-1.52863 11.20961,-1.50731 14.1714,0.0399 3.21707,1.68054 6.79214,5.90388 7.98815,9.4366 1.19494,3.52961 1.32632,13.03748 0.20728,15.00207 -0.66042,1.15945 -0.88538,0.63965 -1.24936,-2.8869 z m -91.56297,0.0595 c -0.9972,-3.55017 0.0903,-18.63758 1.81501,-25.18118 3.12752,-11.86573 8.1427,-21.65291 16.956,-33.08985 2.7954,-3.62756 6.49151,-8.55086 8.21357,-10.94068 l 3.13101,-4.34511 -4.56378,0.1265 c -3.82128,0.10604 -4.86822,-0.15953 -6.43497,-1.63139 -1.02914,-0.96683 -2.07887,-2.58539 -2.33271,-3.59681 -0.61356,-2.44458 1.43519,-6.27443 3.84698,-7.19139 2.95086,-1.12192 4.03552,-0.80537 1.30713,0.38148 -6.03144,2.62363 -4.57576,9.7109 2.2211,10.81388 4.20259,0.68199 8.07724,-1.56683 9.9499,-5.77488 2.04126,-4.58689 2.51962,-13.53523 1.02105,-19.09983 -0.62048,-2.304 -1.05138,-4.26586 -0.95754,-4.3597 0.45758,-0.45758 6.50753,9.8214 7.94618,13.50075 3.28176,8.39304 4.14772,13.54275 3.77668,22.45977 -0.29254,7.03075 -0.72418,9.34674 -2.65661,14.25402 -4.51634,11.46901 -9.10465,16.2967 -26.19798,27.56483 -9.86482,6.503 -14.38983,13.20227 -15.76016,23.33292 -0.58519,4.32613 -0.74705,4.67705 -1.28086,2.77667 z m 16.51161,-40.21454 c 3.57324,-4.75938 7.55918,-10.33039 8.85765,-12.38 2.96644,-4.6825 6.69785,-13.60545 7.36206,-17.60493 0.39049,-2.35134 -0.28662,-1.3223 -2.96457,4.50539 -3.99472,8.69322 -5.88216,11.72112 -11.91316,19.11164 -5.19343,6.36414 -10.82938,15.99862 -12.9294,22.10243 -2.2699,6.59757 -1.8727,6.45137 1.78503,-0.65705 1.81807,-3.53322 6.22915,-10.31809 9.80239,-15.07748 z m 5.4067,8.54521 c 1.59334,-0.96509 2.72301,-1.92869 2.51041,-2.1413 -0.54097,-0.54097 -6.82319,3.23083 -8.13454,4.88389 -1.02369,1.29043 -0.97933,1.30057 0.82258,0.18806 1.04752,-0.64676 3.20823,-1.96554 4.80155,-2.93065 z m 7.76879,-7.30808 2.28553,-1.98389 -2.28553,1.4723 c -1.25703,0.80976 -4.00293,2.33734 -6.10199,3.39461 -2.09906,1.05726 -4.67026,2.65027 -5.71379,3.54001 -1.08947,0.92889 0.53551,0.32823 3.81647,-1.41072 3.14258,-1.66563 6.74228,-3.92118 7.99931,-5.01231 z m -4.57103,0.43542 c 1.25703,-0.85513 1.99322,-1.55703 1.63596,-1.5598 -1.06957,-0.009 -8.10999,4.13748 -8.11083,4.77604 -8.6e-4,0.65101 2.93031,-0.80499 6.47487,-3.21624 z m -0.32997,-2.79382 c 1.02619,-1.25981 0.95144,-1.25826 -1.24404,0.0258 -1.28472,0.75139 -3.17026,2.03454 -4.19012,2.85144 -1.80794,1.44818 -1.77687,1.44754 1.24405,-0.0258 1.70408,-0.83111 3.58962,-2.11425 4.19011,-2.85146 z m 3.75825,-6.12289 c 0,-0.55111 -2.93612,1.22267 -3.47965,2.10213 -0.28444,0.46023 0.38213,0.24754 1.48124,-0.47263 1.09912,-0.72018 1.99841,-1.45345 1.99841,-1.6295 z m 7.85191,-13.17186 c 2.1285,-3.60566 1.04661,-2.76985 -2.61797,2.02254 -5.03017,6.57826 -5.69848,7.84441 -2.04887,3.88172 1.8098,-1.96506 3.90988,-4.62197 4.66684,-5.90426 z m -131.10921,51.37035 c -3.47321,-1.81368 -11.70108,-5.42977 -18.28415,-8.03575 C 123.5076,294.95753 117.24252,291.2032 102.58925,278.29595 85.6386,263.3651 74.44664,250.54028 68.99493,239.80043 c -5.02459,-9.89844 -8.01382,-24.25429 -7.20363,-34.5955 0.74484,-9.50686 1.0144,-9.86383 2.9207,-3.86795 3.58207,11.26661 11.27099,19.60872 26.355821,28.59488 8.10489,4.82816 10.884359,7.0354 18.665069,14.82243 14.26786,14.27949 27.51348,29.03192 33.03985,36.79845 10.5126,14.77402 13.79996,19.00348 19.81348,25.4917 5.29584,5.71388 6.89566,7.67327 5.99876,7.34697 -0.1048,-0.0382 -3.03218,-1.55321 -6.5054,-3.36689 z m -11.5883,-10.5531 c 0,-0.15189 -2.4855,-2.10892 -5.52333,-4.34895 C 112.35994,272.07811 107.59877,267.9371 95.977791,253.51354 92.095451,248.6949 85.88847,242.01491 82.18453,238.66911 c -7.72947,-6.9821 -7.30554,-6.24207 2.92437,5.10492 4.055301,4.49814 9.494441,11.27541 12.086971,15.06061 7.677549,11.20952 19.101219,20.87793 41.608039,35.2149 9.53733,6.07531 11.68737,7.2567 11.68737,6.42188 z M 125.2871,286.75673 c -0.17459,-0.15275 -2.20299,-0.48342 -4.50755,-0.73483 -2.7364,-0.29852 -3.66149,-0.22074 -2.66643,0.22417 1.44216,0.64482 7.84858,1.10084 7.17398,0.51066 z m -7.93583,-5.05517 c -0.83801,-0.36011 -2.55216,-0.63827 -3.80918,-0.61815 l -2.28554,0.0367 2.28554,0.58156 c 1.25702,0.31986 2.97117,0.59804 3.80918,0.61816 l 1.52369,0.0367 z m -8.76115,-5.7138 c -3.49102,-1.34438 -5.6147,-1.32247 -2.66643,0.0275 1.25703,0.57558 2.97117,1.0359 3.8092,1.02292 0.9887,-0.0154 0.58749,-0.38412 -1.14277,-1.05044 z m 24.41904,-2.9417 c -1.06699,-2.80637 -1.665,-2.52775 -0.67431,0.31415 0.44568,1.27843 0.95167,2.18304 1.12446,2.01027 0.17277,-0.17279 -0.0299,-1.21878 -0.45015,-2.32442 z m -3.90017,-3.48314 c -0.92425,-2.1485 -1.80853,-3.77829 -1.96504,-3.62178 -0.15652,0.15653 0.45349,2.06058 1.35557,4.23126 0.90209,2.17065 1.78637,3.80045 1.96505,3.62176 0.1787,-0.17869 -0.43131,-2.08274 -1.35558,-4.23124 z m -4.05755,-3.18424 c -1.03412,-2.67622 -1.9041,-4.29642 -1.93329,-3.60044 -0.0704,1.67764 3.22265,10.2389 3.55491,9.24213 0.14223,-0.4267 -0.5875,-2.96545 -1.62162,-5.64169 z m -3.93329,-2.15711 c -1.14651,-2.55476 -2.23692,-4.49265 -2.42315,-4.30642 -0.18623,0.18623 0.59945,2.42885 1.74596,4.98362 1.1465,2.55475 2.23693,4.49265 2.42315,4.30642 0.18623,-0.18622 -0.59945,-2.42885 -1.74596,-4.98362 z m -3.31621,-0.88357 c -0.81719,-1.84187 -1.51002,-2.93196 -1.5396,-2.42241 -0.0629,1.08315 2.38146,6.41519 2.76508,6.03158 0.14317,-0.14315 -0.40831,-1.76729 -1.22548,-3.60917 z m -3.57156,-2.45694 c -0.66651,-1.95613 -1.53081,-3.75371 -1.92064,-3.99465 -0.38984,-0.24092 -0.0151,1.3871 0.83277,3.61786 0.84785,2.23074 1.54173,4.19875 1.54194,4.37333 2.1e-4,0.17459 0.1708,0.14702 0.37908,-0.0613 0.20828,-0.20828 -0.16663,-1.97915 -0.83315,-3.93527 z m -4.20122,-2.71187 c -0.46936,-1.34638 -0.98669,-2.31462 -1.14964,-2.15168 -0.16294,0.16295 0.0878,1.39785 0.55709,2.74422 0.46934,1.34637 0.98669,2.31462 1.14963,2.15167 0.16295,-0.16295 -0.0878,-1.39785 -0.55708,-2.74421 z m -5.19383,-5.85287 c -0.8781,-1.98513 -1.77951,-3.42638 -2.0031,-3.20279 -0.22358,0.22359 0.35947,1.9832 1.29569,3.91021 2.21281,4.55465 2.78291,3.98456 0.70741,-0.70742 z m 142.93602,46.33613 c -5.64772,-17.71524 -6.10392,-20.14117 -5.71217,-30.37571 0.31703,-8.28212 0.44679,-8.83242 3.56828,-15.13188 3.69275,-7.45224 10.02101,-14.7279 17.19911,-19.77392 6.78783,-4.7717 7.13473,-4.9286 5.55489,-2.5127 -2.10109,3.21302 -3.61426,10.23995 -3.61426,16.7841 0,7.71743 -2.08583,15.82675 -6.42931,24.99593 -4.93507,10.41804 -6.02593,15.6713 -5.95563,28.68062 0.0323,5.97092 -0.022,10.85621 -0.12053,10.85621 -0.0986,0 -2.11923,-6.08519 -4.49034,-13.52265 z m 3.27795,-28.37852 c -1.97869,-25.78685 -2.53828,-18.54573 -1.00084,12.95128 l 0.5392,11.04666 0.68386,-6.09471 c 0.44885,-4.00014 0.37247,-10.15296 -0.22222,-17.90323 z m 4.28394,-18.66507 c -0.33813,-1.00943 -1.90994,4.5329 -2.37664,8.38025 -0.24635,2.03085 0.13094,1.26849 1.13109,-2.28553 0.82542,-2.93308 1.38592,-5.6757 1.24555,-6.09472 z m 1.79224,-3.8092 c 0,-0.41901 -0.33233,-0.2476 -0.73851,0.38093 -0.40618,0.62852 -0.73851,1.48557 -0.73851,1.90459 0,0.41901 0.33233,0.2476 0.73851,-0.38091 0.40618,-0.62852 0.73851,-1.48559 0.73851,-1.90461 z m -29.38465,56.30899 c -3.43112,-8.21186 -3.22158,-19.13937 0.51368,-26.7877 1.27897,-2.61882 2.5953,-4.7615 2.92518,-4.7615 0.32989,0 -0.23951,2.82833 -1.2653,6.28517 -2.35208,7.92622 -3.00704,18.42147 -1.49761,23.99795 1.255,4.63655 0.9618,5.18574 -0.67595,1.26608 z m -9.38313,-0.22574 c -2.08178,-2.92358 -4.03739,-7.59105 -3.65761,-8.72964 0.16169,-0.48477 1.56373,1.64845 3.11564,4.74048 2.99325,5.9638 3.2397,7.77777 0.54197,3.98916 z m -113.23395,-2.27927 c -1.56665,-1.44501 -24.38737,-7.53911 -25.19765,-6.72884 -0.16878,0.16878 4.06891,1.43236 9.417091,2.80799 13.969219,3.59305 14.207989,3.9222 2.48646,3.42773 C 71.26839,300.24314 59.76386,296.05365 51.96636,286.59392 l -2.33446,-2.83209 2.68335,0.50339 c 1.47583,0.27688 7.62775,0.81886 13.67092,1.20441 13.48256,0.86017 19.56064,2.79448 33.971861,10.81136 5.376159,2.99073 9.917689,5.56201 10.092289,5.71394 0.17458,0.15194 -0.69963,0.27625 -1.9427,0.27625 -1.24306,0 -2.58582,-0.30039 -2.98387,-0.66754 z m 225.73303,-17.67245 c -2.36028,-1.38388 -1.51867,-3.82045 2.6403,-7.64399 2.18544,-2.00918 3.81086,-3.81571 3.61204,-4.01452 -0.1988,-0.19882 -1.81755,0.0272 -3.59723,0.50218 -2.78977,0.74465 -3.41708,0.68235 -4.55143,-0.452 -1.01763,-1.01763 -1.12728,-1.61433 -0.48408,-2.63403 0.63437,-1.0057 2.00228,-1.34578 5.76788,-1.43398 4.6758,-0.10964 10.11719,-2.04422 14.38558,-5.11478 0.66169,-0.476 -0.32471,0.50586 -2.19201,2.1819 -8.93941,8.02391 -9.81668,9.07229 -10.32627,12.34056 -0.6426,4.12129 -3.36934,7.37412 -5.25478,6.26866 z m -181.50327,-6.31605 c -1.67331,-2.15212 -7.6728,-8.99639 -13.33219,-15.20951 -24.87347,-27.30714 -27.78726,-31.01832 -33.91655,-43.1984 -3.118049,-6.19618 -7.874459,-13.5371 -9.814089,-15.14684 -3.72023,-3.08752 2.77904,-1.54898 10.952119,2.59263 12.65341,6.41197 21.14262,15.78319 30.71765,33.90918 4.41169,8.3515 19.08713,40.37781 18.67343,40.7511 -0.13089,0.11806 -1.60707,-1.54607 -3.28037,-3.69816 z m -13.71809,-20.77166 c -1.67604,-1.48571 -3.73301,-3.03222 -4.57104,-3.43672 -0.83802,-0.40447 0.19047,0.81833 2.28551,2.71734 2.09508,1.89901 4.15204,3.44552 4.57105,3.43669 0.41901,-0.009 -0.60947,-1.23161 -2.28552,-2.71731 z m -2.66643,-8.25451 c 0,-0.56243 -5.60516,-4.21792 -6.46203,-4.21431 -0.42651,0.001 0.76727,1.0288 2.65282,2.28224 3.60234,2.3947 3.80921,2.49963 3.80921,1.93207 z m -2.67318,-7.27583 c -0.52518,-0.84976 -6.4689,-4.04361 -6.4689,-3.47605 0,0.32416 6.17206,4.22507 6.71106,4.24158 0.12947,0.004 0.0206,-0.34052 -0.24216,-0.76553 z m 88.90195,31.40465 c -0.24355,-12.23426 2.6667,-22.77668 8.92018,-32.3135 8.16888,-12.45787 17.7839,-18.1545 27.31166,-16.18134 l 2.86197,0.5927 -3.69455,0.58349 c -5.67201,0.89578 -11.00007,3.90987 -17.50173,9.90076 -12.13701,11.1835 -16.41783,21.03346 -17.51752,40.30691 -0.14489,2.53949 -0.29459,1.40142 -0.38001,-2.88902 z m 98.41187,4.03178 c -1.35992,-3.5439 3.53092,-4.77039 6.48474,-1.62621 l 1.69296,1.80208 -2.41724,0.48344 c -3.76696,0.75339 -5.28502,0.57965 -5.76046,-0.65931 z m 28.26671,-1.18606 c -0.75347,-1.21915 0.20614,-3.88347 2.31677,-6.43233 l 1.89254,-2.28553 0.004,3.28791 c 0.002,1.80835 -0.3511,3.95101 -0.78487,4.76149 -0.85831,1.60378 -2.63595,1.9504 -3.42823,0.66846 z m -124.81407,-4.90867 c 0.68385,-4.28698 2.78219,-8.12456 5.9755,-10.92834 4.03328,-3.54125 5.03551,-2.92439 1.35499,0.83397 -1.74392,1.7808 -4.21608,5.46621 -5.49369,8.18978 -2.15234,4.58833 -2.28722,4.7282 -1.8368,1.90459 z m -62.36029,-2.09505 c -2.49043,-3.85763 -8.56676,-18.22293 -11.65786,-27.56076 -4.21868,-12.74406 -6.31173,-23.11475 -7.33045,-36.32083 -1.52425,-19.7594 1.3652,-35.21749 9.77046,-52.2703 5.05789,-10.26158 7.10259,-12.57123 4.47753,-5.05772 -2.39989,6.86908 -5.37932,18.78267 -6.83056,27.31291 -5.00864,29.43999 -1.79519,58.81347 9.48047,86.65924 1.99364,4.92338 3.52855,8.9516 3.41092,8.9516 -0.11769,0 -0.71187,-0.77135 -1.32051,-1.71414 z m 195.70834,-1.07927 c -1.14132,-1.14133 -0.37461,-4.26033 1.77762,-7.23141 l 2.28551,-3.15506 v 3.75399 c 0,4.70281 -2.27659,8.41903 -4.06313,6.63248 z m 8.54705,-4.91209 c -1.81923,-1.81925 -1.71958,-5.20667 0.42328,-14.38784 2.07871,-8.90636 1.33325,-19.01896 -2.21831,-30.09266 -0.26877,-0.83803 0.34779,0.0191 1.37017,1.90459 2.84033,5.23842 3.83259,11.40612 3.24796,20.18876 -0.43383,6.51711 -0.2594,8.57503 1.20665,14.23621 1.6754,6.46956 1.68192,6.65304 0.29119,8.18978 -1.78204,1.96911 -2.3178,1.96429 -4.32094,-0.0389 z m -202.73846,-5.40744 c -0.30167,-1.97447 -0.35748,-6.94548 -0.12402,-11.04668 0.30668,-5.387 0.19904,-7.13952 -0.38777,-6.31396 -1.25196,1.76135 -1.03791,-7.04571 0.31021,-12.76353 1.34791,-5.71688 5.49603,-14.2539 9.71579,-19.99556 l 3.07947,-4.19012 -2.77804,2.62313 c -1.6401,1.54862 -4.50613,6.07359 -6.99677,11.04666 -4.70193,9.38837 -5.53774,13.42004 -5.77368,27.85045 -0.11657,7.12223 -0.19429,7.53989 -0.71002,3.80921 -0.86786,-6.27806 -0.83237,-17.43723 0.0763,-23.9698 2.6778,-19.25272 16.05727,-36.97736 27.91243,-36.97736 1.80327,0 3.27869,0.20263 3.27869,0.45028 0,0.24764 -1.11419,1.75257 -2.47598,3.34424 -2.31643,2.70751 -11.47911,18.72335 -14.60934,25.53629 -6.58074,14.32307 -8.86077,22.73699 -9.49649,35.04462 -0.39466,7.64095 -0.56226,8.5526 -1.0207,5.55213 z m 1.24341,-25.9655 c 0.55202,-5.64744 2.81845,-11.49129 6.5732,-16.94864 1.32575,-1.9269 2.24589,-3.66805 2.04474,-3.86919 -0.64097,-0.64098 -6.47988,8.72306 -8.02112,12.8637 -1.53048,4.11169 -3.07409,16.38281 -1.79553,14.27348 0.38098,-0.62852 0.92039,-3.47223 1.19871,-6.31935 z m 0.97699,2.3673 c -0.24321,-0.60773 -0.42373,-0.42721 -0.46027,0.46028 -0.0331,0.80311 0.14697,1.25307 0.40012,0.99992 0.25315,-0.25317 0.28022,-0.91024 0.0602,-1.4602 z m 3.2315,-11.28475 c -0.0166,-1.68678 -2.27199,4.35629 -2.59595,6.95546 -0.36023,2.89004 -0.2161,2.67593 1.09234,-1.62258 0.82904,-2.72357 1.50567,-5.12338 1.50361,-5.33288 z m 58.7189,36.98946 c 0,-1.34002 3.33522,-6.24924 5.32878,-7.84361 4.67364,-3.73781 4.69288,-2.45054 0.0379,2.53548 -2.70499,2.89734 -5.01907,5.41073 -5.14241,5.58533 -0.12326,0.17458 -0.22427,0.0499 -0.22427,-0.2772 z m 116.94236,-1.86812 -3.04736,-1.407 2.28552,-0.55401 c 10.33748,-2.50585 11.68533,-3.14703 16.57001,-7.88245 3.74534,-3.6309 4.51408,-3.3561 2.38604,0.85297 -2.28721,4.52386 -5.04983,7.54858 -8.20185,8.97997 -3.93534,1.78711 -6.13952,1.78942 -9.99236,0.01 z M 326.82249,253.929 c -2.26717,-2.26716 -2.38445,-4.4721 -0.34629,-6.51025 2.05905,-2.05904 5.00716,-1.91866 7.27211,0.34629 2.34047,2.34047 2.41634,5.27933 0.17677,6.84798 -2.43544,1.70586 -4.9554,1.46317 -7.10259,-0.68402 z m 13.48712,-5.85926 c 0.54056,-1.6094 3.80756,-5.40039 8.82396,-10.23924 6.71754,-6.47979 8.18189,-8.32266 9.34629,-11.76214 l 1.38069,-4.07851 0.52653,3.51111 c 1.05928,7.06376 -1.2273,13.72482 -6.21456,18.10369 -2.88667,2.53453 -8.77815,5.57036 -12.63811,6.51232 -2.06924,0.50495 -2.07744,0.49125 -1.2248,-2.04723 z m -110.13552,-3.01451 c 0.79724,-0.88092 2.47879,-2.1054 3.73682,-2.72108 2.0632,-1.00971 1.98872,-0.85558 -0.76004,1.57308 -3.33657,2.948 -5.28619,3.69989 -2.97678,1.148 z m -76.68616,-3.15771 c -5.35036,-19.86976 -6.36693,-39.85122 -2.80607,-55.15581 7.08793,-30.46396 29.62576,-48.47979 51.74912,-41.36617 4.55485,1.46457 6.20939,2.49153 9.80148,6.08362 2.91619,2.91619 4.72857,5.51596 5.57299,7.99422 2.209,6.48302 1.34281,13.43137 -2.02254,16.22437 -0.93412,0.77524 -0.97848,0.42129 -0.3121,-2.49078 2.77027,-12.10618 -14.09882,-23.24471 -30.105,-19.87808 -6.77509,1.42504 -11.07588,4.06367 -16.60035,10.18471 -5.62913,6.23702 -5.94748,7.74719 -0.56141,2.66322 5.57061,-5.25816 11.44076,-7.98226 17.89914,-8.3063 5.06143,-0.25394 5.08095,-0.24764 1.1798,0.38108 -8.30412,1.33838 -19.03543,8.34457 -22.33451,14.58162 -0.53816,1.01743 1.09433,-0.29356 3.62777,-2.91329 8.95079,-9.25571 24.5052,-13.536 32.19644,-8.85991 1.04752,0.63687 1.30882,0.97522 0.58066,0.75188 -3.65565,-1.12123 -9.2079,-1.31808 -12.90106,-0.45737 -5.63156,1.31245 -15.07934,6.32951 -18.20816,9.66912 l -2.61144,2.78737 3.91733,-2.80625 c 10.5759,-7.57621 23.75541,-10.50123 30.93681,-6.86606 2.30598,1.16728 2.88263,2.25053 0.76184,1.43112 -6.08079,-2.34939 -13.52809,-1.83115 -20.37921,1.41816 -2.09506,0.99364 -4.74568,2.02228 -5.89027,2.28588 -2.15392,0.49604 -7.7849,4.93926 -7.11216,5.61199 0.2095,0.2095 1.60425,-0.6932 3.09945,-2.00599 2.42647,-2.13048 4.18919,-2.99448 4.18919,-2.05333 0,0.18347 -1.58583,1.46909 -3.52405,2.8569 -1.93824,1.38783 -4.85228,4.47576 -6.47564,6.8621 -3.77588,5.55046 -3.79426,6.3871 -0.0359,1.63239 7.84897,-9.92967 16.92232,-15.37923 26.72461,-16.0511 4.50221,-0.30858 6.4109,-0.11743 8.23194,0.82422 5.17315,2.67515 6.88839,7.52117 4.24559,11.99505 -1.62927,2.75815 -2.41024,2.837 -1.90468,0.1923 0.49762,-2.6031 -1.59203,-6.48067 -4.37999,-8.12756 -2.78755,-1.64663 -8.54341,-1.64041 -12.101,0.0131 -1.52986,0.71105 -6.39544,4.91069 -10.81239,9.33254 -8.69561,8.70522 -13.30637,15.76705 -18.46526,28.28138 -3.54141,8.59069 -4.56776,15.07126 -4.24487,26.80297 0.14706,5.34298 0.19487,9.71403 0.10629,9.71344 -0.0887,-5.8e-4 -0.55318,-1.45712 -1.03238,-3.23677 z m 19.50148,-61.66855 c 4.48386,-4.65324 3.90849,-4.80432 -1.03868,-0.27275 -2.22064,2.03409 -4.44231,4.99169 -3.74963,4.99169 0.13261,0 2.28735,-2.12353 4.78831,-4.71894 z m -6.8745,-1.28061 c 1.69817,-1.91543 1.86504,-2.32004 0.65421,-1.58629 -0.89397,0.54173 -2.22829,2.04163 -2.96515,3.3331 -0.73688,1.29148 -1.03128,2.00532 -0.65422,1.58631 0.37704,-0.41902 1.71136,-1.91892 2.96516,-3.33312 z m 22.78473,-28.42225 c 3.67832,-0.78886 13.82343,-0.52651 16.82501,0.43509 0.83802,0.26847 0.32378,-0.10493 -1.14275,-0.82965 -4.15464,-2.05327 -14.60695,-1.85348 -19.046,0.36408 -1.88554,0.94193 -2.74338,1.51499 -1.90629,1.27344 0.83709,-0.24153 3.20859,-0.80086 5.27003,-1.24296 z m 144.91678,89.98079 c -3.88883,-3.05897 -1.84588,-8.32493 3.22968,-8.32493 2.65657,0 6.19056,2.82691 6.19056,4.95194 0,1.84047 -3.50385,4.95196 -5.57642,4.95196 -1.01007,0 -2.73978,-0.71054 -3.84382,-1.57897 z m -193.9975,-8.84375 c -3.77617,-9.96977 -4.85571,-17.75686 -4.89201,-35.28765 -0.0197,-9.53413 0.28974,-17.10209 0.7405,-18.10843 0.55554,-1.2403 0.68954,1.17485 0.47415,8.54576 -0.37593,12.86449 1.67646,31.24018 4.92781,44.12019 1.48854,5.89678 0.84811,6.27072 -1.25045,0.73013 z m 205.41771,-8.4328 c 0.20928,-1.5713 0.5025,-3.47232 0.65162,-4.22451 0.56606,-2.8554 -1.22113,-11.48935 -3.22816,-15.5953 -1.14943,-2.35149 -3.75269,-6.09622 -5.78503,-8.32167 -5.32659,-5.83264 -2.79903,-4.98594 3.27228,1.09618 6.12538,6.1363 8.43172,11.26557 8.40547,18.69363 -0.0149,4.18749 -2.09846,11.20856 -3.3264,11.20856 -0.20366,0 -0.19905,-1.2856 0.01,-2.85689 z m 23.11648,0.5128 c -1.70586,-4.11831 -8.32073,-14.53202 -12.11605,-19.07416 -13.08405,-15.65863 -30.00894,-23.86601 -51.09237,-24.77617 -4.81864,-0.20801 -10.81811,-0.0546 -13.33219,0.34094 l -4.57103,0.71916 7.61839,0.0974 c 17.29563,0.22111 30.09266,3.85082 30.09266,8.53539 0,2.68404 -2.92572,2.46763 -9.38623,-0.69428 -10.74185,-5.25728 -13.31936,-5.85108 -25.27747,-5.82344 -8.74962,0.0202 -11.75398,0.33532 -16.72324,1.75385 -12.81483,3.65816 -23.51537,9.70142 -35.47115,20.0328 -7.42859,6.41928 -5.94759,3.59136 2.0901,-3.99098 14.88009,-14.03714 35.12142,-22.16663 59.62729,-23.94809 16.64451,-1.20997 37.82932,4.64678 50.40063,13.93375 9.7389,7.19456 17.12609,18.63384 18.96971,29.37521 0.9911,5.77432 0.66992,7.13747 -0.82905,3.51864 z M 313.75542,212.9324 c -1.83739,-0.82906 -3.16705,-3.32025 -5.17749,-9.70034 -0.72619,-2.30457 -1.80365,-4.96148 -2.39436,-5.90426 -1.64496,-2.62542 -0.26151,-2.06619 4.71272,1.90498 5.27906,4.21455 8.58966,9.78229 7.27608,12.23676 -1.04474,1.95212 -2.36419,2.38911 -4.41695,1.46286 z m -189.50314,-6.91706 c -5.08761,-8.3942 -13.05017,-16.30826 -19.85609,-19.73516 -2.93519,-1.47791 -9.095279,-3.77317 -13.689099,-5.10056 C 74.2411,176.42175 67.05919,171.12346 61.12274,159.35445 c -1.7151,-3.40017 -4.51861,-13.9398 -3.90218,-14.67005 0.12392,-0.14682 1.53364,0.78034 3.13271,2.06033 3.95639,3.16694 8.31475,4.96887 17.76327,7.34407 4.39962,1.106 10.410051,3.16484 13.356491,4.57522 10.448549,5.00136 19.430519,15.35863 27.535679,31.75188 4.04771,8.18672 9.60749,21.24225 9.20775,21.6217 -0.10964,0.10406 -1.89357,-2.60588 -3.96418,-6.02226 z m -8.09393,-14.28132 C 111.33017,184.95345 102.37497,177.51418 92.591491,172.15654 86.59,168.86998 78.11654,164.94888 78.11654,165.45823 c 0,0.1644 1.62843,1.24219 3.61874,2.39506 15.314011,8.87067 26.68862,16.99064 32.90854,23.49234 3.22038,3.36626 3.72758,3.49634 1.51453,0.38839 z m 9.86672,4.07011 c -1.96172,-5.06468 -6.08872,-17.29531 -8.67607,-25.71209 -3.60939,-11.74151 -6.40157,-18.28293 -10.17726,-23.84289 -3.94767,-5.81318 -10.833669,-12.07747 -14.002489,-12.73826 -6.068731,-1.26548 -8.136141,-5.60059 -3.58377,-7.5147 1.95491,-0.82199 2.15049,-1.12477 1.22343,-1.89416 -0.6069,-0.50369 -2.85128,-1.1228 -4.987531,-1.37581 -4.6906,-0.55552 -6.00736,-1.78081 -4.78853,-4.45587 0.81681,-1.79268 0.72018,-1.8976 -2.17352,-2.36032 -3.83348,-0.61301 -3.94765,-1.81558 -0.17141,-1.80575 6.19752,0.0161 16.057511,6.99037 22.72604,16.07472 2.90947,3.9635 7.93638,13.81809 10.38194,20.35243 2.20265,5.88531 2.66431,3.68191 0.57015,-2.72113 -4.10871,-12.56264 -12.11877,-24.7178 -19.774559,-30.00765 -5.526081,-3.81829 -9.853431,-5.2331 -15.943881,-5.21275 -5.87141,0.0197 -9.89224,1.59802 -14.36532,5.63917 -4.02925,3.64019 -5.4947,6.92878 -5.50893,12.36246 -0.009,3.15801 -0.22678,4.12304 -0.75019,3.31314 -0.40616,-0.62852 -0.74374,-3.24628 -0.75017,-5.81726 -0.0372,-14.90352 16.77023,-24.71406 33.839151,-19.752 7.6891,2.2353 13.095529,6.27603 17.901949,13.37983 4.40462,6.50994 6.50253,12.8742 9.54304,28.94989 1.54539,8.17073 4.62307,22.14097 6.83927,31.04497 3.81771,15.33827 4.47441,18.8593 2.62866,14.09403 z m 125.40995,1.52919 c 2.89682,-3.00433 20.19071,-8.35737 29.33081,-9.07888 10.10834,-0.79794 19.42692,2.38122 19.42692,6.62774 0,2.92957 -2.61337,2.726 -9.74725,-0.75927 -4.74778,-2.31953 -7.69896,-3.23721 -11.5744,-3.59912 -3.85174,-0.35966 -5.0601,-0.25652 -4.65591,0.39746 0.30021,0.48577 1.19215,0.88322 1.98208,0.88322 0.78993,0 2.39813,0.8355 3.57378,1.85665 2.01498,1.75023 2.06326,1.93215 0.84183,3.17312 -1.22096,1.24049 -1.62882,1.24325 -7.06867,0.0479 -7.91615,-1.73945 -15.21257,-1.50171 -21.34736,0.69554 -1.04353,0.37376 -1.2836,0.29674 -0.76183,-0.24439 z M 128.80234,176.90527 c -1.06066,-9.9042 -0.56414,-24.074 1.136,-32.41977 1.82889,-8.97781 3.91421,-14.66815 9.18214,-25.05577 4.74,-9.34664 5.34381,-10.95693 5.99889,-15.99865 l 0.54443,-4.190111 2.07014,4.486681 c 3.0247,6.55552 4.28102,12.17599 4.28102,19.15213 0,9.00162 -2.63419,16.72437 -8.66478,25.4028 -7.19661,10.35644 -10.48513,17.66068 -12.36932,27.47395 -0.59819,3.11548 -1.21104,5.78793 -1.36189,5.93878 -0.15086,0.15086 -0.51834,-2.00465 -0.81663,-4.79004 z m 10.94839,-35.66699 c 2.17213,-5.39427 3.8057,-9.95137 3.63018,-10.1269 -1.10056,-1.10057 -8.05265,15.28102 -10.43026,24.57741 -2.15045,8.40813 -1.73136,9.44072 0.74391,1.83289 1.15878,-3.56159 3.88407,-10.88913 6.05617,-16.2834 z m 136.25914,20.83597 c -3.29051,-0.82772 -7.83526,-3.56774 -10.24308,-6.17553 -5.61617,-6.08264 -6.40705,-18.79553 -1.4585,-23.44445 l 1.60166,-1.5047 v 3.71304 c 0,3.07428 0.38696,4.11692 2.24925,6.06074 2.94176,3.07053 6.8521,4.11875 11.48867,3.07968 5.02066,-1.12515 7.20361,-2.41599 10.93919,-6.46862 4.91087,-5.32767 7.17688,-10.89029 7.23727,-17.76615 0.0466,-5.29408 0.11397,-5.5171 1.05112,-3.46952 0.98004,2.14148 0.99389,2.11715 0.64846,-1.13918 -1.18749,-11.19427 -14.76653,-25.818311 -27.67571,-29.805561 -6.10309,-1.88505 -9.74493,-1.94238 -4.24207,-0.0668 6.41795,2.1875 9.99182,4.98366 12.06727,9.44129 1.83473,3.9406 2.42926,8.457281 1.21224,9.209451 -0.35312,0.21824 -1.81013,-1.18435 -3.23781,-3.11687 -6.55351,-8.870891 -16.27022,-13.240961 -29.14996,-13.110161 l -7.72861,0.0785 7.23748,0.99576 c 9.98871,1.37427 15.45929,3.58378 20.36842,8.22663 2.21505,2.0949 3.90456,3.931711 3.75448,4.081781 -0.15009,0.1501 -2.5242,-1.236791 -5.27581,-3.081941 -13.9369,-9.34573 -31.5286,-10.17388 -47.35011,-2.22908 -7.23753,3.63433 -17.47078,10.704821 -23.53283,16.259591 -6.80998,6.2401 -7.35696,5.71225 -0.89156,-0.86041 18.34254,-18.646871 40.33086,-30.424921 62.57627,-33.518971 9.1831,-1.27725 21.27721,0.57517 28.70436,4.39657 3.45174,1.77598 1.98701,1.83303 -3.34131,0.13013 -5.71681,-1.82706 -21.2648,-2.80724 -24.34615,-1.53484 -1.51235,0.62451 -0.44668,0.79643 5.17453,0.83477 17.31671,0.11806 31.08982,6.01807 39.46874,16.90711 5.32218,6.916581 8.94398,17.580031 7.50782,22.104941 -0.4216,1.32834 -0.87967,0.74255 -2.59057,-3.31273 -2.40537,-5.70139 -6.68048,-12.39604 -9.64514,-15.1039 -1.69371,-1.547 -1.51602,-1.0683 0.99815,2.68898 4.47001,6.6802 6.23579,10.4717 7.89112,16.94399 5.50817,21.53674 -5.1341,40.14202 -23.4667,41.02552 -2.83207,0.13648 -6.43232,-0.0747 -8.00058,-0.4691 z m 10.72023,-6.73799 c 5.69187,-2.31013 11.35843,-7.78579 12.71799,-12.28951 0.39757,-1.31707 -0.41688,-0.65344 -2.64014,2.15122 -5.15716,6.50577 -12.16246,10.01199 -20.07927,10.04988 -1.85463,0.009 -2.16487,0.18848 -1.29572,0.75017 1.78769,1.15529 7.66896,0.81079 11.29714,-0.66176 z m -165.59815,-0.481 c -0.40332,-2.51408 -0.71293,-10.57054 -0.68803,-17.90324 0.0579,-17.03095 1.91546,-25.41307 8.693,-39.226041 7.99274,-16.28965 21.88469,-32.26752 32.61452,-37.51172 5.55207,-2.71358 6.2863,-2.87399 13.11871,-2.86593 8.79543,0.01 13.28236,1.71848 18.35943,6.98911 2.9866,3.10044 3.14488,3.43259 1.44839,3.0395 -8.43213,-1.95378 -15.24939,-1.11417 -25.14069,3.09632 -24.24035,10.31855 -37.75143,25.85164 -44.24025,50.861061 -2.07928,8.01398 -2.43736,10.92821 -2.90187,23.61702 -0.476,13.00262 -0.60448,14.01 -1.26321,9.90392 z m 38.21425,-3.8092 c 0.26882,-1.67605 1.30283,-5.78999 2.29776,-9.14208 4.15048,-13.9835 5.70796,-20.46869 6.26145,-26.07182 l 0.5853,-5.92543 0.61834,5.20116 c 0.92505,7.78138 -0.514,14.74973 -5.72369,27.71606 -2.63588,6.56038 -4.32369,9.99609 -4.03916,8.22211 z m 22.3805,-18.26844 c 3.82419,-4.1581 11.39626,-9.5993 17.24444,-12.39165 5.85037,-2.79339 6.19827,-2.86085 14.75282,-2.86085 7.76716,0 9.19333,0.21264 12.57035,1.87418 2.09507,1.0308 5.26395,3.21504 7.04198,4.85388 3.25335,2.99867 6.76302,7.90895 6.11568,8.55629 -0.46294,0.46294 -17.21397,-2.41955 -22.61009,-3.89072 -2.34338,-0.63886 -7.38512,-1.36871 -11.20387,-1.62186 -5.86972,-0.38908 -7.81319,-0.19791 -12.57035,1.23659 -3.09493,0.93327 -7.34129,2.73595 -9.43636,4.00595 l -3.8092,2.30909 z m 106.85506,-3.25352 c 4.57266,-4.77499 6.55082,-14.25298 4.45212,-21.33152 -1.05178,-3.54748 -0.24811,-3.05282 1.51469,0.93229 2.01276,4.55017 2.643,12.11457 1.3323,15.9908 -1.08995,3.22339 -4.99965,6.50349 -7.75184,6.50349 -1.45376,0 -1.42467,-0.1346 0.45273,-2.09506 z m 40.45734,1.20402 c -2.25074,-1.08984 -3.45781,-3.99264 -2.59926,-6.25079 0.37952,-0.99825 2.2269,-3.25545 4.10524,-5.01598 4.29152,-4.02232 5.40177,-6.6126 4.73633,-11.05005 -0.65045,-4.33761 -1.94865,-5.26061 -1.94865,-1.38549 0,3.441 -1.7599,6.3092 -3.87126,6.3092 -2.42429,0 -2.99129,-2.90923 -1.72011,-8.82587 0.67507,-3.1421 0.95866,-6.959171 0.70271,-9.458281 l -0.42911,-4.19012 1.60226,1.90461 c 0.88124,1.04751 2.7395,4.16264 4.12945,6.9225 6.58394,13.072961 6.5802,28.017651 -0.007,31.019331 -2.33324,1.06311 -2.54555,1.06405 -4.69983,0.0209 z m -156.16908,-9.41674 c 0.68363,-5.81666 3.97286,-13.47381 8.1455,-18.9622 1.8577,-2.443491 4.18376,-5.513751 5.16904,-6.822811 0.98527,-1.30906 2.82849,-4.54639 4.09601,-7.19408 1.92659,-4.02432 2.22617,-5.38635 1.82633,-8.30339 -0.26305,-1.91917 -0.86951,-3.96081 -1.34768,-4.53697 -0.47816,-0.57615 -0.67439,-1.24258 -0.43603,-1.48094 0.23835,-0.23835 1.45443,0.97615 2.70239,2.69892 4.67405,6.45233 5.18255,17.30367 1.16368,24.832021 -1.31719,2.46743 -6.06192,8.04942 -12.00724,14.12612 l -9.82952,10.04667 z m -57.60976,-1.0321 c -0.95361,-7.40963 -4.33708,-13.13767 -13.03831,-22.073201 -12.430319,-12.76505 -18.09691,-23.03416 -20.30852,-36.80344 -1.06305,-6.61844 -0.67355,-28.03515 0.56575,-31.10814 0.72884,-1.80724 0.79677,-1.73558 1.32867,1.40201 1.09541,6.46138 6.096161,14.82716 13.616881,22.7798 10.381589,10.97776 14.280719,17.23198 17.298159,27.7462 1.91504,6.67296 2.68061,21.999531 1.70629,34.159841 -0.61394,7.66242 -0.66317,7.82655 -1.16892,3.89693 z m -1.72715,-13.61036 c -1.17022,-7.284771 -3.06798,-13.988781 -5.4203,-19.147701 -2.98999,-6.55736 -9.876759,-17.15632 -12.928009,-19.8966 -1.90649,-1.71218 -1.84693,-1.51977 0.58952,1.90461 6.929179,9.7388 12.670139,21.91352 15.912889,33.745981 1.82436,6.65699 2.59884,8.08086 1.8459,3.39371 z m 171.70658,12.26155 c -0.75358,-0.90892 -1.04558,-3.72792 -1.04558,-10.09438 0,-8.17183 -0.15287,-9.104251 -2.04143,-12.452021 -2.43768,-4.32115 -1.70568,-4.5911 2.39747,-0.88414 4.2772,3.86418 7.03026,9.832391 7.08227,15.353181 0.0684,7.25058 -3.4219,11.66052 -6.39273,8.07736 z m -38.75663,-2.87094 c -1.88556,-0.53999 -6.43638,-1.87948 -10.11294,-2.97662 -8.26218,-2.46554 -14.78017,-3.14894 -20.74156,-2.17466 -2.51407,0.41087 -4.66287,0.66175 -4.77508,0.55752 -0.11223,-0.10431 1.85036,-1.28449 4.3613,-2.62282 10.3915,-5.53862 19.58892,-7.19157 28.44154,-5.11151 6.5336,1.53518 8.54063,2.58651 13.91363,7.2883 2.38577,2.08775 4.98116,4.0001 5.76751,4.24968 0.78636,0.24958 1.42974,0.7735 1.42974,1.16428 0,1.05585 -14.3137,0.76294 -18.28414,-0.37417 z m 73.71292,-20.056371 c -1.09685,-1.15229 -2.71514,-4.03105 -3.59622,-6.39723 -1.86237,-5.00157 -6.56347,-10.66266 -11.40329,-13.732 -4.66345,-2.95747 -3.34508,-2.70015 4.14212,0.80847 11.68414,5.47538 18.59653,14.31909 15.58713,19.94222 -1.0808,2.01949 -2.37813,1.84902 -4.72974,-0.62146 z m -153.92909,-0.96421 c -3.93238,-3.09322 -4.30231,-9.20168 -0.79215,-13.08036 2.17341,-2.40158 2.57093,-1.49762 0.61129,1.39005 -1.03489,1.52502 -1.88162,3.25017 -1.88162,3.83367 0,2.21722 2.18268,6.14432 4.28651,7.71235 1.50811,1.12403 1.80632,1.63911 0.95864,1.65573 -0.67676,0.0133 -2.10896,-0.66686 -3.18267,-1.51144 z m 166.27132,-2.786 c -5.61898,-7.04945 -14.42892,-13.85247 -22.06064,-17.03521 -5.5082,-2.29715 -6.29797,-3.07608 -2.18713,-2.15708 5.61081,1.25432 13.76101,5.65857 18.56668,10.03315 4.11614,3.74692 10.2342,12.26163 9.40565,13.09018 -0.18093,0.18093 -1.85699,-1.58803 -3.72456,-3.93104 z m -124.59704,-0.87784 c 2.19998,-4.25434 3.12779,-12.33998 2.12874,-18.55155 -0.49362,-3.06891 -1.10924,-6.43692 -1.36809,-7.48446 -0.46115,-1.86632 -0.42992,-1.85867 1.55421,0.38093 1.82018,2.05455 1.93032,2.09305 1.0899,0.38092 -0.51419,-1.04754 -1.86654,-4.89657 -3.00521,-8.55339 -1.86618,-5.99317 -1.9327,-6.57514 -0.67468,-5.90187 0.7676,0.41083 2.50237,2.28802 3.85502,4.17155 1.35266,1.88355 2.56379,3.32022 2.69141,3.1926 0.12761,-0.12763 -0.12398,-1.5214 -0.5591,-3.09727 -1.10501,-4.00202 -4.62501,-9.74258 -9.49114,-15.4785 -5.57806,-6.5751 -6.3882,-10.13957 -2.30456,-10.13957 4.43936,0 9.07671,7.48458 12.29778,19.84834 2.5072,9.62362 2.53005,19.2351 0.067,28.15289 -1.80841,6.54736 -5.10341,13.92983 -6.64156,14.88047 -0.46158,0.28527 -0.29942,-0.52522 0.36036,-1.80109 z m 125.92439,-6.6326 c -4.34074,-4.36904 -6.56614,-7.08442 -5.5875,-6.81772 11.60877,3.16378 17.24412,6.4692 17.24412,10.11458 0,1.77956 -1.88388,3.96412 -3.41852,3.96412 -0.56328,0 -4.27043,-3.26742 -8.2381,-7.26098 z m -200.94024,-7.5949 c 4.78075,-18.22002 4.75441,-18.14695 11.11962,-30.85448 6.19405,-12.36584 7.19781,-15.328 7.20394,-21.25912 0.004,-4.08606 0.0161,-4.10699 1.54667,-2.72186 0.84832,0.76773 2.64817,3.64319 3.99965,6.3899 2.28206,4.63802 2.4552,5.53812 2.42851,12.62579 -0.0416,11.03628 -2.54742,16.35948 -13.24583,28.13795 -4.89933,5.39392 -12.14469,14.56845 -15.4012,19.50194 -0.79505,1.20448 0.0592,-3.09478 2.34864,-11.82012 z m 6.31881,-3.04734 c 5.12752,-8.28669 9.33439,-16.26076 8.83963,-16.7555 -0.43721,-0.43722 -8.62801,13.27497 -12.05652,20.18377 -3.11586,6.27876 -2.15763,5.25757 3.21689,-3.42827 z m 75.24167,15.23998 c 0,-0.25719 1.01279,-2.84768 2.25066,-5.7566 3.00814,-7.06901 7.35924,-14.4103 13.12629,-22.14695 2.61666,-3.51033 5.34586,-8.09595 6.06486,-10.19027 l 1.30728,-3.80786 0.95684,2.28418 c 0.52627,1.25629 0.96516,4.71866 0.97531,7.69412 0.0323,9.47398 -5.4535,18.15813 -16.97728,26.87539 -6.55916,4.96176 -7.70396,5.71187 -7.70396,5.04799 z m -32.35758,-6.72141 c -1.95244,-2.97978 -8.25357,-5.92233 -13.95859,-6.51844 l -5.10799,-0.53375 3.20746,-1.6855 c 4.10524,-2.15725 10.29882,-2.27049 13.61398,-0.2489 3.52624,2.1503 6.29434,9.03376 4.16262,10.35123 -0.40061,0.24759 -1.26347,-0.3665 -1.91748,-1.36464 z m 56.73645,-4.06929 c 0,-0.1776 2.31409,-1.37234 5.1424,-2.655 23.39949,-10.61171 45.78617,-13.58158 66.4705,-8.8181 3.80169,0.87551 2.95424,0.93973 -9.14207,0.69278 -17.95334,-0.36651 -34.55363,2.2437 -54.4742,8.56549 -4.39814,1.39574 -7.99663,2.39242 -7.99663,2.21483 z m 1.35211,-9.4807 c 8.44084,-12.50866 12.57941,-15.63189 24.93134,-18.81486 3.3521,-0.8638 6.69468,-1.80222 7.42794,-2.08538 2.83059,-1.09303 1.10054,1.44412 -5.35867,7.85855 -6.68767,6.64132 -11.2789,9.75503 -25.68111,17.41656 l -6.66383,3.54498 z m -20.81283,-23.15664 c -1.01927,-8.90663 -0.86782,-13.13489 0.52024,-14.52457 1.70841,-1.71044 4.32951,-0.75755 4.97344,1.80804 0.56295,2.24297 -1.06193,9.23732 -3.39667,14.62114 l -1.48671,3.42828 z"
       id="path30" /></g></svg>
